G04 #@! TF.GenerationSoftware,KiCad,Pcbnew,(2017-05-18 revision 2a3a699)-master*
G04 #@! TF.CreationDate,2017-05-23T18:31:29+02:00*
G04 #@! TF.ProjectId,reader,7265616465722E6B696361645F706362,rev?*
G04 #@! TF.FileFunction,Copper,L1,Top,Signal*
G04 #@! TF.FilePolarity,Positive*
%FSLAX46Y46*%
G04 Gerber Fmt 4.6, Leading zero omitted, Abs format (unit mm)*
G04 Created by KiCad (PCBNEW (2017-05-18 revision 2a3a699)-master) date Tue May 23 18:31:29 2017*
%MOMM*%
%LPD*%
G01*
G04 APERTURE LIST*
%ADD10C,0.385000*%
%ADD11O,1.727200X2.032000*%
%ADD12R,1.727200X2.032000*%
%ADD13C,11.000000*%
%ADD14R,1.727200X1.727200*%
%ADD15O,1.727200X1.727200*%
%ADD16R,1.300000X1.300000*%
%ADD17C,1.300000*%
%ADD18O,1.500000X2.000000*%
%ADD19R,1.600000X1.600000*%
%ADD20C,1.600000*%
%ADD21C,1.501140*%
%ADD22C,1.500000*%
%ADD23C,0.508000*%
%ADD24C,1.016000*%
%ADD25C,0.254000*%
G04 APERTURE END LIST*
D10*
D11*
X66100000Y-52300000D03*
X68640000Y-52300000D03*
X71180000Y-52300000D03*
X73720000Y-52300000D03*
X76260000Y-52300000D03*
X78800000Y-52300000D03*
X81340000Y-52300000D03*
D12*
X83880000Y-52300000D03*
D13*
X75400000Y-88100000D03*
D14*
X94450000Y-67780000D03*
D15*
X96990000Y-67780000D03*
X94450000Y-70320000D03*
X96990000Y-70320000D03*
X94450000Y-72860000D03*
X96990000Y-72860000D03*
X96990000Y-75400000D03*
X94450000Y-77940000D03*
X96990000Y-77940000D03*
D16*
X63970000Y-61430000D03*
D17*
X66470000Y-61430000D03*
X57620000Y-86830000D03*
D16*
X55120000Y-86830000D03*
D18*
X64010000Y-93100000D03*
X66510000Y-93100000D03*
X66510000Y-88100000D03*
X64010000Y-88100000D03*
X86870000Y-75480000D03*
X89370000Y-75480000D03*
X89370000Y-80480000D03*
X86870000Y-80480000D03*
D19*
X66510000Y-75400000D03*
D20*
X66510000Y-73400000D03*
D21*
X77940000Y-75400000D03*
X73058120Y-75400000D03*
D22*
X84328810Y-89370000D03*
X84311472Y-75330118D03*
X85560000Y-96355000D03*
X82385000Y-81750000D03*
X89370000Y-71590000D03*
X95720000Y-61430000D03*
X75400000Y-65240000D03*
X60160000Y-74130000D03*
X56350000Y-67780000D03*
X81115000Y-83655000D03*
X70955000Y-80480000D03*
X80480000Y-72898810D03*
X92416963Y-72928397D03*
X90640000Y-57620000D03*
X77940000Y-62700000D03*
X72860000Y-62065000D03*
X75400047Y-56750736D03*
D23*
X84311472Y-89352662D02*
X84328810Y-89370000D01*
X84311472Y-75330118D02*
X84311472Y-89352662D01*
X64010000Y-88100000D02*
X64010000Y-93100000D01*
D24*
X94450000Y-72860000D02*
X94450000Y-74130000D01*
D23*
X94450000Y-74130000D02*
X91910000Y-76670000D01*
X91910000Y-76670000D02*
X91910000Y-90005000D01*
X91910000Y-90005000D02*
X85560000Y-96355000D01*
D24*
X94450000Y-70320000D02*
X90640000Y-70320000D01*
D23*
X90640000Y-70320000D02*
X89370000Y-71590000D01*
X71180000Y-56125000D02*
X66735000Y-56125000D01*
X66735000Y-56125000D02*
X65240000Y-57620000D01*
D24*
X71180000Y-52300000D02*
X71180000Y-56125000D01*
D23*
X83020000Y-83445660D02*
X83020000Y-93815000D01*
X83020000Y-93815000D02*
X85560000Y-96355000D01*
X82385000Y-81750000D02*
X82385000Y-82810660D01*
X82385000Y-82810660D02*
X83020000Y-83445660D01*
X66510000Y-86592000D02*
X66510000Y-88100000D01*
X89370000Y-71590000D02*
X74930250Y-71590000D01*
X74930250Y-71590000D02*
X66510000Y-80010250D01*
X66510000Y-80010250D02*
X66510000Y-86592000D01*
X75400000Y-65240000D02*
X72860000Y-65240000D01*
X72860000Y-65240000D02*
X69050000Y-69050000D01*
X69050000Y-69050000D02*
X69050000Y-81115000D01*
X69050000Y-81115000D02*
X66510000Y-83655000D01*
X66510000Y-83655000D02*
X66510000Y-88100000D01*
X95720000Y-61430000D02*
X91910000Y-65240000D01*
X91910000Y-65240000D02*
X75400000Y-65240000D01*
X60160000Y-74130000D02*
X57620000Y-76670000D01*
X57620000Y-76670000D02*
X57620000Y-86830000D01*
X56350000Y-67780000D02*
X57620000Y-69050000D01*
X57620000Y-69050000D02*
X57620000Y-86830000D01*
X70955000Y-80480000D02*
X77940000Y-80480000D01*
X77940000Y-80480000D02*
X81115000Y-83655000D01*
X80509587Y-72928397D02*
X80480000Y-72898810D01*
X92416963Y-72928397D02*
X80509587Y-72928397D01*
X77940000Y-62700000D02*
X86807178Y-62700000D01*
X86807178Y-62700000D02*
X90640000Y-58867178D01*
X90640000Y-58867178D02*
X90640000Y-57620000D01*
X73720000Y-52300000D02*
X73720000Y-61205000D01*
X73720000Y-61205000D02*
X72860000Y-62065000D01*
X75400047Y-56750736D02*
X75400047Y-53159953D01*
X75400047Y-53159953D02*
X76260000Y-52300000D01*
X86870000Y-75480000D02*
X86870000Y-80480000D01*
X89370000Y-75480000D02*
X89370000Y-80480000D01*
D25*
G36*
X65526511Y-50730729D02*
X65040330Y-51055585D01*
X64715474Y-51541766D01*
X64601400Y-52115255D01*
X64601400Y-52484745D01*
X64715474Y-53058234D01*
X65040330Y-53544415D01*
X65526511Y-53869271D01*
X66100000Y-53983345D01*
X66673489Y-53869271D01*
X67159670Y-53544415D01*
X67370000Y-53229634D01*
X67580330Y-53544415D01*
X68066511Y-53869271D01*
X68640000Y-53983345D01*
X69213489Y-53869271D01*
X69699670Y-53544415D01*
X69906461Y-53234931D01*
X70277964Y-53650732D01*
X70805209Y-53904709D01*
X70820974Y-53907358D01*
X71053000Y-53786217D01*
X71053000Y-52427000D01*
X71033000Y-52427000D01*
X71033000Y-52173000D01*
X71053000Y-52173000D01*
X71053000Y-52153000D01*
X71307000Y-52153000D01*
X71307000Y-52173000D01*
X71327000Y-52173000D01*
X71327000Y-52427000D01*
X71307000Y-52427000D01*
X71307000Y-53786217D01*
X71539026Y-53907358D01*
X71554791Y-53904709D01*
X72082036Y-53650732D01*
X72453539Y-53234931D01*
X72660330Y-53544415D01*
X72831000Y-53658453D01*
X72831000Y-60679974D01*
X72585715Y-60679760D01*
X72076485Y-60890169D01*
X71686539Y-61279436D01*
X71475241Y-61788298D01*
X71474760Y-62339285D01*
X71685169Y-62848515D01*
X72074436Y-63238461D01*
X72583298Y-63449759D01*
X73134285Y-63450240D01*
X73643515Y-63239831D01*
X73909524Y-62974285D01*
X76554760Y-62974285D01*
X76765169Y-63483515D01*
X77154436Y-63873461D01*
X77663298Y-64084759D01*
X78214285Y-64085240D01*
X78723515Y-63874831D01*
X79009845Y-63589000D01*
X86807178Y-63589000D01*
X87147384Y-63521329D01*
X87435796Y-63328618D01*
X91268618Y-59495796D01*
X91461329Y-59207384D01*
X91529000Y-58867178D01*
X91529000Y-58689530D01*
X91813461Y-58405564D01*
X92024759Y-57896702D01*
X92025240Y-57345715D01*
X91814831Y-56836485D01*
X91500728Y-56521834D01*
X92364543Y-56521834D01*
X92764853Y-57490658D01*
X93505443Y-58232542D01*
X94473567Y-58634542D01*
X95521834Y-58635457D01*
X96490658Y-58235147D01*
X97232542Y-57494557D01*
X97634542Y-56526433D01*
X97635457Y-55478166D01*
X97235147Y-54509342D01*
X96494557Y-53767458D01*
X95526433Y-53365458D01*
X94478166Y-53364543D01*
X93509342Y-53764853D01*
X92767458Y-54505443D01*
X92365458Y-55473567D01*
X92364543Y-56521834D01*
X91500728Y-56521834D01*
X91425564Y-56446539D01*
X90916702Y-56235241D01*
X90365715Y-56234760D01*
X89856485Y-56445169D01*
X89466539Y-56834436D01*
X89255241Y-57343298D01*
X89254760Y-57894285D01*
X89465169Y-58403515D01*
X89655632Y-58594310D01*
X86438942Y-61811000D01*
X79009530Y-61811000D01*
X78725564Y-61526539D01*
X78216702Y-61315241D01*
X77665715Y-61314760D01*
X77156485Y-61525169D01*
X76766539Y-61914436D01*
X76555241Y-62423298D01*
X76554760Y-62974285D01*
X73909524Y-62974285D01*
X74033461Y-62850564D01*
X74244759Y-62341702D01*
X74245112Y-61937124D01*
X74348618Y-61833618D01*
X74541330Y-61545205D01*
X74609000Y-61205000D01*
X74609000Y-57918704D01*
X74614483Y-57924197D01*
X75123345Y-58135495D01*
X75674332Y-58135976D01*
X76183562Y-57925567D01*
X76573508Y-57536300D01*
X76784806Y-57027438D01*
X76785287Y-56476451D01*
X76574878Y-55967221D01*
X76289047Y-55680891D01*
X76289047Y-53977567D01*
X76833489Y-53869271D01*
X77319670Y-53544415D01*
X77530000Y-53229634D01*
X77740330Y-53544415D01*
X78226511Y-53869271D01*
X78800000Y-53983345D01*
X79373489Y-53869271D01*
X79859670Y-53544415D01*
X80070000Y-53229634D01*
X80280330Y-53544415D01*
X80766511Y-53869271D01*
X81340000Y-53983345D01*
X81913489Y-53869271D01*
X82399670Y-53544415D01*
X82411016Y-53527434D01*
X82418243Y-53563765D01*
X82558591Y-53773809D01*
X82768635Y-53914157D01*
X83016400Y-53963440D01*
X84743600Y-53963440D01*
X84991365Y-53914157D01*
X85201409Y-53773809D01*
X85341757Y-53563765D01*
X85391040Y-53316000D01*
X85391040Y-51284000D01*
X85341757Y-51036235D01*
X85201409Y-50826191D01*
X85027518Y-50710000D01*
X99290000Y-50710000D01*
X99290000Y-99290000D01*
X50710000Y-99290000D01*
X50710000Y-95521834D01*
X52364543Y-95521834D01*
X52764853Y-96490658D01*
X53505443Y-97232542D01*
X54473567Y-97634542D01*
X55521834Y-97635457D01*
X56490658Y-97235147D01*
X57232542Y-96494557D01*
X57634542Y-95526433D01*
X57634546Y-95521834D01*
X92364543Y-95521834D01*
X92764853Y-96490658D01*
X93505443Y-97232542D01*
X94473567Y-97634542D01*
X95521834Y-97635457D01*
X96490658Y-97235147D01*
X97232542Y-96494557D01*
X97634542Y-95526433D01*
X97635457Y-94478166D01*
X97235147Y-93509342D01*
X96494557Y-92767458D01*
X95526433Y-92365458D01*
X94478166Y-92364543D01*
X93509342Y-92764853D01*
X92767458Y-93505443D01*
X92365458Y-94473567D01*
X92364543Y-95521834D01*
X57634546Y-95521834D01*
X57635457Y-94478166D01*
X57235147Y-93509342D01*
X56494557Y-92767458D01*
X55526433Y-92365458D01*
X54478166Y-92364543D01*
X53509342Y-92764853D01*
X52767458Y-93505443D01*
X52365458Y-94473567D01*
X52364543Y-95521834D01*
X50710000Y-95521834D01*
X50710000Y-86180000D01*
X53822560Y-86180000D01*
X53822560Y-87480000D01*
X53871843Y-87727765D01*
X54012191Y-87937809D01*
X54222235Y-88078157D01*
X54470000Y-88127440D01*
X55770000Y-88127440D01*
X56017765Y-88078157D01*
X56227809Y-87937809D01*
X56367321Y-87729016D01*
X56900590Y-87729016D01*
X56956271Y-87959611D01*
X57439078Y-88127622D01*
X57949428Y-88098083D01*
X58283729Y-87959611D01*
X58317931Y-87817968D01*
X62625000Y-87817968D01*
X62625000Y-88382032D01*
X62730427Y-88912049D01*
X63030657Y-89361375D01*
X63121000Y-89421740D01*
X63121000Y-91778260D01*
X63030657Y-91838625D01*
X62730427Y-92287951D01*
X62625000Y-92817968D01*
X62625000Y-93382032D01*
X62730427Y-93912049D01*
X63030657Y-94361375D01*
X63479983Y-94661605D01*
X64010000Y-94767032D01*
X64540017Y-94661605D01*
X64989343Y-94361375D01*
X65257049Y-93960724D01*
X65260036Y-93971721D01*
X65593106Y-94402736D01*
X66065765Y-94673481D01*
X66168815Y-94692318D01*
X66383000Y-94569656D01*
X66383000Y-93227000D01*
X66637000Y-93227000D01*
X66637000Y-94569656D01*
X66851185Y-94692318D01*
X66954235Y-94673481D01*
X67426894Y-94402736D01*
X67759964Y-93971721D01*
X67902739Y-93446055D01*
X67741868Y-93227000D01*
X66637000Y-93227000D01*
X66383000Y-93227000D01*
X66363000Y-93227000D01*
X66363000Y-92973000D01*
X66383000Y-92973000D01*
X66383000Y-91630344D01*
X66637000Y-91630344D01*
X66637000Y-92973000D01*
X67741868Y-92973000D01*
X67902739Y-92753945D01*
X67759964Y-92228279D01*
X67426894Y-91797264D01*
X66954235Y-91526519D01*
X66851185Y-91507682D01*
X66637000Y-91630344D01*
X66383000Y-91630344D01*
X66168815Y-91507682D01*
X66065765Y-91526519D01*
X65593106Y-91797264D01*
X65260036Y-92228279D01*
X65257049Y-92239276D01*
X64989343Y-91838625D01*
X64899000Y-91778260D01*
X64899000Y-89421740D01*
X64989343Y-89361375D01*
X65257049Y-88960724D01*
X65260036Y-88971721D01*
X65593106Y-89402736D01*
X66065765Y-89673481D01*
X66168815Y-89692318D01*
X66383000Y-89569656D01*
X66383000Y-88227000D01*
X66637000Y-88227000D01*
X66637000Y-89569656D01*
X66851185Y-89692318D01*
X66954235Y-89673481D01*
X67426894Y-89402736D01*
X67494713Y-89314973D01*
X69263937Y-89314973D01*
X70195967Y-91570658D01*
X71920264Y-93297967D01*
X74174319Y-94233933D01*
X76614973Y-94236063D01*
X78870658Y-93304033D01*
X80597967Y-91579736D01*
X81533933Y-89325681D01*
X81536063Y-86885027D01*
X80760217Y-85007337D01*
X80838298Y-85039759D01*
X81389285Y-85040240D01*
X81898515Y-84829831D01*
X82288461Y-84440564D01*
X82499759Y-83931702D01*
X82500240Y-83380715D01*
X82289831Y-82871485D01*
X81900564Y-82481539D01*
X81391702Y-82270241D01*
X80987124Y-82269888D01*
X78568618Y-79851382D01*
X78280206Y-79658671D01*
X77940000Y-79591000D01*
X72024530Y-79591000D01*
X71740564Y-79306539D01*
X71231702Y-79095241D01*
X70680715Y-79094760D01*
X70171485Y-79305169D01*
X69781539Y-79694436D01*
X69570241Y-80203298D01*
X69569760Y-80754285D01*
X69780169Y-81263515D01*
X70169436Y-81653461D01*
X70678298Y-81864759D01*
X71229285Y-81865240D01*
X71738515Y-81654831D01*
X72024845Y-81369000D01*
X77571764Y-81369000D01*
X79730111Y-83527347D01*
X79729913Y-83753695D01*
X78879736Y-82902033D01*
X76625681Y-81966067D01*
X74185027Y-81963937D01*
X71929342Y-82895967D01*
X70202033Y-84620264D01*
X69266067Y-86874319D01*
X69263937Y-89314973D01*
X67494713Y-89314973D01*
X67759964Y-88971721D01*
X67902739Y-88446055D01*
X67741868Y-88227000D01*
X66637000Y-88227000D01*
X66383000Y-88227000D01*
X66363000Y-88227000D01*
X66363000Y-87973000D01*
X66383000Y-87973000D01*
X66383000Y-86630344D01*
X66637000Y-86630344D01*
X66637000Y-87973000D01*
X67741868Y-87973000D01*
X67902739Y-87753945D01*
X67759964Y-87228279D01*
X67426894Y-86797264D01*
X66954235Y-86526519D01*
X66851185Y-86507682D01*
X66637000Y-86630344D01*
X66383000Y-86630344D01*
X66168815Y-86507682D01*
X66065765Y-86526519D01*
X65593106Y-86797264D01*
X65260036Y-87228279D01*
X65257049Y-87239276D01*
X64989343Y-86838625D01*
X64540017Y-86538395D01*
X64010000Y-86432968D01*
X63479983Y-86538395D01*
X63030657Y-86838625D01*
X62730427Y-87287951D01*
X62625000Y-87817968D01*
X58317931Y-87817968D01*
X58339410Y-87729016D01*
X57620000Y-87009605D01*
X56900590Y-87729016D01*
X56367321Y-87729016D01*
X56368157Y-87727765D01*
X56417440Y-87480000D01*
X56417440Y-87317615D01*
X56490389Y-87493729D01*
X56720984Y-87549410D01*
X57440395Y-86830000D01*
X57799605Y-86830000D01*
X58519016Y-87549410D01*
X58749611Y-87493729D01*
X58917622Y-87010922D01*
X58888083Y-86500572D01*
X58749611Y-86166271D01*
X58519016Y-86110590D01*
X57799605Y-86830000D01*
X57440395Y-86830000D01*
X56720984Y-86110590D01*
X56490389Y-86166271D01*
X56417440Y-86375902D01*
X56417440Y-86180000D01*
X56368157Y-85932235D01*
X56367322Y-85930984D01*
X56900590Y-85930984D01*
X57620000Y-86650395D01*
X58339410Y-85930984D01*
X58283729Y-85700389D01*
X57800922Y-85532378D01*
X57290572Y-85561917D01*
X56956271Y-85700389D01*
X56900590Y-85930984D01*
X56367322Y-85930984D01*
X56227809Y-85722191D01*
X56017765Y-85581843D01*
X55770000Y-85532560D01*
X54470000Y-85532560D01*
X54222235Y-85581843D01*
X54012191Y-85722191D01*
X53871843Y-85932235D01*
X53822560Y-86180000D01*
X50710000Y-86180000D01*
X50710000Y-75685750D01*
X65075000Y-75685750D01*
X65075000Y-76326309D01*
X65171673Y-76559698D01*
X65350301Y-76738327D01*
X65583690Y-76835000D01*
X66224250Y-76835000D01*
X66383000Y-76676250D01*
X66383000Y-75527000D01*
X66637000Y-75527000D01*
X66637000Y-76676250D01*
X66795750Y-76835000D01*
X67436310Y-76835000D01*
X67669699Y-76738327D01*
X67848327Y-76559698D01*
X67945000Y-76326309D01*
X67945000Y-75685750D01*
X67933648Y-75674398D01*
X71672310Y-75674398D01*
X71882806Y-76183837D01*
X72272233Y-76573944D01*
X72781304Y-76785329D01*
X73332518Y-76785810D01*
X73841957Y-76575314D01*
X74232064Y-76185887D01*
X74443449Y-75676816D01*
X74443451Y-75674398D01*
X76554190Y-75674398D01*
X76764686Y-76183837D01*
X77154113Y-76573944D01*
X77663184Y-76785329D01*
X78214398Y-76785810D01*
X78723837Y-76575314D01*
X79113944Y-76185887D01*
X79325329Y-75676816D01*
X79325810Y-75125602D01*
X79115314Y-74616163D01*
X78725887Y-74226056D01*
X78216816Y-74014671D01*
X77665602Y-74014190D01*
X77156163Y-74224686D01*
X76766056Y-74614113D01*
X76554671Y-75123184D01*
X76554190Y-75674398D01*
X74443451Y-75674398D01*
X74443930Y-75125602D01*
X74233434Y-74616163D01*
X73844007Y-74226056D01*
X73334936Y-74014671D01*
X72783722Y-74014190D01*
X72274283Y-74224686D01*
X71884176Y-74614113D01*
X71672791Y-75123184D01*
X71672310Y-75674398D01*
X67933648Y-75674398D01*
X67786250Y-75527000D01*
X66637000Y-75527000D01*
X66383000Y-75527000D01*
X65233750Y-75527000D01*
X65075000Y-75685750D01*
X50710000Y-75685750D01*
X50710000Y-73684187D01*
X65074752Y-73684187D01*
X65265688Y-74146287D01*
X65171673Y-74240302D01*
X65075000Y-74473691D01*
X65075000Y-75114250D01*
X65233750Y-75273000D01*
X66383000Y-75273000D01*
X66383000Y-75253000D01*
X66637000Y-75253000D01*
X66637000Y-75273000D01*
X67786250Y-75273000D01*
X67945000Y-75114250D01*
X67945000Y-74473691D01*
X67848327Y-74240302D01*
X67754027Y-74146002D01*
X67944750Y-73686691D01*
X67945198Y-73173095D01*
X79094760Y-73173095D01*
X79305169Y-73682325D01*
X79694436Y-74072271D01*
X80203298Y-74283569D01*
X80754285Y-74284050D01*
X81263515Y-74073641D01*
X81520206Y-73817397D01*
X86847734Y-73817397D01*
X86339983Y-73918395D01*
X85890657Y-74218625D01*
X85590427Y-74667951D01*
X85572884Y-74756146D01*
X85486303Y-74546603D01*
X85097036Y-74156657D01*
X84588174Y-73945359D01*
X84037187Y-73944878D01*
X83527957Y-74155287D01*
X83138011Y-74544554D01*
X82926713Y-75053416D01*
X82926232Y-75604403D01*
X83136641Y-76113633D01*
X83422472Y-76399963D01*
X83422472Y-88317778D01*
X83155349Y-88584436D01*
X82944051Y-89093298D01*
X82943570Y-89644285D01*
X83153979Y-90153515D01*
X83543246Y-90543461D01*
X84052108Y-90754759D01*
X84603095Y-90755240D01*
X85112325Y-90544831D01*
X85502271Y-90155564D01*
X85713569Y-89646702D01*
X85714050Y-89095715D01*
X85503641Y-88586485D01*
X85200472Y-88282787D01*
X85200472Y-76399648D01*
X85484933Y-76115682D01*
X85532540Y-76001032D01*
X85590427Y-76292049D01*
X85890657Y-76741375D01*
X85981000Y-76801740D01*
X85981000Y-79158260D01*
X85890657Y-79218625D01*
X85590427Y-79667951D01*
X85485000Y-80197968D01*
X85485000Y-80762032D01*
X85590427Y-81292049D01*
X85890657Y-81741375D01*
X86339983Y-82041605D01*
X86870000Y-82147032D01*
X87400017Y-82041605D01*
X87849343Y-81741375D01*
X88120000Y-81336308D01*
X88390657Y-81741375D01*
X88839983Y-82041605D01*
X89370000Y-82147032D01*
X89900017Y-82041605D01*
X90349343Y-81741375D01*
X90649573Y-81292049D01*
X90755000Y-80762032D01*
X90755000Y-80197968D01*
X90649573Y-79667951D01*
X90349343Y-79218625D01*
X90259000Y-79158260D01*
X90259000Y-77940000D01*
X92922041Y-77940000D01*
X93036115Y-78513489D01*
X93360971Y-78999670D01*
X93847152Y-79324526D01*
X94420641Y-79438600D01*
X94479359Y-79438600D01*
X95052848Y-79324526D01*
X95539029Y-78999670D01*
X95720000Y-78728828D01*
X95900971Y-78999670D01*
X96387152Y-79324526D01*
X96960641Y-79438600D01*
X97019359Y-79438600D01*
X97592848Y-79324526D01*
X98079029Y-78999670D01*
X98403885Y-78513489D01*
X98517959Y-77940000D01*
X98403885Y-77366511D01*
X98079029Y-76880330D01*
X97764248Y-76670000D01*
X98079029Y-76459670D01*
X98403885Y-75973489D01*
X98517959Y-75400000D01*
X98403885Y-74826511D01*
X98079029Y-74340330D01*
X97764248Y-74130000D01*
X98079029Y-73919670D01*
X98403885Y-73433489D01*
X98517959Y-72860000D01*
X98403885Y-72286511D01*
X98079029Y-71800330D01*
X97764248Y-71590000D01*
X98079029Y-71379670D01*
X98403885Y-70893489D01*
X98517959Y-70320000D01*
X98403885Y-69746511D01*
X98079029Y-69260330D01*
X97764248Y-69050000D01*
X98079029Y-68839670D01*
X98403885Y-68353489D01*
X98517959Y-67780000D01*
X98403885Y-67206511D01*
X98079029Y-66720330D01*
X97592848Y-66395474D01*
X97019359Y-66281400D01*
X96960641Y-66281400D01*
X96387152Y-66395474D01*
X95919568Y-66707904D01*
X95911757Y-66668635D01*
X95771409Y-66458591D01*
X95561365Y-66318243D01*
X95313600Y-66268960D01*
X93586400Y-66268960D01*
X93338635Y-66318243D01*
X93128591Y-66458591D01*
X92988243Y-66668635D01*
X92938960Y-66916400D01*
X92938960Y-68643600D01*
X92988243Y-68891365D01*
X93128591Y-69101409D01*
X93338635Y-69241757D01*
X93427936Y-69259520D01*
X93167312Y-69545053D01*
X92995042Y-69960974D01*
X93116183Y-70193000D01*
X94323000Y-70193000D01*
X94323000Y-70173000D01*
X94577000Y-70173000D01*
X94577000Y-70193000D01*
X94597000Y-70193000D01*
X94597000Y-70447000D01*
X94577000Y-70447000D01*
X94577000Y-72733000D01*
X94597000Y-72733000D01*
X94597000Y-72987000D01*
X94577000Y-72987000D01*
X94577000Y-74194469D01*
X94809027Y-74314968D01*
X95338490Y-74066821D01*
X95720008Y-73648839D01*
X95900971Y-73919670D01*
X96215752Y-74130000D01*
X95900971Y-74340330D01*
X95576115Y-74826511D01*
X95462041Y-75400000D01*
X95576115Y-75973489D01*
X95900971Y-76459670D01*
X96215752Y-76670000D01*
X95900971Y-76880330D01*
X95720000Y-77151172D01*
X95539029Y-76880330D01*
X95052848Y-76555474D01*
X94479359Y-76441400D01*
X94420641Y-76441400D01*
X93847152Y-76555474D01*
X93360971Y-76880330D01*
X93036115Y-77366511D01*
X92922041Y-77940000D01*
X90259000Y-77940000D01*
X90259000Y-76801740D01*
X90349343Y-76741375D01*
X90649573Y-76292049D01*
X90755000Y-75762032D01*
X90755000Y-75197968D01*
X90649573Y-74667951D01*
X90349343Y-74218625D01*
X89900017Y-73918395D01*
X89392266Y-73817397D01*
X91347433Y-73817397D01*
X91631399Y-74101858D01*
X92140261Y-74313156D01*
X92691248Y-74313637D01*
X93200478Y-74103228D01*
X93406772Y-73897293D01*
X93561510Y-74066821D01*
X94090973Y-74314968D01*
X94323000Y-74194469D01*
X94323000Y-72987000D01*
X94303000Y-72987000D01*
X94303000Y-72733000D01*
X94323000Y-72733000D01*
X94323000Y-70447000D01*
X93116183Y-70447000D01*
X92995042Y-70679026D01*
X93167312Y-71094947D01*
X93561510Y-71526821D01*
X93696313Y-71590000D01*
X93561510Y-71653179D01*
X93341531Y-71894183D01*
X93202527Y-71754936D01*
X92693665Y-71543638D01*
X92142678Y-71543157D01*
X91633448Y-71753566D01*
X91347118Y-72039397D01*
X81579065Y-72039397D01*
X81265564Y-71725349D01*
X80756702Y-71514051D01*
X80205715Y-71513570D01*
X79696485Y-71723979D01*
X79306539Y-72113246D01*
X79095241Y-72622108D01*
X79094760Y-73173095D01*
X67945198Y-73173095D01*
X67945248Y-73115813D01*
X67727243Y-72588200D01*
X67323923Y-72184176D01*
X66796691Y-71965250D01*
X66225813Y-71964752D01*
X65698200Y-72182757D01*
X65294176Y-72586077D01*
X65075250Y-73113309D01*
X65074752Y-73684187D01*
X50710000Y-73684187D01*
X50710000Y-60780000D01*
X62672560Y-60780000D01*
X62672560Y-62080000D01*
X62721843Y-62327765D01*
X62862191Y-62537809D01*
X63072235Y-62678157D01*
X63320000Y-62727440D01*
X64620000Y-62727440D01*
X64867765Y-62678157D01*
X65077809Y-62537809D01*
X65217321Y-62329016D01*
X65750590Y-62329016D01*
X65806271Y-62559611D01*
X66289078Y-62727622D01*
X66799428Y-62698083D01*
X67133729Y-62559611D01*
X67189410Y-62329016D01*
X66470000Y-61609605D01*
X65750590Y-62329016D01*
X65217321Y-62329016D01*
X65218157Y-62327765D01*
X65267440Y-62080000D01*
X65267440Y-61917615D01*
X65340389Y-62093729D01*
X65570984Y-62149410D01*
X66290395Y-61430000D01*
X66649605Y-61430000D01*
X67369016Y-62149410D01*
X67599611Y-62093729D01*
X67767622Y-61610922D01*
X67738083Y-61100572D01*
X67599611Y-60766271D01*
X67369016Y-60710590D01*
X66649605Y-61430000D01*
X66290395Y-61430000D01*
X65570984Y-60710590D01*
X65340389Y-60766271D01*
X65267440Y-60975902D01*
X65267440Y-60780000D01*
X65218157Y-60532235D01*
X65217322Y-60530984D01*
X65750590Y-60530984D01*
X66470000Y-61250395D01*
X67189410Y-60530984D01*
X67133729Y-60300389D01*
X66650922Y-60132378D01*
X66140572Y-60161917D01*
X65806271Y-60300389D01*
X65750590Y-60530984D01*
X65217322Y-60530984D01*
X65077809Y-60322191D01*
X64867765Y-60181843D01*
X64620000Y-60132560D01*
X63320000Y-60132560D01*
X63072235Y-60181843D01*
X62862191Y-60322191D01*
X62721843Y-60532235D01*
X62672560Y-60780000D01*
X50710000Y-60780000D01*
X50710000Y-56521834D01*
X52364543Y-56521834D01*
X52764853Y-57490658D01*
X53505443Y-58232542D01*
X54473567Y-58634542D01*
X55521834Y-58635457D01*
X56490658Y-58235147D01*
X57232542Y-57494557D01*
X57634542Y-56526433D01*
X57635457Y-55478166D01*
X57235147Y-54509342D01*
X56494557Y-53767458D01*
X55526433Y-53365458D01*
X54478166Y-53364543D01*
X53509342Y-53764853D01*
X52767458Y-54505443D01*
X52365458Y-55473567D01*
X52364543Y-56521834D01*
X50710000Y-56521834D01*
X50710000Y-50710000D01*
X65630723Y-50710000D01*
X65526511Y-50730729D01*
X65526511Y-50730729D01*
G37*
X65526511Y-50730729D02*
X65040330Y-51055585D01*
X64715474Y-51541766D01*
X64601400Y-52115255D01*
X64601400Y-52484745D01*
X64715474Y-53058234D01*
X65040330Y-53544415D01*
X65526511Y-53869271D01*
X66100000Y-53983345D01*
X66673489Y-53869271D01*
X67159670Y-53544415D01*
X67370000Y-53229634D01*
X67580330Y-53544415D01*
X68066511Y-53869271D01*
X68640000Y-53983345D01*
X69213489Y-53869271D01*
X69699670Y-53544415D01*
X69906461Y-53234931D01*
X70277964Y-53650732D01*
X70805209Y-53904709D01*
X70820974Y-53907358D01*
X71053000Y-53786217D01*
X71053000Y-52427000D01*
X71033000Y-52427000D01*
X71033000Y-52173000D01*
X71053000Y-52173000D01*
X71053000Y-52153000D01*
X71307000Y-52153000D01*
X71307000Y-52173000D01*
X71327000Y-52173000D01*
X71327000Y-52427000D01*
X71307000Y-52427000D01*
X71307000Y-53786217D01*
X71539026Y-53907358D01*
X71554791Y-53904709D01*
X72082036Y-53650732D01*
X72453539Y-53234931D01*
X72660330Y-53544415D01*
X72831000Y-53658453D01*
X72831000Y-60679974D01*
X72585715Y-60679760D01*
X72076485Y-60890169D01*
X71686539Y-61279436D01*
X71475241Y-61788298D01*
X71474760Y-62339285D01*
X71685169Y-62848515D01*
X72074436Y-63238461D01*
X72583298Y-63449759D01*
X73134285Y-63450240D01*
X73643515Y-63239831D01*
X73909524Y-62974285D01*
X76554760Y-62974285D01*
X76765169Y-63483515D01*
X77154436Y-63873461D01*
X77663298Y-64084759D01*
X78214285Y-64085240D01*
X78723515Y-63874831D01*
X79009845Y-63589000D01*
X86807178Y-63589000D01*
X87147384Y-63521329D01*
X87435796Y-63328618D01*
X91268618Y-59495796D01*
X91461329Y-59207384D01*
X91529000Y-58867178D01*
X91529000Y-58689530D01*
X91813461Y-58405564D01*
X92024759Y-57896702D01*
X92025240Y-57345715D01*
X91814831Y-56836485D01*
X91500728Y-56521834D01*
X92364543Y-56521834D01*
X92764853Y-57490658D01*
X93505443Y-58232542D01*
X94473567Y-58634542D01*
X95521834Y-58635457D01*
X96490658Y-58235147D01*
X97232542Y-57494557D01*
X97634542Y-56526433D01*
X97635457Y-55478166D01*
X97235147Y-54509342D01*
X96494557Y-53767458D01*
X95526433Y-53365458D01*
X94478166Y-53364543D01*
X93509342Y-53764853D01*
X92767458Y-54505443D01*
X92365458Y-55473567D01*
X92364543Y-56521834D01*
X91500728Y-56521834D01*
X91425564Y-56446539D01*
X90916702Y-56235241D01*
X90365715Y-56234760D01*
X89856485Y-56445169D01*
X89466539Y-56834436D01*
X89255241Y-57343298D01*
X89254760Y-57894285D01*
X89465169Y-58403515D01*
X89655632Y-58594310D01*
X86438942Y-61811000D01*
X79009530Y-61811000D01*
X78725564Y-61526539D01*
X78216702Y-61315241D01*
X77665715Y-61314760D01*
X77156485Y-61525169D01*
X76766539Y-61914436D01*
X76555241Y-62423298D01*
X76554760Y-62974285D01*
X73909524Y-62974285D01*
X74033461Y-62850564D01*
X74244759Y-62341702D01*
X74245112Y-61937124D01*
X74348618Y-61833618D01*
X74541330Y-61545205D01*
X74609000Y-61205000D01*
X74609000Y-57918704D01*
X74614483Y-57924197D01*
X75123345Y-58135495D01*
X75674332Y-58135976D01*
X76183562Y-57925567D01*
X76573508Y-57536300D01*
X76784806Y-57027438D01*
X76785287Y-56476451D01*
X76574878Y-55967221D01*
X76289047Y-55680891D01*
X76289047Y-53977567D01*
X76833489Y-53869271D01*
X77319670Y-53544415D01*
X77530000Y-53229634D01*
X77740330Y-53544415D01*
X78226511Y-53869271D01*
X78800000Y-53983345D01*
X79373489Y-53869271D01*
X79859670Y-53544415D01*
X80070000Y-53229634D01*
X80280330Y-53544415D01*
X80766511Y-53869271D01*
X81340000Y-53983345D01*
X81913489Y-53869271D01*
X82399670Y-53544415D01*
X82411016Y-53527434D01*
X82418243Y-53563765D01*
X82558591Y-53773809D01*
X82768635Y-53914157D01*
X83016400Y-53963440D01*
X84743600Y-53963440D01*
X84991365Y-53914157D01*
X85201409Y-53773809D01*
X85341757Y-53563765D01*
X85391040Y-53316000D01*
X85391040Y-51284000D01*
X85341757Y-51036235D01*
X85201409Y-50826191D01*
X85027518Y-50710000D01*
X99290000Y-50710000D01*
X99290000Y-99290000D01*
X50710000Y-99290000D01*
X50710000Y-95521834D01*
X52364543Y-95521834D01*
X52764853Y-96490658D01*
X53505443Y-97232542D01*
X54473567Y-97634542D01*
X55521834Y-97635457D01*
X56490658Y-97235147D01*
X57232542Y-96494557D01*
X57634542Y-95526433D01*
X57634546Y-95521834D01*
X92364543Y-95521834D01*
X92764853Y-96490658D01*
X93505443Y-97232542D01*
X94473567Y-97634542D01*
X95521834Y-97635457D01*
X96490658Y-97235147D01*
X97232542Y-96494557D01*
X97634542Y-95526433D01*
X97635457Y-94478166D01*
X97235147Y-93509342D01*
X96494557Y-92767458D01*
X95526433Y-92365458D01*
X94478166Y-92364543D01*
X93509342Y-92764853D01*
X92767458Y-93505443D01*
X92365458Y-94473567D01*
X92364543Y-95521834D01*
X57634546Y-95521834D01*
X57635457Y-94478166D01*
X57235147Y-93509342D01*
X56494557Y-92767458D01*
X55526433Y-92365458D01*
X54478166Y-92364543D01*
X53509342Y-92764853D01*
X52767458Y-93505443D01*
X52365458Y-94473567D01*
X52364543Y-95521834D01*
X50710000Y-95521834D01*
X50710000Y-86180000D01*
X53822560Y-86180000D01*
X53822560Y-87480000D01*
X53871843Y-87727765D01*
X54012191Y-87937809D01*
X54222235Y-88078157D01*
X54470000Y-88127440D01*
X55770000Y-88127440D01*
X56017765Y-88078157D01*
X56227809Y-87937809D01*
X56367321Y-87729016D01*
X56900590Y-87729016D01*
X56956271Y-87959611D01*
X57439078Y-88127622D01*
X57949428Y-88098083D01*
X58283729Y-87959611D01*
X58317931Y-87817968D01*
X62625000Y-87817968D01*
X62625000Y-88382032D01*
X62730427Y-88912049D01*
X63030657Y-89361375D01*
X63121000Y-89421740D01*
X63121000Y-91778260D01*
X63030657Y-91838625D01*
X62730427Y-92287951D01*
X62625000Y-92817968D01*
X62625000Y-93382032D01*
X62730427Y-93912049D01*
X63030657Y-94361375D01*
X63479983Y-94661605D01*
X64010000Y-94767032D01*
X64540017Y-94661605D01*
X64989343Y-94361375D01*
X65257049Y-93960724D01*
X65260036Y-93971721D01*
X65593106Y-94402736D01*
X66065765Y-94673481D01*
X66168815Y-94692318D01*
X66383000Y-94569656D01*
X66383000Y-93227000D01*
X66637000Y-93227000D01*
X66637000Y-94569656D01*
X66851185Y-94692318D01*
X66954235Y-94673481D01*
X67426894Y-94402736D01*
X67759964Y-93971721D01*
X67902739Y-93446055D01*
X67741868Y-93227000D01*
X66637000Y-93227000D01*
X66383000Y-93227000D01*
X66363000Y-93227000D01*
X66363000Y-92973000D01*
X66383000Y-92973000D01*
X66383000Y-91630344D01*
X66637000Y-91630344D01*
X66637000Y-92973000D01*
X67741868Y-92973000D01*
X67902739Y-92753945D01*
X67759964Y-92228279D01*
X67426894Y-91797264D01*
X66954235Y-91526519D01*
X66851185Y-91507682D01*
X66637000Y-91630344D01*
X66383000Y-91630344D01*
X66168815Y-91507682D01*
X66065765Y-91526519D01*
X65593106Y-91797264D01*
X65260036Y-92228279D01*
X65257049Y-92239276D01*
X64989343Y-91838625D01*
X64899000Y-91778260D01*
X64899000Y-89421740D01*
X64989343Y-89361375D01*
X65257049Y-88960724D01*
X65260036Y-88971721D01*
X65593106Y-89402736D01*
X66065765Y-89673481D01*
X66168815Y-89692318D01*
X66383000Y-89569656D01*
X66383000Y-88227000D01*
X66637000Y-88227000D01*
X66637000Y-89569656D01*
X66851185Y-89692318D01*
X66954235Y-89673481D01*
X67426894Y-89402736D01*
X67494713Y-89314973D01*
X69263937Y-89314973D01*
X70195967Y-91570658D01*
X71920264Y-93297967D01*
X74174319Y-94233933D01*
X76614973Y-94236063D01*
X78870658Y-93304033D01*
X80597967Y-91579736D01*
X81533933Y-89325681D01*
X81536063Y-86885027D01*
X80760217Y-85007337D01*
X80838298Y-85039759D01*
X81389285Y-85040240D01*
X81898515Y-84829831D01*
X82288461Y-84440564D01*
X82499759Y-83931702D01*
X82500240Y-83380715D01*
X82289831Y-82871485D01*
X81900564Y-82481539D01*
X81391702Y-82270241D01*
X80987124Y-82269888D01*
X78568618Y-79851382D01*
X78280206Y-79658671D01*
X77940000Y-79591000D01*
X72024530Y-79591000D01*
X71740564Y-79306539D01*
X71231702Y-79095241D01*
X70680715Y-79094760D01*
X70171485Y-79305169D01*
X69781539Y-79694436D01*
X69570241Y-80203298D01*
X69569760Y-80754285D01*
X69780169Y-81263515D01*
X70169436Y-81653461D01*
X70678298Y-81864759D01*
X71229285Y-81865240D01*
X71738515Y-81654831D01*
X72024845Y-81369000D01*
X77571764Y-81369000D01*
X79730111Y-83527347D01*
X79729913Y-83753695D01*
X78879736Y-82902033D01*
X76625681Y-81966067D01*
X74185027Y-81963937D01*
X71929342Y-82895967D01*
X70202033Y-84620264D01*
X69266067Y-86874319D01*
X69263937Y-89314973D01*
X67494713Y-89314973D01*
X67759964Y-88971721D01*
X67902739Y-88446055D01*
X67741868Y-88227000D01*
X66637000Y-88227000D01*
X66383000Y-88227000D01*
X66363000Y-88227000D01*
X66363000Y-87973000D01*
X66383000Y-87973000D01*
X66383000Y-86630344D01*
X66637000Y-86630344D01*
X66637000Y-87973000D01*
X67741868Y-87973000D01*
X67902739Y-87753945D01*
X67759964Y-87228279D01*
X67426894Y-86797264D01*
X66954235Y-86526519D01*
X66851185Y-86507682D01*
X66637000Y-86630344D01*
X66383000Y-86630344D01*
X66168815Y-86507682D01*
X66065765Y-86526519D01*
X65593106Y-86797264D01*
X65260036Y-87228279D01*
X65257049Y-87239276D01*
X64989343Y-86838625D01*
X64540017Y-86538395D01*
X64010000Y-86432968D01*
X63479983Y-86538395D01*
X63030657Y-86838625D01*
X62730427Y-87287951D01*
X62625000Y-87817968D01*
X58317931Y-87817968D01*
X58339410Y-87729016D01*
X57620000Y-87009605D01*
X56900590Y-87729016D01*
X56367321Y-87729016D01*
X56368157Y-87727765D01*
X56417440Y-87480000D01*
X56417440Y-87317615D01*
X56490389Y-87493729D01*
X56720984Y-87549410D01*
X57440395Y-86830000D01*
X57799605Y-86830000D01*
X58519016Y-87549410D01*
X58749611Y-87493729D01*
X58917622Y-87010922D01*
X58888083Y-86500572D01*
X58749611Y-86166271D01*
X58519016Y-86110590D01*
X57799605Y-86830000D01*
X57440395Y-86830000D01*
X56720984Y-86110590D01*
X56490389Y-86166271D01*
X56417440Y-86375902D01*
X56417440Y-86180000D01*
X56368157Y-85932235D01*
X56367322Y-85930984D01*
X56900590Y-85930984D01*
X57620000Y-86650395D01*
X58339410Y-85930984D01*
X58283729Y-85700389D01*
X57800922Y-85532378D01*
X57290572Y-85561917D01*
X56956271Y-85700389D01*
X56900590Y-85930984D01*
X56367322Y-85930984D01*
X56227809Y-85722191D01*
X56017765Y-85581843D01*
X55770000Y-85532560D01*
X54470000Y-85532560D01*
X54222235Y-85581843D01*
X54012191Y-85722191D01*
X53871843Y-85932235D01*
X53822560Y-86180000D01*
X50710000Y-86180000D01*
X50710000Y-75685750D01*
X65075000Y-75685750D01*
X65075000Y-76326309D01*
X65171673Y-76559698D01*
X65350301Y-76738327D01*
X65583690Y-76835000D01*
X66224250Y-76835000D01*
X66383000Y-76676250D01*
X66383000Y-75527000D01*
X66637000Y-75527000D01*
X66637000Y-76676250D01*
X66795750Y-76835000D01*
X67436310Y-76835000D01*
X67669699Y-76738327D01*
X67848327Y-76559698D01*
X67945000Y-76326309D01*
X67945000Y-75685750D01*
X67933648Y-75674398D01*
X71672310Y-75674398D01*
X71882806Y-76183837D01*
X72272233Y-76573944D01*
X72781304Y-76785329D01*
X73332518Y-76785810D01*
X73841957Y-76575314D01*
X74232064Y-76185887D01*
X74443449Y-75676816D01*
X74443451Y-75674398D01*
X76554190Y-75674398D01*
X76764686Y-76183837D01*
X77154113Y-76573944D01*
X77663184Y-76785329D01*
X78214398Y-76785810D01*
X78723837Y-76575314D01*
X79113944Y-76185887D01*
X79325329Y-75676816D01*
X79325810Y-75125602D01*
X79115314Y-74616163D01*
X78725887Y-74226056D01*
X78216816Y-74014671D01*
X77665602Y-74014190D01*
X77156163Y-74224686D01*
X76766056Y-74614113D01*
X76554671Y-75123184D01*
X76554190Y-75674398D01*
X74443451Y-75674398D01*
X74443930Y-75125602D01*
X74233434Y-74616163D01*
X73844007Y-74226056D01*
X73334936Y-74014671D01*
X72783722Y-74014190D01*
X72274283Y-74224686D01*
X71884176Y-74614113D01*
X71672791Y-75123184D01*
X71672310Y-75674398D01*
X67933648Y-75674398D01*
X67786250Y-75527000D01*
X66637000Y-75527000D01*
X66383000Y-75527000D01*
X65233750Y-75527000D01*
X65075000Y-75685750D01*
X50710000Y-75685750D01*
X50710000Y-73684187D01*
X65074752Y-73684187D01*
X65265688Y-74146287D01*
X65171673Y-74240302D01*
X65075000Y-74473691D01*
X65075000Y-75114250D01*
X65233750Y-75273000D01*
X66383000Y-75273000D01*
X66383000Y-75253000D01*
X66637000Y-75253000D01*
X66637000Y-75273000D01*
X67786250Y-75273000D01*
X67945000Y-75114250D01*
X67945000Y-74473691D01*
X67848327Y-74240302D01*
X67754027Y-74146002D01*
X67944750Y-73686691D01*
X67945198Y-73173095D01*
X79094760Y-73173095D01*
X79305169Y-73682325D01*
X79694436Y-74072271D01*
X80203298Y-74283569D01*
X80754285Y-74284050D01*
X81263515Y-74073641D01*
X81520206Y-73817397D01*
X86847734Y-73817397D01*
X86339983Y-73918395D01*
X85890657Y-74218625D01*
X85590427Y-74667951D01*
X85572884Y-74756146D01*
X85486303Y-74546603D01*
X85097036Y-74156657D01*
X84588174Y-73945359D01*
X84037187Y-73944878D01*
X83527957Y-74155287D01*
X83138011Y-74544554D01*
X82926713Y-75053416D01*
X82926232Y-75604403D01*
X83136641Y-76113633D01*
X83422472Y-76399963D01*
X83422472Y-88317778D01*
X83155349Y-88584436D01*
X82944051Y-89093298D01*
X82943570Y-89644285D01*
X83153979Y-90153515D01*
X83543246Y-90543461D01*
X84052108Y-90754759D01*
X84603095Y-90755240D01*
X85112325Y-90544831D01*
X85502271Y-90155564D01*
X85713569Y-89646702D01*
X85714050Y-89095715D01*
X85503641Y-88586485D01*
X85200472Y-88282787D01*
X85200472Y-76399648D01*
X85484933Y-76115682D01*
X85532540Y-76001032D01*
X85590427Y-76292049D01*
X85890657Y-76741375D01*
X85981000Y-76801740D01*
X85981000Y-79158260D01*
X85890657Y-79218625D01*
X85590427Y-79667951D01*
X85485000Y-80197968D01*
X85485000Y-80762032D01*
X85590427Y-81292049D01*
X85890657Y-81741375D01*
X86339983Y-82041605D01*
X86870000Y-82147032D01*
X87400017Y-82041605D01*
X87849343Y-81741375D01*
X88120000Y-81336308D01*
X88390657Y-81741375D01*
X88839983Y-82041605D01*
X89370000Y-82147032D01*
X89900017Y-82041605D01*
X90349343Y-81741375D01*
X90649573Y-81292049D01*
X90755000Y-80762032D01*
X90755000Y-80197968D01*
X90649573Y-79667951D01*
X90349343Y-79218625D01*
X90259000Y-79158260D01*
X90259000Y-77940000D01*
X92922041Y-77940000D01*
X93036115Y-78513489D01*
X93360971Y-78999670D01*
X93847152Y-79324526D01*
X94420641Y-79438600D01*
X94479359Y-79438600D01*
X95052848Y-79324526D01*
X95539029Y-78999670D01*
X95720000Y-78728828D01*
X95900971Y-78999670D01*
X96387152Y-79324526D01*
X96960641Y-79438600D01*
X97019359Y-79438600D01*
X97592848Y-79324526D01*
X98079029Y-78999670D01*
X98403885Y-78513489D01*
X98517959Y-77940000D01*
X98403885Y-77366511D01*
X98079029Y-76880330D01*
X97764248Y-76670000D01*
X98079029Y-76459670D01*
X98403885Y-75973489D01*
X98517959Y-75400000D01*
X98403885Y-74826511D01*
X98079029Y-74340330D01*
X97764248Y-74130000D01*
X98079029Y-73919670D01*
X98403885Y-73433489D01*
X98517959Y-72860000D01*
X98403885Y-72286511D01*
X98079029Y-71800330D01*
X97764248Y-71590000D01*
X98079029Y-71379670D01*
X98403885Y-70893489D01*
X98517959Y-70320000D01*
X98403885Y-69746511D01*
X98079029Y-69260330D01*
X97764248Y-69050000D01*
X98079029Y-68839670D01*
X98403885Y-68353489D01*
X98517959Y-67780000D01*
X98403885Y-67206511D01*
X98079029Y-66720330D01*
X97592848Y-66395474D01*
X97019359Y-66281400D01*
X96960641Y-66281400D01*
X96387152Y-66395474D01*
X95919568Y-66707904D01*
X95911757Y-66668635D01*
X95771409Y-66458591D01*
X95561365Y-66318243D01*
X95313600Y-66268960D01*
X93586400Y-66268960D01*
X93338635Y-66318243D01*
X93128591Y-66458591D01*
X92988243Y-66668635D01*
X92938960Y-66916400D01*
X92938960Y-68643600D01*
X92988243Y-68891365D01*
X93128591Y-69101409D01*
X93338635Y-69241757D01*
X93427936Y-69259520D01*
X93167312Y-69545053D01*
X92995042Y-69960974D01*
X93116183Y-70193000D01*
X94323000Y-70193000D01*
X94323000Y-70173000D01*
X94577000Y-70173000D01*
X94577000Y-70193000D01*
X94597000Y-70193000D01*
X94597000Y-70447000D01*
X94577000Y-70447000D01*
X94577000Y-72733000D01*
X94597000Y-72733000D01*
X94597000Y-72987000D01*
X94577000Y-72987000D01*
X94577000Y-74194469D01*
X94809027Y-74314968D01*
X95338490Y-74066821D01*
X95720008Y-73648839D01*
X95900971Y-73919670D01*
X96215752Y-74130000D01*
X95900971Y-74340330D01*
X95576115Y-74826511D01*
X95462041Y-75400000D01*
X95576115Y-75973489D01*
X95900971Y-76459670D01*
X96215752Y-76670000D01*
X95900971Y-76880330D01*
X95720000Y-77151172D01*
X95539029Y-76880330D01*
X95052848Y-76555474D01*
X94479359Y-76441400D01*
X94420641Y-76441400D01*
X93847152Y-76555474D01*
X93360971Y-76880330D01*
X93036115Y-77366511D01*
X92922041Y-77940000D01*
X90259000Y-77940000D01*
X90259000Y-76801740D01*
X90349343Y-76741375D01*
X90649573Y-76292049D01*
X90755000Y-75762032D01*
X90755000Y-75197968D01*
X90649573Y-74667951D01*
X90349343Y-74218625D01*
X89900017Y-73918395D01*
X89392266Y-73817397D01*
X91347433Y-73817397D01*
X91631399Y-74101858D01*
X92140261Y-74313156D01*
X92691248Y-74313637D01*
X93200478Y-74103228D01*
X93406772Y-73897293D01*
X93561510Y-74066821D01*
X94090973Y-74314968D01*
X94323000Y-74194469D01*
X94323000Y-72987000D01*
X94303000Y-72987000D01*
X94303000Y-72733000D01*
X94323000Y-72733000D01*
X94323000Y-70447000D01*
X93116183Y-70447000D01*
X92995042Y-70679026D01*
X93167312Y-71094947D01*
X93561510Y-71526821D01*
X93696313Y-71590000D01*
X93561510Y-71653179D01*
X93341531Y-71894183D01*
X93202527Y-71754936D01*
X92693665Y-71543638D01*
X92142678Y-71543157D01*
X91633448Y-71753566D01*
X91347118Y-72039397D01*
X81579065Y-72039397D01*
X81265564Y-71725349D01*
X80756702Y-71514051D01*
X80205715Y-71513570D01*
X79696485Y-71723979D01*
X79306539Y-72113246D01*
X79095241Y-72622108D01*
X79094760Y-73173095D01*
X67945198Y-73173095D01*
X67945248Y-73115813D01*
X67727243Y-72588200D01*
X67323923Y-72184176D01*
X66796691Y-71965250D01*
X66225813Y-71964752D01*
X65698200Y-72182757D01*
X65294176Y-72586077D01*
X65075250Y-73113309D01*
X65074752Y-73684187D01*
X50710000Y-73684187D01*
X50710000Y-60780000D01*
X62672560Y-60780000D01*
X62672560Y-62080000D01*
X62721843Y-62327765D01*
X62862191Y-62537809D01*
X63072235Y-62678157D01*
X63320000Y-62727440D01*
X64620000Y-62727440D01*
X64867765Y-62678157D01*
X65077809Y-62537809D01*
X65217321Y-62329016D01*
X65750590Y-62329016D01*
X65806271Y-62559611D01*
X66289078Y-62727622D01*
X66799428Y-62698083D01*
X67133729Y-62559611D01*
X67189410Y-62329016D01*
X66470000Y-61609605D01*
X65750590Y-62329016D01*
X65217321Y-62329016D01*
X65218157Y-62327765D01*
X65267440Y-62080000D01*
X65267440Y-61917615D01*
X65340389Y-62093729D01*
X65570984Y-62149410D01*
X66290395Y-61430000D01*
X66649605Y-61430000D01*
X67369016Y-62149410D01*
X67599611Y-62093729D01*
X67767622Y-61610922D01*
X67738083Y-61100572D01*
X67599611Y-60766271D01*
X67369016Y-60710590D01*
X66649605Y-61430000D01*
X66290395Y-61430000D01*
X65570984Y-60710590D01*
X65340389Y-60766271D01*
X65267440Y-60975902D01*
X65267440Y-60780000D01*
X65218157Y-60532235D01*
X65217322Y-60530984D01*
X65750590Y-60530984D01*
X66470000Y-61250395D01*
X67189410Y-60530984D01*
X67133729Y-60300389D01*
X66650922Y-60132378D01*
X66140572Y-60161917D01*
X65806271Y-60300389D01*
X65750590Y-60530984D01*
X65217322Y-60530984D01*
X65077809Y-60322191D01*
X64867765Y-60181843D01*
X64620000Y-60132560D01*
X63320000Y-60132560D01*
X63072235Y-60181843D01*
X62862191Y-60322191D01*
X62721843Y-60532235D01*
X62672560Y-60780000D01*
X50710000Y-60780000D01*
X50710000Y-56521834D01*
X52364543Y-56521834D01*
X52764853Y-57490658D01*
X53505443Y-58232542D01*
X54473567Y-58634542D01*
X55521834Y-58635457D01*
X56490658Y-58235147D01*
X57232542Y-57494557D01*
X57634542Y-56526433D01*
X57635457Y-55478166D01*
X57235147Y-54509342D01*
X56494557Y-53767458D01*
X55526433Y-53365458D01*
X54478166Y-53364543D01*
X53509342Y-53764853D01*
X52767458Y-54505443D01*
X52365458Y-55473567D01*
X52364543Y-56521834D01*
X50710000Y-56521834D01*
X50710000Y-50710000D01*
X65630723Y-50710000D01*
X65526511Y-50730729D01*
M02*
