G04 #@! TF.GenerationSoftware,KiCad,Pcbnew,(2017-05-18 revision 2a3a699)-master*
G04 #@! TF.CreationDate,2017-05-23T18:31:29+02:00*
G04 #@! TF.ProjectId,reader,7265616465722E6B696361645F706362,rev?*
G04 #@! TF.FileFunction,Copper,L2,Bot,Signal*
G04 #@! TF.FilePolarity,Positive*
%FSLAX46Y46*%
G04 Gerber Fmt 4.6, Leading zero omitted, Abs format (unit mm)*
G04 Created by KiCad (PCBNEW (2017-05-18 revision 2a3a699)-master) date Tue May 23 18:31:29 2017*
%MOMM*%
%LPD*%
G01*
G04 APERTURE LIST*
%ADD10C,0.385000*%
%ADD11O,1.727200X2.032000*%
%ADD12R,1.727200X2.032000*%
%ADD13C,11.000000*%
%ADD14R,1.727200X1.727200*%
%ADD15O,1.727200X1.727200*%
%ADD16R,1.300000X1.300000*%
%ADD17C,1.300000*%
%ADD18R,1.600000X2.000000*%
%ADD19R,2.000000X1.600000*%
%ADD20R,1.800860X1.597660*%
%ADD21O,1.500000X2.000000*%
%ADD22R,1.600000X1.600000*%
%ADD23C,1.600000*%
%ADD24R,0.800100X1.800860*%
%ADD25R,1.800860X0.800100*%
%ADD26R,2.000000X1.700000*%
%ADD27R,1.700000X2.000000*%
%ADD28R,1.460000X0.650000*%
%ADD29R,0.600000X1.550000*%
%ADD30R,0.600000X1.950000*%
%ADD31C,1.501140*%
%ADD32C,1.500000*%
%ADD33C,0.508000*%
%ADD34C,1.016000*%
%ADD35C,0.254000*%
G04 APERTURE END LIST*
D10*
D11*
X66100000Y-52300000D03*
X68640000Y-52300000D03*
X71180000Y-52300000D03*
X73720000Y-52300000D03*
X76260000Y-52300000D03*
X78800000Y-52300000D03*
X81340000Y-52300000D03*
D12*
X83880000Y-52300000D03*
D13*
X75400000Y-88100000D03*
D14*
X94450000Y-67780000D03*
D15*
X96990000Y-67780000D03*
X94450000Y-70320000D03*
X96990000Y-70320000D03*
X94450000Y-72860000D03*
X96990000Y-72860000D03*
X96990000Y-75400000D03*
X94450000Y-77940000D03*
X96990000Y-77940000D03*
D16*
X63970000Y-61430000D03*
D17*
X66470000Y-61430000D03*
D18*
X83020000Y-97720000D03*
X83020000Y-93720000D03*
D19*
X74860000Y-96990000D03*
X70860000Y-96990000D03*
X90100000Y-85560000D03*
X86100000Y-85560000D03*
X63240000Y-96990000D03*
X67240000Y-96990000D03*
D17*
X57620000Y-86830000D03*
D16*
X55120000Y-86830000D03*
D19*
X74670000Y-80480000D03*
X78670000Y-80480000D03*
X82480000Y-77940000D03*
X78480000Y-77940000D03*
X75590000Y-77940000D03*
X71590000Y-77940000D03*
X78480000Y-71590000D03*
X82480000Y-71590000D03*
X67050000Y-55080000D03*
X71050000Y-55080000D03*
D20*
X52540000Y-66510000D03*
X52540000Y-63670280D03*
X52540000Y-73159720D03*
X52540000Y-70320000D03*
D21*
X64010000Y-93100000D03*
X66510000Y-93100000D03*
X66510000Y-88100000D03*
X64010000Y-88100000D03*
X86870000Y-75480000D03*
X89370000Y-75480000D03*
X89370000Y-80480000D03*
X86870000Y-80480000D03*
D22*
X66510000Y-75400000D03*
D23*
X66510000Y-73400000D03*
D24*
X59840000Y-64201140D03*
X57940000Y-64201140D03*
X58890000Y-61198860D03*
D25*
X57388860Y-71590000D03*
X60391140Y-72540000D03*
X60391140Y-70640000D03*
D26*
X86100000Y-83020000D03*
X90100000Y-83020000D03*
X88830000Y-56350000D03*
X84830000Y-56350000D03*
X88640000Y-61430000D03*
X92640000Y-61430000D03*
X98450000Y-81750000D03*
X94450000Y-81750000D03*
X67240000Y-63970000D03*
X63240000Y-63970000D03*
X97720000Y-63970000D03*
X93720000Y-63970000D03*
X60700000Y-67780000D03*
X64700000Y-67780000D03*
X55810000Y-61430000D03*
X51810000Y-61430000D03*
X53080000Y-75400000D03*
X57080000Y-75400000D03*
X67240000Y-58890000D03*
X63240000Y-58890000D03*
D27*
X69050000Y-72130000D03*
X69050000Y-76130000D03*
D28*
X80510000Y-94770000D03*
X80510000Y-95720000D03*
X80510000Y-96670000D03*
X77910000Y-96670000D03*
X77910000Y-94770000D03*
D29*
X85560000Y-64920000D03*
X86830000Y-64920000D03*
X88100000Y-64920000D03*
X89370000Y-64920000D03*
X89370000Y-70320000D03*
X88100000Y-70320000D03*
X86830000Y-70320000D03*
X85560000Y-70320000D03*
D30*
X81750000Y-68290000D03*
X80480000Y-68290000D03*
X79210000Y-68290000D03*
X77940000Y-68290000D03*
X76670000Y-68290000D03*
X75400000Y-68290000D03*
X74130000Y-68290000D03*
X72860000Y-68290000D03*
X71590000Y-68290000D03*
X70320000Y-68290000D03*
X70320000Y-58890000D03*
X71590000Y-58890000D03*
X72860000Y-58890000D03*
X74130000Y-58890000D03*
X75400000Y-58890000D03*
X76670000Y-58890000D03*
X77940000Y-58890000D03*
X79210000Y-58890000D03*
X80480000Y-58890000D03*
X81750000Y-58890000D03*
D31*
X77940000Y-75400000D03*
X73058120Y-75400000D03*
D32*
X84328810Y-89370000D03*
X84311472Y-75330118D03*
X85560000Y-96355000D03*
X82385000Y-81750000D03*
X89370000Y-71590000D03*
X95720000Y-61430000D03*
X75400000Y-65240000D03*
X60160000Y-74130000D03*
X56350000Y-67780000D03*
X81115000Y-83655000D03*
X70955000Y-80480000D03*
X80480000Y-72898810D03*
X92416963Y-72928397D03*
X90640000Y-57620000D03*
X77940000Y-62700000D03*
X72860000Y-62065000D03*
X75400047Y-56750736D03*
D33*
X64010000Y-88100000D02*
X64010000Y-88140000D01*
X64010000Y-88140000D02*
X71501199Y-95631199D01*
X71501199Y-95631199D02*
X76710357Y-95631199D01*
X76710357Y-95631199D02*
X76732959Y-95653801D01*
X76732959Y-95653801D02*
X79087041Y-95653801D01*
X79087041Y-95653801D02*
X79198801Y-95542041D01*
X79198801Y-95542041D02*
X79198801Y-94975687D01*
X79404488Y-94770000D02*
X80510000Y-94770000D01*
X79198801Y-94975687D02*
X79404488Y-94770000D01*
X84328810Y-90430660D02*
X84328810Y-89370000D01*
X84328810Y-90903190D02*
X84328810Y-90430660D01*
X83020000Y-92212000D02*
X84328810Y-90903190D01*
X85389470Y-89370000D02*
X84328810Y-89370000D01*
X90100000Y-85560000D02*
X89900000Y-85560000D01*
X83020000Y-93720000D02*
X83020000Y-92212000D01*
X89900000Y-85560000D02*
X86090000Y-89370000D01*
X86090000Y-89370000D02*
X85389470Y-89370000D01*
X83020000Y-93720000D02*
X83020000Y-93520000D01*
X80510000Y-94770000D02*
X81970000Y-94770000D01*
X81970000Y-94770000D02*
X83020000Y-93720000D01*
X79198801Y-95542041D02*
X79198801Y-96596801D01*
X79198801Y-96596801D02*
X79272000Y-96670000D01*
X79272000Y-96670000D02*
X80510000Y-96670000D01*
X85560000Y-70320000D02*
X85560000Y-74081590D01*
X85560000Y-74081590D02*
X84311472Y-75330118D01*
X64010000Y-93100000D02*
X64010000Y-96220000D01*
X64010000Y-96220000D02*
X63240000Y-96990000D01*
X55120000Y-84290000D02*
X55120000Y-85672000D01*
X55120000Y-72798400D02*
X55120000Y-84290000D01*
X55120000Y-84290000D02*
X58942000Y-84290000D01*
X58942000Y-84290000D02*
X62752000Y-88100000D01*
X62752000Y-88100000D02*
X64010000Y-88100000D01*
X52540000Y-70320000D02*
X52641600Y-70320000D01*
X52641600Y-70320000D02*
X55120000Y-72798400D01*
X55120000Y-85672000D02*
X55120000Y-86830000D01*
X52540000Y-66510000D02*
X52540000Y-70320000D01*
X74860000Y-96990000D02*
X77590000Y-96990000D01*
X77590000Y-96990000D02*
X77910000Y-96670000D01*
X86100000Y-85560000D02*
X84592000Y-85560000D01*
X84592000Y-85560000D02*
X83655000Y-84623000D01*
X83655000Y-84623000D02*
X83655000Y-80480000D01*
X83655000Y-80480000D02*
X82480000Y-79305000D01*
X85560000Y-96355000D02*
X84385000Y-96355000D01*
X84385000Y-96355000D02*
X83020000Y-97720000D01*
X83655000Y-80480000D02*
X82385000Y-81750000D01*
X82480000Y-79248000D02*
X82480000Y-77940000D01*
X82480000Y-79305000D02*
X82480000Y-79248000D01*
X74670000Y-80480000D02*
X72860000Y-80480000D01*
X72860000Y-80480000D02*
X66510000Y-86830000D01*
X66510000Y-86830000D02*
X66510000Y-88100000D01*
X71590000Y-77940000D02*
X72130000Y-77940000D01*
X72130000Y-77940000D02*
X74670000Y-80480000D01*
X80510000Y-95720000D02*
X82528000Y-95720000D01*
X82528000Y-95720000D02*
X83020000Y-96212000D01*
X83020000Y-96212000D02*
X83020000Y-97720000D01*
X70860000Y-96990000D02*
X67240000Y-96990000D01*
X83020000Y-97720000D02*
X81712000Y-97720000D01*
X81712000Y-97720000D02*
X81083199Y-98348801D01*
X81083199Y-98348801D02*
X72418801Y-98348801D01*
X72418801Y-98348801D02*
X71060000Y-96990000D01*
X71060000Y-96990000D02*
X70860000Y-96990000D01*
D34*
X71050000Y-55080000D02*
X71050000Y-52430000D01*
D33*
X71050000Y-52430000D02*
X71180000Y-52300000D01*
X89370000Y-70320000D02*
X89370000Y-71590000D01*
X67050000Y-87560000D02*
X66510000Y-88100000D01*
X93720000Y-63970000D02*
X93720000Y-63430000D01*
X93720000Y-63430000D02*
X95720000Y-61430000D01*
X92640000Y-61430000D02*
X92640000Y-62890000D01*
X92640000Y-62890000D02*
X93720000Y-63970000D01*
X77940000Y-68290000D02*
X77940000Y-66807000D01*
X77940000Y-66807000D02*
X76373000Y-65240000D01*
X76373000Y-65240000D02*
X75400000Y-65240000D01*
X60391140Y-72540000D02*
X60391140Y-73898860D01*
X60391140Y-73898860D02*
X60160000Y-74130000D01*
X57940000Y-64201140D02*
X57940000Y-66190000D01*
X57940000Y-66190000D02*
X56350000Y-67780000D01*
X63240000Y-59620000D02*
X65240000Y-57620000D01*
X69905842Y-74130000D02*
X67780000Y-74130000D01*
X67780000Y-74130000D02*
X66510000Y-75400000D01*
X71590000Y-77940000D02*
X71590000Y-75814158D01*
X71590000Y-75814158D02*
X69905842Y-74130000D01*
X66510000Y-93100000D02*
X66510000Y-96260000D01*
X66510000Y-96260000D02*
X67240000Y-96990000D01*
X78480000Y-71590000D02*
X77940000Y-71050000D01*
X77940000Y-71050000D02*
X77940000Y-68290000D01*
X63970000Y-61430000D02*
X61430000Y-61430000D01*
X61430000Y-61430000D02*
X61430000Y-56985000D01*
X63335000Y-55080000D02*
X65542000Y-55080000D01*
X61430000Y-56985000D02*
X63335000Y-55080000D01*
X65542000Y-55080000D02*
X67050000Y-55080000D01*
X64825842Y-62700000D02*
X64825842Y-62285842D01*
X64825842Y-62285842D02*
X63970000Y-61430000D01*
X65240000Y-64825842D02*
X65240000Y-63114158D01*
X65240000Y-63114158D02*
X64825842Y-62700000D01*
X63335000Y-65875000D02*
X64190842Y-65875000D01*
X64190842Y-65875000D02*
X65240000Y-64825842D01*
X62700000Y-66510000D02*
X63335000Y-65875000D01*
X62700000Y-76670000D02*
X62700000Y-66510000D01*
X64548000Y-78518000D02*
X62700000Y-76670000D01*
X69050000Y-78518000D02*
X64548000Y-78518000D01*
X94450000Y-81750000D02*
X93180000Y-81750000D01*
X93180000Y-81750000D02*
X90005000Y-78575000D01*
X82480000Y-75527028D02*
X82480000Y-72898000D01*
X90005000Y-78575000D02*
X85920842Y-78575000D01*
X85920842Y-78575000D02*
X83927041Y-76581199D01*
X83927041Y-76581199D02*
X83534171Y-76581199D01*
X83534171Y-76581199D02*
X82480000Y-75527028D01*
X77910000Y-94770000D02*
X78255000Y-94770000D01*
X78255000Y-94770000D02*
X82385000Y-90640000D01*
X82385000Y-90640000D02*
X82385000Y-84925000D01*
X82385000Y-84925000D02*
X81115000Y-83655000D01*
X81115000Y-83655000D02*
X81115000Y-82925000D01*
X81115000Y-82925000D02*
X78670000Y-80480000D01*
X69050000Y-78518000D02*
X69050000Y-78575000D01*
X69050000Y-78575000D02*
X70955000Y-80480000D01*
X82480000Y-72898000D02*
X80921199Y-74456801D01*
X80921199Y-74456801D02*
X80921199Y-79736801D01*
X80921199Y-79736801D02*
X80178000Y-80480000D01*
X80178000Y-80480000D02*
X78670000Y-80480000D01*
X82480000Y-71590000D02*
X82280000Y-71590000D01*
X80971190Y-72898810D02*
X80480000Y-72898810D01*
X82280000Y-71590000D02*
X80971190Y-72898810D01*
X93078400Y-67780000D02*
X92416963Y-68441437D01*
X92416963Y-68441437D02*
X92416963Y-71867737D01*
X94450000Y-67780000D02*
X93078400Y-67780000D01*
X92416963Y-71867737D02*
X92416963Y-72928397D01*
X90640000Y-57620000D02*
X90100000Y-57620000D01*
X90100000Y-57620000D02*
X88830000Y-56350000D01*
X79210000Y-68290000D02*
X79210000Y-63970000D01*
X79210000Y-63970000D02*
X77940000Y-62700000D01*
X82480000Y-72898000D02*
X82480000Y-71590000D01*
X82480000Y-71590000D02*
X81499158Y-71590000D01*
X81499158Y-71590000D02*
X79210000Y-69300842D01*
X79210000Y-69300842D02*
X79210000Y-68290000D01*
X69050000Y-78518000D02*
X69050000Y-77638000D01*
X69050000Y-77638000D02*
X69050000Y-76130000D01*
X67050000Y-55080000D02*
X67050000Y-53250000D01*
X67050000Y-53250000D02*
X66100000Y-52300000D01*
X77940000Y-75400000D02*
X77940000Y-77400000D01*
X77940000Y-77400000D02*
X78480000Y-77940000D01*
X77940000Y-75400000D02*
X76670000Y-74130000D01*
X76670000Y-74130000D02*
X76670000Y-68290000D01*
X73058120Y-75400000D02*
X73058120Y-75408120D01*
X73058120Y-75408120D02*
X75590000Y-77940000D01*
X75400000Y-73058120D02*
X75400000Y-68290000D01*
X73058120Y-75400000D02*
X75400000Y-73058120D01*
X51810000Y-61430000D02*
X51810000Y-62940280D01*
X51810000Y-62940280D02*
X52540000Y-63670280D01*
X52540000Y-73159720D02*
X52540000Y-74860000D01*
X52540000Y-74860000D02*
X53080000Y-75400000D01*
X96990000Y-67780000D02*
X95401611Y-66191611D01*
X95401611Y-66191611D02*
X91043097Y-66191611D01*
X89757519Y-67477189D02*
X83352189Y-67477189D01*
X91043097Y-66191611D02*
X89757519Y-67477189D01*
X83352189Y-67477189D02*
X82385000Y-66510000D01*
X82385000Y-66510000D02*
X80777000Y-66510000D01*
X80777000Y-66510000D02*
X80480000Y-66807000D01*
X80480000Y-66807000D02*
X80480000Y-68290000D01*
X97720000Y-63970000D02*
X97870000Y-63970000D01*
X97870000Y-63970000D02*
X98895000Y-64995000D01*
X98895000Y-64995000D02*
X98895000Y-68415000D01*
X98895000Y-68415000D02*
X97853599Y-69456401D01*
X97853599Y-69456401D02*
X96990000Y-70320000D01*
X97720000Y-63970000D02*
X97570000Y-63970000D01*
X97570000Y-63970000D02*
X96161199Y-65378801D01*
X96161199Y-65378801D02*
X92272959Y-65378801D01*
X92272959Y-65378801D02*
X90198801Y-63304643D01*
X90198801Y-63304643D02*
X90198801Y-60132959D01*
X90198801Y-60132959D02*
X88955842Y-58890000D01*
X88955842Y-58890000D02*
X82558000Y-58890000D01*
X82558000Y-58890000D02*
X81750000Y-58890000D01*
X81750000Y-68290000D02*
X90515000Y-68290000D01*
X95085000Y-79845000D02*
X96126401Y-78803599D01*
X90515000Y-68290000D02*
X91108153Y-68883153D01*
X91108153Y-68883153D02*
X91108153Y-73967729D01*
X92062401Y-78727401D02*
X93180000Y-79845000D01*
X91108153Y-73967729D02*
X92062401Y-74921977D01*
X92062401Y-74921977D02*
X92062401Y-78727401D01*
X93180000Y-79845000D02*
X95085000Y-79845000D01*
X96126401Y-78803599D02*
X96990000Y-77940000D01*
X98450000Y-81750000D02*
X98450000Y-79400000D01*
X98450000Y-79400000D02*
X96990000Y-77940000D01*
X66510000Y-73400000D02*
X67780000Y-72130000D01*
X67780000Y-72130000D02*
X69050000Y-72130000D01*
X69050000Y-72130000D02*
X70503000Y-72130000D01*
X70503000Y-72130000D02*
X72860000Y-69773000D01*
X72860000Y-69773000D02*
X72860000Y-68290000D01*
X67240000Y-58890000D02*
X67390000Y-58890000D01*
X69295000Y-56985000D02*
X69685000Y-56985000D01*
X67390000Y-58890000D02*
X69295000Y-56985000D01*
X71590000Y-58890000D02*
X71590000Y-57620000D01*
X71590000Y-57620000D02*
X70955000Y-56985000D01*
X70955000Y-56985000D02*
X69685000Y-56985000D01*
X69685000Y-56985000D02*
X69050000Y-56350000D01*
X69050000Y-56350000D02*
X69050000Y-52710000D01*
X69050000Y-52710000D02*
X68640000Y-52300000D01*
X70955000Y-62065000D02*
X70320000Y-61430000D01*
X70320000Y-61430000D02*
X70320000Y-58890000D01*
X72860000Y-62065000D02*
X70955000Y-62065000D01*
X75400000Y-58890000D02*
X75400000Y-56750783D01*
X75400000Y-56750783D02*
X75400047Y-56750736D01*
X72860000Y-58890000D02*
X72860000Y-56204269D01*
X72860000Y-56204269D02*
X74435145Y-54629124D01*
X74435145Y-54629124D02*
X76470876Y-54629124D01*
X76470876Y-54629124D02*
X78800000Y-52300000D01*
X81340000Y-52452400D02*
X81340000Y-52300000D01*
X78350466Y-55441934D02*
X81340000Y-52452400D01*
X74091245Y-56122510D02*
X74771821Y-55441934D01*
X74091245Y-57368245D02*
X74091245Y-56122510D01*
X74130000Y-58890000D02*
X74130000Y-57407000D01*
X74771821Y-55441934D02*
X78350466Y-55441934D01*
X74130000Y-57407000D02*
X74091245Y-57368245D01*
X83322000Y-56350000D02*
X84830000Y-56350000D01*
X82509189Y-57162811D02*
X83322000Y-56350000D01*
X76914189Y-57162811D02*
X82509189Y-57162811D01*
X76670000Y-57407000D02*
X76914189Y-57162811D01*
X76670000Y-58890000D02*
X76670000Y-57407000D01*
X84830000Y-56350000D02*
X84830000Y-53250000D01*
X84830000Y-53250000D02*
X83880000Y-52300000D01*
X63240000Y-63970000D02*
X60071140Y-63970000D01*
X60071140Y-63970000D02*
X59840000Y-64201140D01*
X58890000Y-61198860D02*
X56041140Y-61198860D01*
X56041140Y-61198860D02*
X55810000Y-61430000D01*
X57080000Y-75400000D02*
X57080000Y-71898860D01*
X57080000Y-71898860D02*
X57388860Y-71590000D01*
X60700000Y-67780000D02*
X60700000Y-70331140D01*
X60700000Y-70331140D02*
X60391140Y-70640000D01*
X86830000Y-64920000D02*
X88100000Y-64920000D01*
X88100000Y-64920000D02*
X88100000Y-61970000D01*
X88100000Y-61970000D02*
X88640000Y-61430000D01*
X88640000Y-61430000D02*
X81537000Y-61430000D01*
X81537000Y-61430000D02*
X80480000Y-60373000D01*
X80480000Y-60373000D02*
X80480000Y-58890000D01*
X70320000Y-68290000D02*
X70320000Y-67615000D01*
X70320000Y-67615000D02*
X67240000Y-64535000D01*
X67240000Y-64535000D02*
X67240000Y-63970000D01*
X71590000Y-68290000D02*
X71590000Y-69773000D01*
X71590000Y-69773000D02*
X71043000Y-70320000D01*
X71043000Y-70320000D02*
X68748000Y-70320000D01*
X68748000Y-70320000D02*
X66208000Y-67780000D01*
X66208000Y-67780000D02*
X64700000Y-67780000D01*
X85560000Y-62700000D02*
X85560000Y-64920000D01*
X81537000Y-62700000D02*
X85560000Y-62700000D01*
X79210000Y-58890000D02*
X79210000Y-60373000D01*
X79210000Y-60373000D02*
X81537000Y-62700000D01*
X77940000Y-58890000D02*
X77940000Y-60373000D01*
X77940000Y-60373000D02*
X83820801Y-66253801D01*
X83820801Y-66253801D02*
X89319199Y-66253801D01*
X89319199Y-66253801D02*
X89370000Y-66203000D01*
X89370000Y-66203000D02*
X89370000Y-64920000D01*
X88100000Y-70320000D02*
X88061198Y-70358802D01*
X88061198Y-70358802D02*
X88061198Y-73154514D01*
X90678810Y-77305000D02*
X88445000Y-77305000D01*
X88061198Y-73154514D02*
X88401684Y-73495000D01*
X88401684Y-73495000D02*
X89485936Y-73495000D01*
X89485936Y-73495000D02*
X90678810Y-74687874D01*
X90678810Y-74687874D02*
X90678810Y-77305000D01*
X88445000Y-77305000D02*
X86870000Y-75730000D01*
X86870000Y-75730000D02*
X86870000Y-75480000D01*
X86100000Y-83020000D02*
X86100000Y-81250000D01*
X86100000Y-81250000D02*
X86870000Y-80480000D01*
X89204405Y-75480000D02*
X89370000Y-75480000D01*
X86830000Y-73105595D02*
X89204405Y-75480000D01*
X86830000Y-70320000D02*
X86830000Y-73105595D01*
X90100000Y-83020000D02*
X90100000Y-81210000D01*
X90100000Y-81210000D02*
X89370000Y-80480000D01*
D35*
G36*
X50810000Y-62927440D02*
X50921000Y-62927440D01*
X50921000Y-62940280D01*
X50988671Y-63280486D01*
X50992130Y-63285663D01*
X50992130Y-64469110D01*
X51041413Y-64716875D01*
X51181761Y-64926919D01*
X51391805Y-65067267D01*
X51506797Y-65090140D01*
X51391805Y-65113013D01*
X51181761Y-65253361D01*
X51041413Y-65463405D01*
X50992130Y-65711170D01*
X50992130Y-67308830D01*
X51041413Y-67556595D01*
X51181761Y-67766639D01*
X51391805Y-67906987D01*
X51639570Y-67956270D01*
X51651000Y-67956270D01*
X51651000Y-68873730D01*
X51639570Y-68873730D01*
X51391805Y-68923013D01*
X51181761Y-69063361D01*
X51041413Y-69273405D01*
X50992130Y-69521170D01*
X50992130Y-71118830D01*
X51041413Y-71366595D01*
X51181761Y-71576639D01*
X51391805Y-71716987D01*
X51506797Y-71739860D01*
X51391805Y-71762733D01*
X51181761Y-71903081D01*
X51041413Y-72113125D01*
X50992130Y-72360890D01*
X50992130Y-73958550D01*
X51041413Y-74206315D01*
X51181761Y-74416359D01*
X51391805Y-74556707D01*
X51432560Y-74564814D01*
X51432560Y-76250000D01*
X51481843Y-76497765D01*
X51622191Y-76707809D01*
X51832235Y-76848157D01*
X52080000Y-76897440D01*
X54080000Y-76897440D01*
X54231000Y-76867405D01*
X54231000Y-85580100D01*
X54222235Y-85581843D01*
X54012191Y-85722191D01*
X53871843Y-85932235D01*
X53822560Y-86180000D01*
X53822560Y-87480000D01*
X53871843Y-87727765D01*
X54012191Y-87937809D01*
X54222235Y-88078157D01*
X54470000Y-88127440D01*
X55770000Y-88127440D01*
X56017765Y-88078157D01*
X56227809Y-87937809D01*
X56367321Y-87729016D01*
X56900590Y-87729016D01*
X56956271Y-87959611D01*
X57439078Y-88127622D01*
X57949428Y-88098083D01*
X58283729Y-87959611D01*
X58339410Y-87729016D01*
X57620000Y-87009605D01*
X56900590Y-87729016D01*
X56367321Y-87729016D01*
X56368157Y-87727765D01*
X56417440Y-87480000D01*
X56417440Y-87317615D01*
X56490389Y-87493729D01*
X56720984Y-87549410D01*
X57440395Y-86830000D01*
X57799605Y-86830000D01*
X58519016Y-87549410D01*
X58749611Y-87493729D01*
X58917622Y-87010922D01*
X58888083Y-86500572D01*
X58749611Y-86166271D01*
X58519016Y-86110590D01*
X57799605Y-86830000D01*
X57440395Y-86830000D01*
X56720984Y-86110590D01*
X56490389Y-86166271D01*
X56417440Y-86375902D01*
X56417440Y-86180000D01*
X56368157Y-85932235D01*
X56367322Y-85930984D01*
X56900590Y-85930984D01*
X57620000Y-86650395D01*
X58339410Y-85930984D01*
X58283729Y-85700389D01*
X57800922Y-85532378D01*
X57290572Y-85561917D01*
X56956271Y-85700389D01*
X56900590Y-85930984D01*
X56367322Y-85930984D01*
X56227809Y-85722191D01*
X56017765Y-85581843D01*
X56009000Y-85580100D01*
X56009000Y-85179000D01*
X58573764Y-85179000D01*
X62123382Y-88728618D01*
X62411795Y-88921330D01*
X62752000Y-88989000D01*
X62781844Y-88989000D01*
X63030657Y-89361375D01*
X63479983Y-89661605D01*
X64010000Y-89767032D01*
X64318443Y-89705679D01*
X66127921Y-91515157D01*
X66065765Y-91526519D01*
X65593106Y-91797264D01*
X65260036Y-92228279D01*
X65257049Y-92239276D01*
X64989343Y-91838625D01*
X64540017Y-91538395D01*
X64010000Y-91432968D01*
X63479983Y-91538395D01*
X63030657Y-91838625D01*
X62730427Y-92287951D01*
X62625000Y-92817968D01*
X62625000Y-93382032D01*
X62730427Y-93912049D01*
X63030657Y-94361375D01*
X63121000Y-94421740D01*
X63121000Y-95542560D01*
X62240000Y-95542560D01*
X61992235Y-95591843D01*
X61782191Y-95732191D01*
X61641843Y-95942235D01*
X61592560Y-96190000D01*
X61592560Y-97790000D01*
X61641843Y-98037765D01*
X61782191Y-98247809D01*
X61992235Y-98388157D01*
X62240000Y-98437440D01*
X64240000Y-98437440D01*
X64487765Y-98388157D01*
X64697809Y-98247809D01*
X64838157Y-98037765D01*
X64887440Y-97790000D01*
X64887440Y-97275750D01*
X65605000Y-97275750D01*
X65605000Y-97916310D01*
X65701673Y-98149699D01*
X65880302Y-98328327D01*
X66113691Y-98425000D01*
X66954250Y-98425000D01*
X67113000Y-98266250D01*
X67113000Y-97117000D01*
X67367000Y-97117000D01*
X67367000Y-98266250D01*
X67525750Y-98425000D01*
X68366309Y-98425000D01*
X68599698Y-98328327D01*
X68778327Y-98149699D01*
X68875000Y-97916310D01*
X68875000Y-97275750D01*
X69225000Y-97275750D01*
X69225000Y-97916310D01*
X69321673Y-98149699D01*
X69500302Y-98328327D01*
X69733691Y-98425000D01*
X70574250Y-98425000D01*
X70733000Y-98266250D01*
X70733000Y-97117000D01*
X70987000Y-97117000D01*
X70987000Y-98266250D01*
X71145750Y-98425000D01*
X71986309Y-98425000D01*
X72219698Y-98328327D01*
X72398327Y-98149699D01*
X72495000Y-97916310D01*
X72495000Y-97275750D01*
X72336250Y-97117000D01*
X70987000Y-97117000D01*
X70733000Y-97117000D01*
X69383750Y-97117000D01*
X69225000Y-97275750D01*
X68875000Y-97275750D01*
X68716250Y-97117000D01*
X67367000Y-97117000D01*
X67113000Y-97117000D01*
X65763750Y-97117000D01*
X65605000Y-97275750D01*
X64887440Y-97275750D01*
X64887440Y-96278116D01*
X64899000Y-96220000D01*
X64899000Y-96063690D01*
X65605000Y-96063690D01*
X65605000Y-96704250D01*
X65763750Y-96863000D01*
X67113000Y-96863000D01*
X67113000Y-95713750D01*
X67367000Y-95713750D01*
X67367000Y-96863000D01*
X68716250Y-96863000D01*
X68875000Y-96704250D01*
X68875000Y-96063690D01*
X68778327Y-95830301D01*
X68599698Y-95651673D01*
X68366309Y-95555000D01*
X67525750Y-95555000D01*
X67367000Y-95713750D01*
X67113000Y-95713750D01*
X66954250Y-95555000D01*
X66113691Y-95555000D01*
X65880302Y-95651673D01*
X65701673Y-95830301D01*
X65605000Y-96063690D01*
X64899000Y-96063690D01*
X64899000Y-94421740D01*
X64989343Y-94361375D01*
X65257049Y-93960724D01*
X65260036Y-93971721D01*
X65593106Y-94402736D01*
X66065765Y-94673481D01*
X66168815Y-94692318D01*
X66383000Y-94569656D01*
X66383000Y-93227000D01*
X66363000Y-93227000D01*
X66363000Y-92973000D01*
X66383000Y-92973000D01*
X66383000Y-92953000D01*
X66637000Y-92953000D01*
X66637000Y-92973000D01*
X66657000Y-92973000D01*
X66657000Y-93227000D01*
X66637000Y-93227000D01*
X66637000Y-94569656D01*
X66851185Y-94692318D01*
X66954235Y-94673481D01*
X67426894Y-94402736D01*
X67759964Y-93971721D01*
X67902739Y-93446055D01*
X67741869Y-93227002D01*
X67839766Y-93227002D01*
X70167764Y-95555000D01*
X69733691Y-95555000D01*
X69500302Y-95651673D01*
X69321673Y-95830301D01*
X69225000Y-96063690D01*
X69225000Y-96704250D01*
X69383750Y-96863000D01*
X70733000Y-96863000D01*
X70733000Y-96843000D01*
X70987000Y-96843000D01*
X70987000Y-96863000D01*
X72336250Y-96863000D01*
X72495000Y-96704250D01*
X72495000Y-96520199D01*
X73212560Y-96520199D01*
X73212560Y-97790000D01*
X73261843Y-98037765D01*
X73402191Y-98247809D01*
X73612235Y-98388157D01*
X73860000Y-98437440D01*
X75860000Y-98437440D01*
X76107765Y-98388157D01*
X76317809Y-98247809D01*
X76458157Y-98037765D01*
X76489737Y-97879000D01*
X77590000Y-97879000D01*
X77930206Y-97811329D01*
X78182966Y-97642440D01*
X78640000Y-97642440D01*
X78887765Y-97593157D01*
X79015301Y-97507940D01*
X79272000Y-97559000D01*
X79481116Y-97559000D01*
X79532235Y-97593157D01*
X79780000Y-97642440D01*
X81240000Y-97642440D01*
X81487765Y-97593157D01*
X81641310Y-97490560D01*
X81743750Y-97593000D01*
X82893000Y-97593000D01*
X82893000Y-96243750D01*
X83147000Y-96243750D01*
X83147000Y-97593000D01*
X84296250Y-97593000D01*
X84455000Y-97434250D01*
X84455000Y-96593691D01*
X84358327Y-96360302D01*
X84179699Y-96181673D01*
X83946310Y-96085000D01*
X83305750Y-96085000D01*
X83147000Y-96243750D01*
X82893000Y-96243750D01*
X82734250Y-96085000D01*
X82093690Y-96085000D01*
X81872863Y-96176470D01*
X81875000Y-96171310D01*
X81875000Y-96005750D01*
X81716250Y-95847000D01*
X81637659Y-95847000D01*
X81487765Y-95746843D01*
X81352815Y-95720000D01*
X81487765Y-95693157D01*
X81538884Y-95659000D01*
X81970000Y-95659000D01*
X82310206Y-95591329D01*
X82414212Y-95521834D01*
X92364543Y-95521834D01*
X92764853Y-96490658D01*
X93505443Y-97232542D01*
X94473567Y-97634542D01*
X95521834Y-97635457D01*
X96490658Y-97235147D01*
X97232542Y-96494557D01*
X97634542Y-95526433D01*
X97635457Y-94478166D01*
X97235147Y-93509342D01*
X96494557Y-92767458D01*
X95526433Y-92365458D01*
X94478166Y-92364543D01*
X93509342Y-92764853D01*
X92767458Y-93505443D01*
X92365458Y-94473567D01*
X92364543Y-95521834D01*
X82414212Y-95521834D01*
X82598618Y-95398618D01*
X82629796Y-95367440D01*
X83820000Y-95367440D01*
X84067765Y-95318157D01*
X84277809Y-95177809D01*
X84418157Y-94967765D01*
X84467440Y-94720000D01*
X84467440Y-92720000D01*
X84418157Y-92472235D01*
X84277809Y-92262191D01*
X84247378Y-92241858D01*
X84957428Y-91531808D01*
X84973548Y-91507682D01*
X85150139Y-91243396D01*
X85217810Y-90903190D01*
X85217810Y-90439530D01*
X85398655Y-90259000D01*
X86090000Y-90259000D01*
X86430206Y-90191329D01*
X86718618Y-89998618D01*
X89709796Y-87007440D01*
X91100000Y-87007440D01*
X91347765Y-86958157D01*
X91557809Y-86817809D01*
X91698157Y-86607765D01*
X91747440Y-86360000D01*
X91747440Y-84760000D01*
X91698157Y-84512235D01*
X91566368Y-84315000D01*
X91698157Y-84117765D01*
X91747440Y-83870000D01*
X91747440Y-82170000D01*
X91698157Y-81922235D01*
X91557809Y-81712191D01*
X91347765Y-81571843D01*
X91100000Y-81522560D01*
X90989000Y-81522560D01*
X90989000Y-81210000D01*
X90921329Y-80869794D01*
X90755000Y-80620865D01*
X90755000Y-80582236D01*
X92551382Y-82378618D01*
X92802560Y-82546450D01*
X92802560Y-82600000D01*
X92851843Y-82847765D01*
X92992191Y-83057809D01*
X93202235Y-83198157D01*
X93450000Y-83247440D01*
X95450000Y-83247440D01*
X95697765Y-83198157D01*
X95907809Y-83057809D01*
X96048157Y-82847765D01*
X96097440Y-82600000D01*
X96097440Y-80900000D01*
X96048157Y-80652235D01*
X95907809Y-80442191D01*
X95810239Y-80376997D01*
X96783810Y-79403426D01*
X96960641Y-79438600D01*
X97019359Y-79438600D01*
X97196190Y-79403426D01*
X97561000Y-79768236D01*
X97561000Y-80252560D01*
X97450000Y-80252560D01*
X97202235Y-80301843D01*
X96992191Y-80442191D01*
X96851843Y-80652235D01*
X96802560Y-80900000D01*
X96802560Y-82600000D01*
X96851843Y-82847765D01*
X96992191Y-83057809D01*
X97202235Y-83198157D01*
X97450000Y-83247440D01*
X99290000Y-83247440D01*
X99290000Y-99290000D01*
X84103234Y-99290000D01*
X84179699Y-99258327D01*
X84358327Y-99079698D01*
X84455000Y-98846309D01*
X84455000Y-98005750D01*
X84296250Y-97847000D01*
X83147000Y-97847000D01*
X83147000Y-97867000D01*
X82893000Y-97867000D01*
X82893000Y-97847000D01*
X81743750Y-97847000D01*
X81585000Y-98005750D01*
X81585000Y-98846309D01*
X81681673Y-99079698D01*
X81860301Y-99258327D01*
X81936766Y-99290000D01*
X50710000Y-99290000D01*
X50710000Y-95521834D01*
X52364543Y-95521834D01*
X52764853Y-96490658D01*
X53505443Y-97232542D01*
X54473567Y-97634542D01*
X55521834Y-97635457D01*
X56490658Y-97235147D01*
X57232542Y-96494557D01*
X57634542Y-95526433D01*
X57635457Y-94478166D01*
X57235147Y-93509342D01*
X56494557Y-92767458D01*
X55526433Y-92365458D01*
X54478166Y-92364543D01*
X53509342Y-92764853D01*
X52767458Y-93505443D01*
X52365458Y-94473567D01*
X52364543Y-95521834D01*
X50710000Y-95521834D01*
X50710000Y-62907549D01*
X50810000Y-62927440D01*
X50810000Y-62927440D01*
G37*
X50810000Y-62927440D02*
X50921000Y-62927440D01*
X50921000Y-62940280D01*
X50988671Y-63280486D01*
X50992130Y-63285663D01*
X50992130Y-64469110D01*
X51041413Y-64716875D01*
X51181761Y-64926919D01*
X51391805Y-65067267D01*
X51506797Y-65090140D01*
X51391805Y-65113013D01*
X51181761Y-65253361D01*
X51041413Y-65463405D01*
X50992130Y-65711170D01*
X50992130Y-67308830D01*
X51041413Y-67556595D01*
X51181761Y-67766639D01*
X51391805Y-67906987D01*
X51639570Y-67956270D01*
X51651000Y-67956270D01*
X51651000Y-68873730D01*
X51639570Y-68873730D01*
X51391805Y-68923013D01*
X51181761Y-69063361D01*
X51041413Y-69273405D01*
X50992130Y-69521170D01*
X50992130Y-71118830D01*
X51041413Y-71366595D01*
X51181761Y-71576639D01*
X51391805Y-71716987D01*
X51506797Y-71739860D01*
X51391805Y-71762733D01*
X51181761Y-71903081D01*
X51041413Y-72113125D01*
X50992130Y-72360890D01*
X50992130Y-73958550D01*
X51041413Y-74206315D01*
X51181761Y-74416359D01*
X51391805Y-74556707D01*
X51432560Y-74564814D01*
X51432560Y-76250000D01*
X51481843Y-76497765D01*
X51622191Y-76707809D01*
X51832235Y-76848157D01*
X52080000Y-76897440D01*
X54080000Y-76897440D01*
X54231000Y-76867405D01*
X54231000Y-85580100D01*
X54222235Y-85581843D01*
X54012191Y-85722191D01*
X53871843Y-85932235D01*
X53822560Y-86180000D01*
X53822560Y-87480000D01*
X53871843Y-87727765D01*
X54012191Y-87937809D01*
X54222235Y-88078157D01*
X54470000Y-88127440D01*
X55770000Y-88127440D01*
X56017765Y-88078157D01*
X56227809Y-87937809D01*
X56367321Y-87729016D01*
X56900590Y-87729016D01*
X56956271Y-87959611D01*
X57439078Y-88127622D01*
X57949428Y-88098083D01*
X58283729Y-87959611D01*
X58339410Y-87729016D01*
X57620000Y-87009605D01*
X56900590Y-87729016D01*
X56367321Y-87729016D01*
X56368157Y-87727765D01*
X56417440Y-87480000D01*
X56417440Y-87317615D01*
X56490389Y-87493729D01*
X56720984Y-87549410D01*
X57440395Y-86830000D01*
X57799605Y-86830000D01*
X58519016Y-87549410D01*
X58749611Y-87493729D01*
X58917622Y-87010922D01*
X58888083Y-86500572D01*
X58749611Y-86166271D01*
X58519016Y-86110590D01*
X57799605Y-86830000D01*
X57440395Y-86830000D01*
X56720984Y-86110590D01*
X56490389Y-86166271D01*
X56417440Y-86375902D01*
X56417440Y-86180000D01*
X56368157Y-85932235D01*
X56367322Y-85930984D01*
X56900590Y-85930984D01*
X57620000Y-86650395D01*
X58339410Y-85930984D01*
X58283729Y-85700389D01*
X57800922Y-85532378D01*
X57290572Y-85561917D01*
X56956271Y-85700389D01*
X56900590Y-85930984D01*
X56367322Y-85930984D01*
X56227809Y-85722191D01*
X56017765Y-85581843D01*
X56009000Y-85580100D01*
X56009000Y-85179000D01*
X58573764Y-85179000D01*
X62123382Y-88728618D01*
X62411795Y-88921330D01*
X62752000Y-88989000D01*
X62781844Y-88989000D01*
X63030657Y-89361375D01*
X63479983Y-89661605D01*
X64010000Y-89767032D01*
X64318443Y-89705679D01*
X66127921Y-91515157D01*
X66065765Y-91526519D01*
X65593106Y-91797264D01*
X65260036Y-92228279D01*
X65257049Y-92239276D01*
X64989343Y-91838625D01*
X64540017Y-91538395D01*
X64010000Y-91432968D01*
X63479983Y-91538395D01*
X63030657Y-91838625D01*
X62730427Y-92287951D01*
X62625000Y-92817968D01*
X62625000Y-93382032D01*
X62730427Y-93912049D01*
X63030657Y-94361375D01*
X63121000Y-94421740D01*
X63121000Y-95542560D01*
X62240000Y-95542560D01*
X61992235Y-95591843D01*
X61782191Y-95732191D01*
X61641843Y-95942235D01*
X61592560Y-96190000D01*
X61592560Y-97790000D01*
X61641843Y-98037765D01*
X61782191Y-98247809D01*
X61992235Y-98388157D01*
X62240000Y-98437440D01*
X64240000Y-98437440D01*
X64487765Y-98388157D01*
X64697809Y-98247809D01*
X64838157Y-98037765D01*
X64887440Y-97790000D01*
X64887440Y-97275750D01*
X65605000Y-97275750D01*
X65605000Y-97916310D01*
X65701673Y-98149699D01*
X65880302Y-98328327D01*
X66113691Y-98425000D01*
X66954250Y-98425000D01*
X67113000Y-98266250D01*
X67113000Y-97117000D01*
X67367000Y-97117000D01*
X67367000Y-98266250D01*
X67525750Y-98425000D01*
X68366309Y-98425000D01*
X68599698Y-98328327D01*
X68778327Y-98149699D01*
X68875000Y-97916310D01*
X68875000Y-97275750D01*
X69225000Y-97275750D01*
X69225000Y-97916310D01*
X69321673Y-98149699D01*
X69500302Y-98328327D01*
X69733691Y-98425000D01*
X70574250Y-98425000D01*
X70733000Y-98266250D01*
X70733000Y-97117000D01*
X70987000Y-97117000D01*
X70987000Y-98266250D01*
X71145750Y-98425000D01*
X71986309Y-98425000D01*
X72219698Y-98328327D01*
X72398327Y-98149699D01*
X72495000Y-97916310D01*
X72495000Y-97275750D01*
X72336250Y-97117000D01*
X70987000Y-97117000D01*
X70733000Y-97117000D01*
X69383750Y-97117000D01*
X69225000Y-97275750D01*
X68875000Y-97275750D01*
X68716250Y-97117000D01*
X67367000Y-97117000D01*
X67113000Y-97117000D01*
X65763750Y-97117000D01*
X65605000Y-97275750D01*
X64887440Y-97275750D01*
X64887440Y-96278116D01*
X64899000Y-96220000D01*
X64899000Y-96063690D01*
X65605000Y-96063690D01*
X65605000Y-96704250D01*
X65763750Y-96863000D01*
X67113000Y-96863000D01*
X67113000Y-95713750D01*
X67367000Y-95713750D01*
X67367000Y-96863000D01*
X68716250Y-96863000D01*
X68875000Y-96704250D01*
X68875000Y-96063690D01*
X68778327Y-95830301D01*
X68599698Y-95651673D01*
X68366309Y-95555000D01*
X67525750Y-95555000D01*
X67367000Y-95713750D01*
X67113000Y-95713750D01*
X66954250Y-95555000D01*
X66113691Y-95555000D01*
X65880302Y-95651673D01*
X65701673Y-95830301D01*
X65605000Y-96063690D01*
X64899000Y-96063690D01*
X64899000Y-94421740D01*
X64989343Y-94361375D01*
X65257049Y-93960724D01*
X65260036Y-93971721D01*
X65593106Y-94402736D01*
X66065765Y-94673481D01*
X66168815Y-94692318D01*
X66383000Y-94569656D01*
X66383000Y-93227000D01*
X66363000Y-93227000D01*
X66363000Y-92973000D01*
X66383000Y-92973000D01*
X66383000Y-92953000D01*
X66637000Y-92953000D01*
X66637000Y-92973000D01*
X66657000Y-92973000D01*
X66657000Y-93227000D01*
X66637000Y-93227000D01*
X66637000Y-94569656D01*
X66851185Y-94692318D01*
X66954235Y-94673481D01*
X67426894Y-94402736D01*
X67759964Y-93971721D01*
X67902739Y-93446055D01*
X67741869Y-93227002D01*
X67839766Y-93227002D01*
X70167764Y-95555000D01*
X69733691Y-95555000D01*
X69500302Y-95651673D01*
X69321673Y-95830301D01*
X69225000Y-96063690D01*
X69225000Y-96704250D01*
X69383750Y-96863000D01*
X70733000Y-96863000D01*
X70733000Y-96843000D01*
X70987000Y-96843000D01*
X70987000Y-96863000D01*
X72336250Y-96863000D01*
X72495000Y-96704250D01*
X72495000Y-96520199D01*
X73212560Y-96520199D01*
X73212560Y-97790000D01*
X73261843Y-98037765D01*
X73402191Y-98247809D01*
X73612235Y-98388157D01*
X73860000Y-98437440D01*
X75860000Y-98437440D01*
X76107765Y-98388157D01*
X76317809Y-98247809D01*
X76458157Y-98037765D01*
X76489737Y-97879000D01*
X77590000Y-97879000D01*
X77930206Y-97811329D01*
X78182966Y-97642440D01*
X78640000Y-97642440D01*
X78887765Y-97593157D01*
X79015301Y-97507940D01*
X79272000Y-97559000D01*
X79481116Y-97559000D01*
X79532235Y-97593157D01*
X79780000Y-97642440D01*
X81240000Y-97642440D01*
X81487765Y-97593157D01*
X81641310Y-97490560D01*
X81743750Y-97593000D01*
X82893000Y-97593000D01*
X82893000Y-96243750D01*
X83147000Y-96243750D01*
X83147000Y-97593000D01*
X84296250Y-97593000D01*
X84455000Y-97434250D01*
X84455000Y-96593691D01*
X84358327Y-96360302D01*
X84179699Y-96181673D01*
X83946310Y-96085000D01*
X83305750Y-96085000D01*
X83147000Y-96243750D01*
X82893000Y-96243750D01*
X82734250Y-96085000D01*
X82093690Y-96085000D01*
X81872863Y-96176470D01*
X81875000Y-96171310D01*
X81875000Y-96005750D01*
X81716250Y-95847000D01*
X81637659Y-95847000D01*
X81487765Y-95746843D01*
X81352815Y-95720000D01*
X81487765Y-95693157D01*
X81538884Y-95659000D01*
X81970000Y-95659000D01*
X82310206Y-95591329D01*
X82414212Y-95521834D01*
X92364543Y-95521834D01*
X92764853Y-96490658D01*
X93505443Y-97232542D01*
X94473567Y-97634542D01*
X95521834Y-97635457D01*
X96490658Y-97235147D01*
X97232542Y-96494557D01*
X97634542Y-95526433D01*
X97635457Y-94478166D01*
X97235147Y-93509342D01*
X96494557Y-92767458D01*
X95526433Y-92365458D01*
X94478166Y-92364543D01*
X93509342Y-92764853D01*
X92767458Y-93505443D01*
X92365458Y-94473567D01*
X92364543Y-95521834D01*
X82414212Y-95521834D01*
X82598618Y-95398618D01*
X82629796Y-95367440D01*
X83820000Y-95367440D01*
X84067765Y-95318157D01*
X84277809Y-95177809D01*
X84418157Y-94967765D01*
X84467440Y-94720000D01*
X84467440Y-92720000D01*
X84418157Y-92472235D01*
X84277809Y-92262191D01*
X84247378Y-92241858D01*
X84957428Y-91531808D01*
X84973548Y-91507682D01*
X85150139Y-91243396D01*
X85217810Y-90903190D01*
X85217810Y-90439530D01*
X85398655Y-90259000D01*
X86090000Y-90259000D01*
X86430206Y-90191329D01*
X86718618Y-89998618D01*
X89709796Y-87007440D01*
X91100000Y-87007440D01*
X91347765Y-86958157D01*
X91557809Y-86817809D01*
X91698157Y-86607765D01*
X91747440Y-86360000D01*
X91747440Y-84760000D01*
X91698157Y-84512235D01*
X91566368Y-84315000D01*
X91698157Y-84117765D01*
X91747440Y-83870000D01*
X91747440Y-82170000D01*
X91698157Y-81922235D01*
X91557809Y-81712191D01*
X91347765Y-81571843D01*
X91100000Y-81522560D01*
X90989000Y-81522560D01*
X90989000Y-81210000D01*
X90921329Y-80869794D01*
X90755000Y-80620865D01*
X90755000Y-80582236D01*
X92551382Y-82378618D01*
X92802560Y-82546450D01*
X92802560Y-82600000D01*
X92851843Y-82847765D01*
X92992191Y-83057809D01*
X93202235Y-83198157D01*
X93450000Y-83247440D01*
X95450000Y-83247440D01*
X95697765Y-83198157D01*
X95907809Y-83057809D01*
X96048157Y-82847765D01*
X96097440Y-82600000D01*
X96097440Y-80900000D01*
X96048157Y-80652235D01*
X95907809Y-80442191D01*
X95810239Y-80376997D01*
X96783810Y-79403426D01*
X96960641Y-79438600D01*
X97019359Y-79438600D01*
X97196190Y-79403426D01*
X97561000Y-79768236D01*
X97561000Y-80252560D01*
X97450000Y-80252560D01*
X97202235Y-80301843D01*
X96992191Y-80442191D01*
X96851843Y-80652235D01*
X96802560Y-80900000D01*
X96802560Y-82600000D01*
X96851843Y-82847765D01*
X96992191Y-83057809D01*
X97202235Y-83198157D01*
X97450000Y-83247440D01*
X99290000Y-83247440D01*
X99290000Y-99290000D01*
X84103234Y-99290000D01*
X84179699Y-99258327D01*
X84358327Y-99079698D01*
X84455000Y-98846309D01*
X84455000Y-98005750D01*
X84296250Y-97847000D01*
X83147000Y-97847000D01*
X83147000Y-97867000D01*
X82893000Y-97867000D01*
X82893000Y-97847000D01*
X81743750Y-97847000D01*
X81585000Y-98005750D01*
X81585000Y-98846309D01*
X81681673Y-99079698D01*
X81860301Y-99258327D01*
X81936766Y-99290000D01*
X50710000Y-99290000D01*
X50710000Y-95521834D01*
X52364543Y-95521834D01*
X52764853Y-96490658D01*
X53505443Y-97232542D01*
X54473567Y-97634542D01*
X55521834Y-97635457D01*
X56490658Y-97235147D01*
X57232542Y-96494557D01*
X57634542Y-95526433D01*
X57635457Y-94478166D01*
X57235147Y-93509342D01*
X56494557Y-92767458D01*
X55526433Y-92365458D01*
X54478166Y-92364543D01*
X53509342Y-92764853D01*
X52767458Y-93505443D01*
X52365458Y-94473567D01*
X52364543Y-95521834D01*
X50710000Y-95521834D01*
X50710000Y-62907549D01*
X50810000Y-62927440D01*
G36*
X73830000Y-69912440D02*
X74430000Y-69912440D01*
X74511000Y-69896328D01*
X74511000Y-72689884D01*
X73186343Y-74014541D01*
X72783722Y-74014190D01*
X72274283Y-74224686D01*
X71884176Y-74614113D01*
X71672791Y-75123184D01*
X71672310Y-75674398D01*
X71882806Y-76183837D01*
X72203409Y-76505000D01*
X71875750Y-76505000D01*
X71717000Y-76663750D01*
X71717000Y-77813000D01*
X73066250Y-77813000D01*
X73225000Y-77654250D01*
X73225000Y-77013690D01*
X73130536Y-76785634D01*
X73178440Y-76785676D01*
X73942560Y-77549796D01*
X73942560Y-78740000D01*
X73991843Y-78987765D01*
X74030087Y-79045000D01*
X73543691Y-79045000D01*
X73310302Y-79141673D01*
X73131673Y-79320301D01*
X73035000Y-79553690D01*
X73035000Y-80194250D01*
X73193750Y-80353000D01*
X74543000Y-80353000D01*
X74543000Y-80333000D01*
X74797000Y-80333000D01*
X74797000Y-80353000D01*
X76146250Y-80353000D01*
X76305000Y-80194250D01*
X76305000Y-79553690D01*
X76236137Y-79387440D01*
X76590000Y-79387440D01*
X76837765Y-79338157D01*
X77035000Y-79206368D01*
X77164808Y-79293104D01*
X77071843Y-79432235D01*
X77022560Y-79680000D01*
X77022560Y-81280000D01*
X77071843Y-81527765D01*
X77212191Y-81737809D01*
X77422235Y-81878157D01*
X77670000Y-81927440D01*
X78860204Y-81927440D01*
X79900656Y-82967892D01*
X79730241Y-83378298D01*
X79729913Y-83753695D01*
X78879736Y-82902033D01*
X76625681Y-81966067D01*
X74185027Y-81963937D01*
X71929342Y-82895967D01*
X70202033Y-84620264D01*
X69266067Y-86874319D01*
X69263937Y-89314973D01*
X70195967Y-91570658D01*
X71920264Y-93297967D01*
X74174319Y-94233933D01*
X76574127Y-94236027D01*
X76532560Y-94445000D01*
X76532560Y-94742199D01*
X71869435Y-94742199D01*
X66777161Y-89649925D01*
X66851185Y-89692318D01*
X66954235Y-89673481D01*
X67426894Y-89402736D01*
X67759964Y-88971721D01*
X67902739Y-88446055D01*
X67741868Y-88227000D01*
X66637000Y-88227000D01*
X66637000Y-88247000D01*
X66383000Y-88247000D01*
X66383000Y-88227000D01*
X66363000Y-88227000D01*
X66363000Y-87973000D01*
X66383000Y-87973000D01*
X66383000Y-86630344D01*
X66637000Y-86630344D01*
X66637000Y-87973000D01*
X67741868Y-87973000D01*
X67902739Y-87753945D01*
X67759964Y-87228279D01*
X67426894Y-86797264D01*
X66954235Y-86526519D01*
X66851185Y-86507682D01*
X66637000Y-86630344D01*
X66383000Y-86630344D01*
X66168815Y-86507682D01*
X66065765Y-86526519D01*
X65593106Y-86797264D01*
X65260036Y-87228279D01*
X65257049Y-87239276D01*
X64989343Y-86838625D01*
X64540017Y-86538395D01*
X64010000Y-86432968D01*
X63479983Y-86538395D01*
X63030657Y-86838625D01*
X62917385Y-87008149D01*
X59570618Y-83661382D01*
X59551515Y-83648618D01*
X59282206Y-83468671D01*
X58942000Y-83401000D01*
X56009000Y-83401000D01*
X56009000Y-76883317D01*
X56080000Y-76897440D01*
X58080000Y-76897440D01*
X58327765Y-76848157D01*
X58537809Y-76707809D01*
X58678157Y-76497765D01*
X58727440Y-76250000D01*
X58727440Y-74550000D01*
X58678157Y-74302235D01*
X58537809Y-74092191D01*
X58327765Y-73951843D01*
X58080000Y-73902560D01*
X57969000Y-73902560D01*
X57969000Y-72825750D01*
X58855710Y-72825750D01*
X58855710Y-73066359D01*
X58952383Y-73299748D01*
X59131011Y-73478377D01*
X59364400Y-73575050D01*
X60105390Y-73575050D01*
X60264140Y-73416300D01*
X60264140Y-72667000D01*
X59014460Y-72667000D01*
X58855710Y-72825750D01*
X57969000Y-72825750D01*
X57969000Y-72637490D01*
X58289290Y-72637490D01*
X58537055Y-72588207D01*
X58747099Y-72447859D01*
X58868152Y-72266692D01*
X59014460Y-72413000D01*
X60264140Y-72413000D01*
X60264140Y-72393000D01*
X60518140Y-72393000D01*
X60518140Y-72413000D01*
X60538140Y-72413000D01*
X60538140Y-72667000D01*
X60518140Y-72667000D01*
X60518140Y-73416300D01*
X60676890Y-73575050D01*
X61417880Y-73575050D01*
X61651269Y-73478377D01*
X61811000Y-73318645D01*
X61811000Y-76670000D01*
X61878671Y-77010206D01*
X62012047Y-77209817D01*
X62071382Y-77298618D01*
X63919382Y-79146618D01*
X64207795Y-79339330D01*
X64548000Y-79407000D01*
X68624764Y-79407000D01*
X69570111Y-80352347D01*
X69569760Y-80754285D01*
X69780169Y-81263515D01*
X70169436Y-81653461D01*
X70678298Y-81864759D01*
X71229285Y-81865240D01*
X71738515Y-81654831D01*
X72128461Y-81265564D01*
X72336001Y-80765750D01*
X73035000Y-80765750D01*
X73035000Y-81406310D01*
X73131673Y-81639699D01*
X73310302Y-81818327D01*
X73543691Y-81915000D01*
X74384250Y-81915000D01*
X74543000Y-81756250D01*
X74543000Y-80607000D01*
X74797000Y-80607000D01*
X74797000Y-81756250D01*
X74955750Y-81915000D01*
X75796309Y-81915000D01*
X76029698Y-81818327D01*
X76208327Y-81639699D01*
X76305000Y-81406310D01*
X76305000Y-80765750D01*
X76146250Y-80607000D01*
X74797000Y-80607000D01*
X74543000Y-80607000D01*
X73193750Y-80607000D01*
X73035000Y-80765750D01*
X72336001Y-80765750D01*
X72339759Y-80756702D01*
X72340240Y-80205715D01*
X72129831Y-79696485D01*
X71740564Y-79306539D01*
X71717002Y-79296755D01*
X71717002Y-79216252D01*
X71875750Y-79375000D01*
X72716309Y-79375000D01*
X72949698Y-79278327D01*
X73128327Y-79099699D01*
X73225000Y-78866310D01*
X73225000Y-78225750D01*
X73066250Y-78067000D01*
X71717000Y-78067000D01*
X71717000Y-78087000D01*
X71463000Y-78087000D01*
X71463000Y-78067000D01*
X70113750Y-78067000D01*
X69956493Y-78224257D01*
X69939000Y-78206764D01*
X69939000Y-77769682D01*
X70048627Y-77747877D01*
X70113750Y-77813000D01*
X71463000Y-77813000D01*
X71463000Y-76663750D01*
X71304250Y-76505000D01*
X70547440Y-76505000D01*
X70547440Y-75130000D01*
X70498157Y-74882235D01*
X70357809Y-74672191D01*
X70147765Y-74531843D01*
X69900000Y-74482560D01*
X68200000Y-74482560D01*
X67952235Y-74531843D01*
X67945000Y-74536677D01*
X67945000Y-74473691D01*
X67848327Y-74240302D01*
X67754027Y-74146002D01*
X67932897Y-73715236D01*
X67952235Y-73728157D01*
X68200000Y-73777440D01*
X69900000Y-73777440D01*
X70147765Y-73728157D01*
X70357809Y-73587809D01*
X70498157Y-73377765D01*
X70547440Y-73130000D01*
X70547440Y-73010160D01*
X70843206Y-72951329D01*
X71131618Y-72758618D01*
X73488618Y-70401618D01*
X73681329Y-70113206D01*
X73725402Y-69891634D01*
X73830000Y-69912440D01*
X73830000Y-69912440D01*
G37*
X73830000Y-69912440D02*
X74430000Y-69912440D01*
X74511000Y-69896328D01*
X74511000Y-72689884D01*
X73186343Y-74014541D01*
X72783722Y-74014190D01*
X72274283Y-74224686D01*
X71884176Y-74614113D01*
X71672791Y-75123184D01*
X71672310Y-75674398D01*
X71882806Y-76183837D01*
X72203409Y-76505000D01*
X71875750Y-76505000D01*
X71717000Y-76663750D01*
X71717000Y-77813000D01*
X73066250Y-77813000D01*
X73225000Y-77654250D01*
X73225000Y-77013690D01*
X73130536Y-76785634D01*
X73178440Y-76785676D01*
X73942560Y-77549796D01*
X73942560Y-78740000D01*
X73991843Y-78987765D01*
X74030087Y-79045000D01*
X73543691Y-79045000D01*
X73310302Y-79141673D01*
X73131673Y-79320301D01*
X73035000Y-79553690D01*
X73035000Y-80194250D01*
X73193750Y-80353000D01*
X74543000Y-80353000D01*
X74543000Y-80333000D01*
X74797000Y-80333000D01*
X74797000Y-80353000D01*
X76146250Y-80353000D01*
X76305000Y-80194250D01*
X76305000Y-79553690D01*
X76236137Y-79387440D01*
X76590000Y-79387440D01*
X76837765Y-79338157D01*
X77035000Y-79206368D01*
X77164808Y-79293104D01*
X77071843Y-79432235D01*
X77022560Y-79680000D01*
X77022560Y-81280000D01*
X77071843Y-81527765D01*
X77212191Y-81737809D01*
X77422235Y-81878157D01*
X77670000Y-81927440D01*
X78860204Y-81927440D01*
X79900656Y-82967892D01*
X79730241Y-83378298D01*
X79729913Y-83753695D01*
X78879736Y-82902033D01*
X76625681Y-81966067D01*
X74185027Y-81963937D01*
X71929342Y-82895967D01*
X70202033Y-84620264D01*
X69266067Y-86874319D01*
X69263937Y-89314973D01*
X70195967Y-91570658D01*
X71920264Y-93297967D01*
X74174319Y-94233933D01*
X76574127Y-94236027D01*
X76532560Y-94445000D01*
X76532560Y-94742199D01*
X71869435Y-94742199D01*
X66777161Y-89649925D01*
X66851185Y-89692318D01*
X66954235Y-89673481D01*
X67426894Y-89402736D01*
X67759964Y-88971721D01*
X67902739Y-88446055D01*
X67741868Y-88227000D01*
X66637000Y-88227000D01*
X66637000Y-88247000D01*
X66383000Y-88247000D01*
X66383000Y-88227000D01*
X66363000Y-88227000D01*
X66363000Y-87973000D01*
X66383000Y-87973000D01*
X66383000Y-86630344D01*
X66637000Y-86630344D01*
X66637000Y-87973000D01*
X67741868Y-87973000D01*
X67902739Y-87753945D01*
X67759964Y-87228279D01*
X67426894Y-86797264D01*
X66954235Y-86526519D01*
X66851185Y-86507682D01*
X66637000Y-86630344D01*
X66383000Y-86630344D01*
X66168815Y-86507682D01*
X66065765Y-86526519D01*
X65593106Y-86797264D01*
X65260036Y-87228279D01*
X65257049Y-87239276D01*
X64989343Y-86838625D01*
X64540017Y-86538395D01*
X64010000Y-86432968D01*
X63479983Y-86538395D01*
X63030657Y-86838625D01*
X62917385Y-87008149D01*
X59570618Y-83661382D01*
X59551515Y-83648618D01*
X59282206Y-83468671D01*
X58942000Y-83401000D01*
X56009000Y-83401000D01*
X56009000Y-76883317D01*
X56080000Y-76897440D01*
X58080000Y-76897440D01*
X58327765Y-76848157D01*
X58537809Y-76707809D01*
X58678157Y-76497765D01*
X58727440Y-76250000D01*
X58727440Y-74550000D01*
X58678157Y-74302235D01*
X58537809Y-74092191D01*
X58327765Y-73951843D01*
X58080000Y-73902560D01*
X57969000Y-73902560D01*
X57969000Y-72825750D01*
X58855710Y-72825750D01*
X58855710Y-73066359D01*
X58952383Y-73299748D01*
X59131011Y-73478377D01*
X59364400Y-73575050D01*
X60105390Y-73575050D01*
X60264140Y-73416300D01*
X60264140Y-72667000D01*
X59014460Y-72667000D01*
X58855710Y-72825750D01*
X57969000Y-72825750D01*
X57969000Y-72637490D01*
X58289290Y-72637490D01*
X58537055Y-72588207D01*
X58747099Y-72447859D01*
X58868152Y-72266692D01*
X59014460Y-72413000D01*
X60264140Y-72413000D01*
X60264140Y-72393000D01*
X60518140Y-72393000D01*
X60518140Y-72413000D01*
X60538140Y-72413000D01*
X60538140Y-72667000D01*
X60518140Y-72667000D01*
X60518140Y-73416300D01*
X60676890Y-73575050D01*
X61417880Y-73575050D01*
X61651269Y-73478377D01*
X61811000Y-73318645D01*
X61811000Y-76670000D01*
X61878671Y-77010206D01*
X62012047Y-77209817D01*
X62071382Y-77298618D01*
X63919382Y-79146618D01*
X64207795Y-79339330D01*
X64548000Y-79407000D01*
X68624764Y-79407000D01*
X69570111Y-80352347D01*
X69569760Y-80754285D01*
X69780169Y-81263515D01*
X70169436Y-81653461D01*
X70678298Y-81864759D01*
X71229285Y-81865240D01*
X71738515Y-81654831D01*
X72128461Y-81265564D01*
X72336001Y-80765750D01*
X73035000Y-80765750D01*
X73035000Y-81406310D01*
X73131673Y-81639699D01*
X73310302Y-81818327D01*
X73543691Y-81915000D01*
X74384250Y-81915000D01*
X74543000Y-81756250D01*
X74543000Y-80607000D01*
X74797000Y-80607000D01*
X74797000Y-81756250D01*
X74955750Y-81915000D01*
X75796309Y-81915000D01*
X76029698Y-81818327D01*
X76208327Y-81639699D01*
X76305000Y-81406310D01*
X76305000Y-80765750D01*
X76146250Y-80607000D01*
X74797000Y-80607000D01*
X74543000Y-80607000D01*
X73193750Y-80607000D01*
X73035000Y-80765750D01*
X72336001Y-80765750D01*
X72339759Y-80756702D01*
X72340240Y-80205715D01*
X72129831Y-79696485D01*
X71740564Y-79306539D01*
X71717002Y-79296755D01*
X71717002Y-79216252D01*
X71875750Y-79375000D01*
X72716309Y-79375000D01*
X72949698Y-79278327D01*
X73128327Y-79099699D01*
X73225000Y-78866310D01*
X73225000Y-78225750D01*
X73066250Y-78067000D01*
X71717000Y-78067000D01*
X71717000Y-78087000D01*
X71463000Y-78087000D01*
X71463000Y-78067000D01*
X70113750Y-78067000D01*
X69956493Y-78224257D01*
X69939000Y-78206764D01*
X69939000Y-77769682D01*
X70048627Y-77747877D01*
X70113750Y-77813000D01*
X71463000Y-77813000D01*
X71463000Y-76663750D01*
X71304250Y-76505000D01*
X70547440Y-76505000D01*
X70547440Y-75130000D01*
X70498157Y-74882235D01*
X70357809Y-74672191D01*
X70147765Y-74531843D01*
X69900000Y-74482560D01*
X68200000Y-74482560D01*
X67952235Y-74531843D01*
X67945000Y-74536677D01*
X67945000Y-74473691D01*
X67848327Y-74240302D01*
X67754027Y-74146002D01*
X67932897Y-73715236D01*
X67952235Y-73728157D01*
X68200000Y-73777440D01*
X69900000Y-73777440D01*
X70147765Y-73728157D01*
X70357809Y-73587809D01*
X70498157Y-73377765D01*
X70547440Y-73130000D01*
X70547440Y-73010160D01*
X70843206Y-72951329D01*
X71131618Y-72758618D01*
X73488618Y-70401618D01*
X73681329Y-70113206D01*
X73725402Y-69891634D01*
X73830000Y-69912440D01*
G36*
X82607000Y-77813000D02*
X82627000Y-77813000D01*
X82627000Y-78067000D01*
X82607000Y-78067000D01*
X82607000Y-79216250D01*
X82765750Y-79375000D01*
X83606309Y-79375000D01*
X83839698Y-79278327D01*
X84018327Y-79099699D01*
X84115000Y-78866310D01*
X84115000Y-78225750D01*
X83956252Y-78067002D01*
X84115000Y-78067002D01*
X84115000Y-78026394D01*
X85292224Y-79203618D01*
X85580636Y-79396329D01*
X85749478Y-79429914D01*
X85590427Y-79667951D01*
X85485000Y-80197968D01*
X85485000Y-80607764D01*
X85471382Y-80621382D01*
X85278671Y-80909794D01*
X85211000Y-81250000D01*
X85211000Y-81522560D01*
X85100000Y-81522560D01*
X84852235Y-81571843D01*
X84642191Y-81712191D01*
X84501843Y-81922235D01*
X84452560Y-82170000D01*
X84452560Y-83870000D01*
X84501843Y-84117765D01*
X84638976Y-84322998D01*
X84561673Y-84400301D01*
X84465000Y-84633690D01*
X84465000Y-85274250D01*
X84623750Y-85433000D01*
X85973000Y-85433000D01*
X85973000Y-85413000D01*
X86227000Y-85413000D01*
X86227000Y-85433000D01*
X87576250Y-85433000D01*
X87735000Y-85274250D01*
X87735000Y-84633690D01*
X87638327Y-84400301D01*
X87561024Y-84322998D01*
X87698157Y-84117765D01*
X87747440Y-83870000D01*
X87747440Y-82170000D01*
X87698157Y-81922235D01*
X87661275Y-81867038D01*
X87849343Y-81741375D01*
X88120000Y-81336308D01*
X88390657Y-81741375D01*
X88551071Y-81848560D01*
X88501843Y-81922235D01*
X88452560Y-82170000D01*
X88452560Y-83870000D01*
X88501843Y-84117765D01*
X88633632Y-84315000D01*
X88501843Y-84512235D01*
X88452560Y-84760000D01*
X88452560Y-85750204D01*
X87735000Y-86467764D01*
X87735000Y-85845750D01*
X87576250Y-85687000D01*
X86227000Y-85687000D01*
X86227000Y-86836250D01*
X86385750Y-86995000D01*
X87207764Y-86995000D01*
X85721764Y-88481000D01*
X85398340Y-88481000D01*
X85114374Y-88196539D01*
X84605512Y-87985241D01*
X84054525Y-87984760D01*
X83545295Y-88195169D01*
X83274000Y-88465992D01*
X83274000Y-85845750D01*
X84465000Y-85845750D01*
X84465000Y-86486310D01*
X84561673Y-86719699D01*
X84740302Y-86898327D01*
X84973691Y-86995000D01*
X85814250Y-86995000D01*
X85973000Y-86836250D01*
X85973000Y-85687000D01*
X84623750Y-85687000D01*
X84465000Y-85845750D01*
X83274000Y-85845750D01*
X83274000Y-84925000D01*
X83206329Y-84584794D01*
X83013618Y-84296382D01*
X82499889Y-83782653D01*
X82500240Y-83380715D01*
X82289831Y-82871485D01*
X81900564Y-82481539D01*
X81854577Y-82462443D01*
X81743618Y-82296382D01*
X80656296Y-81209060D01*
X80806618Y-81108618D01*
X81549817Y-80365419D01*
X81592297Y-80301843D01*
X81742528Y-80077007D01*
X81810199Y-79736801D01*
X81810199Y-79375000D01*
X82194250Y-79375000D01*
X82353000Y-79216250D01*
X82353000Y-78067000D01*
X82333000Y-78067000D01*
X82333000Y-77813000D01*
X82353000Y-77813000D01*
X82353000Y-77793000D01*
X82607000Y-77793000D01*
X82607000Y-77813000D01*
X82607000Y-77813000D01*
G37*
X82607000Y-77813000D02*
X82627000Y-77813000D01*
X82627000Y-78067000D01*
X82607000Y-78067000D01*
X82607000Y-79216250D01*
X82765750Y-79375000D01*
X83606309Y-79375000D01*
X83839698Y-79278327D01*
X84018327Y-79099699D01*
X84115000Y-78866310D01*
X84115000Y-78225750D01*
X83956252Y-78067002D01*
X84115000Y-78067002D01*
X84115000Y-78026394D01*
X85292224Y-79203618D01*
X85580636Y-79396329D01*
X85749478Y-79429914D01*
X85590427Y-79667951D01*
X85485000Y-80197968D01*
X85485000Y-80607764D01*
X85471382Y-80621382D01*
X85278671Y-80909794D01*
X85211000Y-81250000D01*
X85211000Y-81522560D01*
X85100000Y-81522560D01*
X84852235Y-81571843D01*
X84642191Y-81712191D01*
X84501843Y-81922235D01*
X84452560Y-82170000D01*
X84452560Y-83870000D01*
X84501843Y-84117765D01*
X84638976Y-84322998D01*
X84561673Y-84400301D01*
X84465000Y-84633690D01*
X84465000Y-85274250D01*
X84623750Y-85433000D01*
X85973000Y-85433000D01*
X85973000Y-85413000D01*
X86227000Y-85413000D01*
X86227000Y-85433000D01*
X87576250Y-85433000D01*
X87735000Y-85274250D01*
X87735000Y-84633690D01*
X87638327Y-84400301D01*
X87561024Y-84322998D01*
X87698157Y-84117765D01*
X87747440Y-83870000D01*
X87747440Y-82170000D01*
X87698157Y-81922235D01*
X87661275Y-81867038D01*
X87849343Y-81741375D01*
X88120000Y-81336308D01*
X88390657Y-81741375D01*
X88551071Y-81848560D01*
X88501843Y-81922235D01*
X88452560Y-82170000D01*
X88452560Y-83870000D01*
X88501843Y-84117765D01*
X88633632Y-84315000D01*
X88501843Y-84512235D01*
X88452560Y-84760000D01*
X88452560Y-85750204D01*
X87735000Y-86467764D01*
X87735000Y-85845750D01*
X87576250Y-85687000D01*
X86227000Y-85687000D01*
X86227000Y-86836250D01*
X86385750Y-86995000D01*
X87207764Y-86995000D01*
X85721764Y-88481000D01*
X85398340Y-88481000D01*
X85114374Y-88196539D01*
X84605512Y-87985241D01*
X84054525Y-87984760D01*
X83545295Y-88195169D01*
X83274000Y-88465992D01*
X83274000Y-85845750D01*
X84465000Y-85845750D01*
X84465000Y-86486310D01*
X84561673Y-86719699D01*
X84740302Y-86898327D01*
X84973691Y-86995000D01*
X85814250Y-86995000D01*
X85973000Y-86836250D01*
X85973000Y-85687000D01*
X84623750Y-85687000D01*
X84465000Y-85845750D01*
X83274000Y-85845750D01*
X83274000Y-84925000D01*
X83206329Y-84584794D01*
X83013618Y-84296382D01*
X82499889Y-83782653D01*
X82500240Y-83380715D01*
X82289831Y-82871485D01*
X81900564Y-82481539D01*
X81854577Y-82462443D01*
X81743618Y-82296382D01*
X80656296Y-81209060D01*
X80806618Y-81108618D01*
X81549817Y-80365419D01*
X81592297Y-80301843D01*
X81742528Y-80077007D01*
X81810199Y-79736801D01*
X81810199Y-79375000D01*
X82194250Y-79375000D01*
X82353000Y-79216250D01*
X82353000Y-78067000D01*
X82333000Y-78067000D01*
X82333000Y-77813000D01*
X82353000Y-77813000D01*
X82353000Y-77793000D01*
X82607000Y-77793000D01*
X82607000Y-77813000D01*
G36*
X94577000Y-70193000D02*
X94597000Y-70193000D01*
X94597000Y-70447000D01*
X94577000Y-70447000D01*
X94577000Y-72733000D01*
X94597000Y-72733000D01*
X94597000Y-72987000D01*
X94577000Y-72987000D01*
X94577000Y-74194469D01*
X94809027Y-74314968D01*
X95338490Y-74066821D01*
X95720008Y-73648839D01*
X95900971Y-73919670D01*
X96215752Y-74130000D01*
X95900971Y-74340330D01*
X95576115Y-74826511D01*
X95462041Y-75400000D01*
X95576115Y-75973489D01*
X95900971Y-76459670D01*
X96215752Y-76670000D01*
X95900971Y-76880330D01*
X95720000Y-77151172D01*
X95539029Y-76880330D01*
X95052848Y-76555474D01*
X94479359Y-76441400D01*
X94420641Y-76441400D01*
X93847152Y-76555474D01*
X93360971Y-76880330D01*
X93036115Y-77366511D01*
X92951401Y-77792397D01*
X92951401Y-74921977D01*
X92883730Y-74581771D01*
X92701686Y-74309324D01*
X93200478Y-74103228D01*
X93406772Y-73897293D01*
X93561510Y-74066821D01*
X94090973Y-74314968D01*
X94323000Y-74194469D01*
X94323000Y-72987000D01*
X94303000Y-72987000D01*
X94303000Y-72733000D01*
X94323000Y-72733000D01*
X94323000Y-70447000D01*
X94303000Y-70447000D01*
X94303000Y-70193000D01*
X94323000Y-70193000D01*
X94323000Y-70173000D01*
X94577000Y-70173000D01*
X94577000Y-70193000D01*
X94577000Y-70193000D01*
G37*
X94577000Y-70193000D02*
X94597000Y-70193000D01*
X94597000Y-70447000D01*
X94577000Y-70447000D01*
X94577000Y-72733000D01*
X94597000Y-72733000D01*
X94597000Y-72987000D01*
X94577000Y-72987000D01*
X94577000Y-74194469D01*
X94809027Y-74314968D01*
X95338490Y-74066821D01*
X95720008Y-73648839D01*
X95900971Y-73919670D01*
X96215752Y-74130000D01*
X95900971Y-74340330D01*
X95576115Y-74826511D01*
X95462041Y-75400000D01*
X95576115Y-75973489D01*
X95900971Y-76459670D01*
X96215752Y-76670000D01*
X95900971Y-76880330D01*
X95720000Y-77151172D01*
X95539029Y-76880330D01*
X95052848Y-76555474D01*
X94479359Y-76441400D01*
X94420641Y-76441400D01*
X93847152Y-76555474D01*
X93360971Y-76880330D01*
X93036115Y-77366511D01*
X92951401Y-77792397D01*
X92951401Y-74921977D01*
X92883730Y-74581771D01*
X92701686Y-74309324D01*
X93200478Y-74103228D01*
X93406772Y-73897293D01*
X93561510Y-74066821D01*
X94090973Y-74314968D01*
X94323000Y-74194469D01*
X94323000Y-72987000D01*
X94303000Y-72987000D01*
X94303000Y-72733000D01*
X94323000Y-72733000D01*
X94323000Y-70447000D01*
X94303000Y-70447000D01*
X94303000Y-70193000D01*
X94323000Y-70193000D01*
X94323000Y-70173000D01*
X94577000Y-70173000D01*
X94577000Y-70193000D01*
G36*
X67802594Y-70631830D02*
X67742191Y-70672191D01*
X67601843Y-70882235D01*
X67552560Y-71130000D01*
X67552560Y-71286241D01*
X67439794Y-71308671D01*
X67208825Y-71463000D01*
X67151382Y-71501382D01*
X66687609Y-71965155D01*
X66225813Y-71964752D01*
X65698200Y-72182757D01*
X65294176Y-72586077D01*
X65075250Y-73113309D01*
X65074752Y-73684187D01*
X65265688Y-74146287D01*
X65171673Y-74240302D01*
X65075000Y-74473691D01*
X65075000Y-75114250D01*
X65233750Y-75273000D01*
X66383000Y-75273000D01*
X66383000Y-75253000D01*
X66637000Y-75253000D01*
X66637000Y-75273000D01*
X66657000Y-75273000D01*
X66657000Y-75527000D01*
X66637000Y-75527000D01*
X66637000Y-76676250D01*
X66795750Y-76835000D01*
X67436310Y-76835000D01*
X67552560Y-76786848D01*
X67552560Y-77130000D01*
X67601843Y-77377765D01*
X67742191Y-77587809D01*
X67803837Y-77629000D01*
X64916236Y-77629000D01*
X63589000Y-76301764D01*
X63589000Y-75685750D01*
X65075000Y-75685750D01*
X65075000Y-76326309D01*
X65171673Y-76559698D01*
X65350301Y-76738327D01*
X65583690Y-76835000D01*
X66224250Y-76835000D01*
X66383000Y-76676250D01*
X66383000Y-75527000D01*
X65233750Y-75527000D01*
X65075000Y-75685750D01*
X63589000Y-75685750D01*
X63589000Y-69255361D01*
X63700000Y-69277440D01*
X65700000Y-69277440D01*
X65947765Y-69228157D01*
X66157809Y-69087809D01*
X66198170Y-69027406D01*
X67802594Y-70631830D01*
X67802594Y-70631830D01*
G37*
X67802594Y-70631830D02*
X67742191Y-70672191D01*
X67601843Y-70882235D01*
X67552560Y-71130000D01*
X67552560Y-71286241D01*
X67439794Y-71308671D01*
X67208825Y-71463000D01*
X67151382Y-71501382D01*
X66687609Y-71965155D01*
X66225813Y-71964752D01*
X65698200Y-72182757D01*
X65294176Y-72586077D01*
X65075250Y-73113309D01*
X65074752Y-73684187D01*
X65265688Y-74146287D01*
X65171673Y-74240302D01*
X65075000Y-74473691D01*
X65075000Y-75114250D01*
X65233750Y-75273000D01*
X66383000Y-75273000D01*
X66383000Y-75253000D01*
X66637000Y-75253000D01*
X66637000Y-75273000D01*
X66657000Y-75273000D01*
X66657000Y-75527000D01*
X66637000Y-75527000D01*
X66637000Y-76676250D01*
X66795750Y-76835000D01*
X67436310Y-76835000D01*
X67552560Y-76786848D01*
X67552560Y-77130000D01*
X67601843Y-77377765D01*
X67742191Y-77587809D01*
X67803837Y-77629000D01*
X64916236Y-77629000D01*
X63589000Y-76301764D01*
X63589000Y-75685750D01*
X65075000Y-75685750D01*
X65075000Y-76326309D01*
X65171673Y-76559698D01*
X65350301Y-76738327D01*
X65583690Y-76835000D01*
X66224250Y-76835000D01*
X66383000Y-76676250D01*
X66383000Y-75527000D01*
X65233750Y-75527000D01*
X65075000Y-75685750D01*
X63589000Y-75685750D01*
X63589000Y-69255361D01*
X63700000Y-69277440D01*
X65700000Y-69277440D01*
X65947765Y-69228157D01*
X66157809Y-69087809D01*
X66198170Y-69027406D01*
X67802594Y-70631830D01*
G36*
X65451843Y-56127765D02*
X65592191Y-56337809D01*
X65802235Y-56478157D01*
X66050000Y-56527440D01*
X68050000Y-56527440D01*
X68190727Y-56499448D01*
X68228671Y-56690206D01*
X68270282Y-56752482D01*
X67630204Y-57392560D01*
X66240000Y-57392560D01*
X65992235Y-57441843D01*
X65782191Y-57582191D01*
X65641843Y-57792235D01*
X65592560Y-58040000D01*
X65592560Y-59740000D01*
X65641843Y-59987765D01*
X65782191Y-60197809D01*
X65886177Y-60267291D01*
X65806271Y-60300389D01*
X65750590Y-60530984D01*
X66470000Y-61250395D01*
X67189410Y-60530984D01*
X67154749Y-60387440D01*
X68240000Y-60387440D01*
X68487765Y-60338157D01*
X68697809Y-60197809D01*
X68838157Y-59987765D01*
X68887440Y-59740000D01*
X68887440Y-58649796D01*
X69372560Y-58164676D01*
X69372560Y-59865000D01*
X69421843Y-60112765D01*
X69431000Y-60126469D01*
X69431000Y-61430000D01*
X69498671Y-61770206D01*
X69595043Y-61914436D01*
X69691382Y-62058618D01*
X70326382Y-62693618D01*
X70614795Y-62886330D01*
X70955000Y-62954000D01*
X71790470Y-62954000D01*
X72074436Y-63238461D01*
X72583298Y-63449759D01*
X73134285Y-63450240D01*
X73643515Y-63239831D01*
X74033461Y-62850564D01*
X74244759Y-62341702D01*
X74245240Y-61790715D01*
X74034831Y-61281485D01*
X73645564Y-60891539D01*
X73136702Y-60680241D01*
X72585715Y-60679760D01*
X72076485Y-60890169D01*
X71790155Y-61176000D01*
X71323236Y-61176000D01*
X71209000Y-61061764D01*
X71209000Y-60496328D01*
X71290000Y-60512440D01*
X71890000Y-60512440D01*
X72137765Y-60463157D01*
X72225000Y-60404868D01*
X72312235Y-60463157D01*
X72560000Y-60512440D01*
X73160000Y-60512440D01*
X73407765Y-60463157D01*
X73495000Y-60404868D01*
X73582235Y-60463157D01*
X73830000Y-60512440D01*
X74430000Y-60512440D01*
X74677765Y-60463157D01*
X74765000Y-60404868D01*
X74852235Y-60463157D01*
X75100000Y-60512440D01*
X75700000Y-60512440D01*
X75947765Y-60463157D01*
X76035000Y-60404868D01*
X76122235Y-60463157D01*
X76370000Y-60512440D01*
X76970000Y-60512440D01*
X77074598Y-60491634D01*
X77118671Y-60713206D01*
X77279757Y-60954288D01*
X77311382Y-61001618D01*
X77636567Y-61326803D01*
X77156485Y-61525169D01*
X76766539Y-61914436D01*
X76555241Y-62423298D01*
X76554760Y-62974285D01*
X76765169Y-63483515D01*
X77154436Y-63873461D01*
X77663298Y-64084759D01*
X78067876Y-64085112D01*
X78321000Y-64338236D01*
X78321000Y-66680000D01*
X78225750Y-66680000D01*
X78067000Y-66838750D01*
X78067000Y-68163000D01*
X78087000Y-68163000D01*
X78087000Y-68417000D01*
X78067000Y-68417000D01*
X78067000Y-69741250D01*
X78225750Y-69900000D01*
X78366310Y-69900000D01*
X78519343Y-69836612D01*
X78581382Y-69929460D01*
X78806922Y-70155000D01*
X78765750Y-70155000D01*
X78607000Y-70313750D01*
X78607000Y-71463000D01*
X78627000Y-71463000D01*
X78627000Y-71717000D01*
X78607000Y-71717000D01*
X78607000Y-72866250D01*
X78765750Y-73025000D01*
X79094889Y-73025000D01*
X79094760Y-73173095D01*
X79305169Y-73682325D01*
X79694436Y-74072271D01*
X80077082Y-74231159D01*
X80032199Y-74456801D01*
X80032199Y-76823455D01*
X79937809Y-76682191D01*
X79727765Y-76541843D01*
X79480000Y-76492560D01*
X78829000Y-76492560D01*
X78829000Y-76470334D01*
X79113944Y-76185887D01*
X79325329Y-75676816D01*
X79325810Y-75125602D01*
X79115314Y-74616163D01*
X78725887Y-74226056D01*
X78216816Y-74014671D01*
X77811553Y-74014317D01*
X77559000Y-73761764D01*
X77559000Y-73025000D01*
X78194250Y-73025000D01*
X78353000Y-72866250D01*
X78353000Y-71717000D01*
X78333000Y-71717000D01*
X78333000Y-71463000D01*
X78353000Y-71463000D01*
X78353000Y-70313750D01*
X78194250Y-70155000D01*
X77559000Y-70155000D01*
X77559000Y-69900000D01*
X77654250Y-69900000D01*
X77813000Y-69741250D01*
X77813000Y-68417000D01*
X77793000Y-68417000D01*
X77793000Y-68163000D01*
X77813000Y-68163000D01*
X77813000Y-66838750D01*
X77654250Y-66680000D01*
X77513690Y-66680000D01*
X77296972Y-66769768D01*
X77217765Y-66716843D01*
X76970000Y-66667560D01*
X76370000Y-66667560D01*
X76122235Y-66716843D01*
X76035000Y-66775132D01*
X75947765Y-66716843D01*
X75700000Y-66667560D01*
X75100000Y-66667560D01*
X74852235Y-66716843D01*
X74765000Y-66775132D01*
X74677765Y-66716843D01*
X74430000Y-66667560D01*
X73830000Y-66667560D01*
X73582235Y-66716843D01*
X73495000Y-66775132D01*
X73407765Y-66716843D01*
X73160000Y-66667560D01*
X72560000Y-66667560D01*
X72312235Y-66716843D01*
X72225000Y-66775132D01*
X72137765Y-66716843D01*
X71890000Y-66667560D01*
X71290000Y-66667560D01*
X71042235Y-66716843D01*
X70955000Y-66775132D01*
X70867765Y-66716843D01*
X70632228Y-66669992D01*
X68869986Y-64907750D01*
X68887440Y-64820000D01*
X68887440Y-63120000D01*
X68838157Y-62872235D01*
X68697809Y-62662191D01*
X68487765Y-62521843D01*
X68240000Y-62472560D01*
X67154749Y-62472560D01*
X67189410Y-62329016D01*
X66470000Y-61609605D01*
X66455858Y-61623748D01*
X66276252Y-61444142D01*
X66290395Y-61430000D01*
X66649605Y-61430000D01*
X67369016Y-62149410D01*
X67599611Y-62093729D01*
X67767622Y-61610922D01*
X67738083Y-61100572D01*
X67599611Y-60766271D01*
X67369016Y-60710590D01*
X66649605Y-61430000D01*
X66290395Y-61430000D01*
X65570984Y-60710590D01*
X65340389Y-60766271D01*
X65267440Y-60975902D01*
X65267440Y-60780000D01*
X65218157Y-60532235D01*
X65077809Y-60322191D01*
X64867765Y-60181843D01*
X64724650Y-60153376D01*
X64778327Y-60099699D01*
X64875000Y-59866310D01*
X64875000Y-59175750D01*
X64716250Y-59017000D01*
X63367000Y-59017000D01*
X63367000Y-59037000D01*
X63113000Y-59037000D01*
X63113000Y-59017000D01*
X63093000Y-59017000D01*
X63093000Y-58763000D01*
X63113000Y-58763000D01*
X63113000Y-57563750D01*
X63367000Y-57563750D01*
X63367000Y-58763000D01*
X64716250Y-58763000D01*
X64875000Y-58604250D01*
X64875000Y-57913690D01*
X64778327Y-57680301D01*
X64599698Y-57501673D01*
X64366309Y-57405000D01*
X63525750Y-57405000D01*
X63367000Y-57563750D01*
X63113000Y-57563750D01*
X62954250Y-57405000D01*
X62319000Y-57405000D01*
X62319000Y-57353236D01*
X63703236Y-55969000D01*
X65420263Y-55969000D01*
X65451843Y-56127765D01*
X65451843Y-56127765D01*
G37*
X65451843Y-56127765D02*
X65592191Y-56337809D01*
X65802235Y-56478157D01*
X66050000Y-56527440D01*
X68050000Y-56527440D01*
X68190727Y-56499448D01*
X68228671Y-56690206D01*
X68270282Y-56752482D01*
X67630204Y-57392560D01*
X66240000Y-57392560D01*
X65992235Y-57441843D01*
X65782191Y-57582191D01*
X65641843Y-57792235D01*
X65592560Y-58040000D01*
X65592560Y-59740000D01*
X65641843Y-59987765D01*
X65782191Y-60197809D01*
X65886177Y-60267291D01*
X65806271Y-60300389D01*
X65750590Y-60530984D01*
X66470000Y-61250395D01*
X67189410Y-60530984D01*
X67154749Y-60387440D01*
X68240000Y-60387440D01*
X68487765Y-60338157D01*
X68697809Y-60197809D01*
X68838157Y-59987765D01*
X68887440Y-59740000D01*
X68887440Y-58649796D01*
X69372560Y-58164676D01*
X69372560Y-59865000D01*
X69421843Y-60112765D01*
X69431000Y-60126469D01*
X69431000Y-61430000D01*
X69498671Y-61770206D01*
X69595043Y-61914436D01*
X69691382Y-62058618D01*
X70326382Y-62693618D01*
X70614795Y-62886330D01*
X70955000Y-62954000D01*
X71790470Y-62954000D01*
X72074436Y-63238461D01*
X72583298Y-63449759D01*
X73134285Y-63450240D01*
X73643515Y-63239831D01*
X74033461Y-62850564D01*
X74244759Y-62341702D01*
X74245240Y-61790715D01*
X74034831Y-61281485D01*
X73645564Y-60891539D01*
X73136702Y-60680241D01*
X72585715Y-60679760D01*
X72076485Y-60890169D01*
X71790155Y-61176000D01*
X71323236Y-61176000D01*
X71209000Y-61061764D01*
X71209000Y-60496328D01*
X71290000Y-60512440D01*
X71890000Y-60512440D01*
X72137765Y-60463157D01*
X72225000Y-60404868D01*
X72312235Y-60463157D01*
X72560000Y-60512440D01*
X73160000Y-60512440D01*
X73407765Y-60463157D01*
X73495000Y-60404868D01*
X73582235Y-60463157D01*
X73830000Y-60512440D01*
X74430000Y-60512440D01*
X74677765Y-60463157D01*
X74765000Y-60404868D01*
X74852235Y-60463157D01*
X75100000Y-60512440D01*
X75700000Y-60512440D01*
X75947765Y-60463157D01*
X76035000Y-60404868D01*
X76122235Y-60463157D01*
X76370000Y-60512440D01*
X76970000Y-60512440D01*
X77074598Y-60491634D01*
X77118671Y-60713206D01*
X77279757Y-60954288D01*
X77311382Y-61001618D01*
X77636567Y-61326803D01*
X77156485Y-61525169D01*
X76766539Y-61914436D01*
X76555241Y-62423298D01*
X76554760Y-62974285D01*
X76765169Y-63483515D01*
X77154436Y-63873461D01*
X77663298Y-64084759D01*
X78067876Y-64085112D01*
X78321000Y-64338236D01*
X78321000Y-66680000D01*
X78225750Y-66680000D01*
X78067000Y-66838750D01*
X78067000Y-68163000D01*
X78087000Y-68163000D01*
X78087000Y-68417000D01*
X78067000Y-68417000D01*
X78067000Y-69741250D01*
X78225750Y-69900000D01*
X78366310Y-69900000D01*
X78519343Y-69836612D01*
X78581382Y-69929460D01*
X78806922Y-70155000D01*
X78765750Y-70155000D01*
X78607000Y-70313750D01*
X78607000Y-71463000D01*
X78627000Y-71463000D01*
X78627000Y-71717000D01*
X78607000Y-71717000D01*
X78607000Y-72866250D01*
X78765750Y-73025000D01*
X79094889Y-73025000D01*
X79094760Y-73173095D01*
X79305169Y-73682325D01*
X79694436Y-74072271D01*
X80077082Y-74231159D01*
X80032199Y-74456801D01*
X80032199Y-76823455D01*
X79937809Y-76682191D01*
X79727765Y-76541843D01*
X79480000Y-76492560D01*
X78829000Y-76492560D01*
X78829000Y-76470334D01*
X79113944Y-76185887D01*
X79325329Y-75676816D01*
X79325810Y-75125602D01*
X79115314Y-74616163D01*
X78725887Y-74226056D01*
X78216816Y-74014671D01*
X77811553Y-74014317D01*
X77559000Y-73761764D01*
X77559000Y-73025000D01*
X78194250Y-73025000D01*
X78353000Y-72866250D01*
X78353000Y-71717000D01*
X78333000Y-71717000D01*
X78333000Y-71463000D01*
X78353000Y-71463000D01*
X78353000Y-70313750D01*
X78194250Y-70155000D01*
X77559000Y-70155000D01*
X77559000Y-69900000D01*
X77654250Y-69900000D01*
X77813000Y-69741250D01*
X77813000Y-68417000D01*
X77793000Y-68417000D01*
X77793000Y-68163000D01*
X77813000Y-68163000D01*
X77813000Y-66838750D01*
X77654250Y-66680000D01*
X77513690Y-66680000D01*
X77296972Y-66769768D01*
X77217765Y-66716843D01*
X76970000Y-66667560D01*
X76370000Y-66667560D01*
X76122235Y-66716843D01*
X76035000Y-66775132D01*
X75947765Y-66716843D01*
X75700000Y-66667560D01*
X75100000Y-66667560D01*
X74852235Y-66716843D01*
X74765000Y-66775132D01*
X74677765Y-66716843D01*
X74430000Y-66667560D01*
X73830000Y-66667560D01*
X73582235Y-66716843D01*
X73495000Y-66775132D01*
X73407765Y-66716843D01*
X73160000Y-66667560D01*
X72560000Y-66667560D01*
X72312235Y-66716843D01*
X72225000Y-66775132D01*
X72137765Y-66716843D01*
X71890000Y-66667560D01*
X71290000Y-66667560D01*
X71042235Y-66716843D01*
X70955000Y-66775132D01*
X70867765Y-66716843D01*
X70632228Y-66669992D01*
X68869986Y-64907750D01*
X68887440Y-64820000D01*
X68887440Y-63120000D01*
X68838157Y-62872235D01*
X68697809Y-62662191D01*
X68487765Y-62521843D01*
X68240000Y-62472560D01*
X67154749Y-62472560D01*
X67189410Y-62329016D01*
X66470000Y-61609605D01*
X66455858Y-61623748D01*
X66276252Y-61444142D01*
X66290395Y-61430000D01*
X66649605Y-61430000D01*
X67369016Y-62149410D01*
X67599611Y-62093729D01*
X67767622Y-61610922D01*
X67738083Y-61100572D01*
X67599611Y-60766271D01*
X67369016Y-60710590D01*
X66649605Y-61430000D01*
X66290395Y-61430000D01*
X65570984Y-60710590D01*
X65340389Y-60766271D01*
X65267440Y-60975902D01*
X65267440Y-60780000D01*
X65218157Y-60532235D01*
X65077809Y-60322191D01*
X64867765Y-60181843D01*
X64724650Y-60153376D01*
X64778327Y-60099699D01*
X64875000Y-59866310D01*
X64875000Y-59175750D01*
X64716250Y-59017000D01*
X63367000Y-59017000D01*
X63367000Y-59037000D01*
X63113000Y-59037000D01*
X63113000Y-59017000D01*
X63093000Y-59017000D01*
X63093000Y-58763000D01*
X63113000Y-58763000D01*
X63113000Y-57563750D01*
X63367000Y-57563750D01*
X63367000Y-58763000D01*
X64716250Y-58763000D01*
X64875000Y-58604250D01*
X64875000Y-57913690D01*
X64778327Y-57680301D01*
X64599698Y-57501673D01*
X64366309Y-57405000D01*
X63525750Y-57405000D01*
X63367000Y-57563750D01*
X63113000Y-57563750D01*
X62954250Y-57405000D01*
X62319000Y-57405000D01*
X62319000Y-57353236D01*
X63703236Y-55969000D01*
X65420263Y-55969000D01*
X65451843Y-56127765D01*
G36*
X65526511Y-50730729D02*
X65040330Y-51055585D01*
X64715474Y-51541766D01*
X64601400Y-52115255D01*
X64601400Y-52484745D01*
X64715474Y-53058234D01*
X65040330Y-53544415D01*
X65526511Y-53869271D01*
X65556718Y-53875280D01*
X65451843Y-54032235D01*
X65420263Y-54191000D01*
X63335000Y-54191000D01*
X62994794Y-54258671D01*
X62706382Y-54451382D01*
X60801382Y-56356382D01*
X60608671Y-56644794D01*
X60541000Y-56985000D01*
X60541000Y-61430000D01*
X60608671Y-61770206D01*
X60801382Y-62058618D01*
X61089794Y-62251329D01*
X61430000Y-62319000D01*
X62720100Y-62319000D01*
X62721843Y-62327765D01*
X62818593Y-62472560D01*
X62240000Y-62472560D01*
X61992235Y-62521843D01*
X61782191Y-62662191D01*
X61641843Y-62872235D01*
X61600318Y-63081000D01*
X60843787Y-63081000D01*
X60838207Y-63052945D01*
X60697859Y-62842901D01*
X60487815Y-62702553D01*
X60240050Y-62653270D01*
X59603930Y-62653270D01*
X59747859Y-62557099D01*
X59888207Y-62347055D01*
X59937490Y-62099290D01*
X59937490Y-60298430D01*
X59888207Y-60050665D01*
X59747859Y-59840621D01*
X59537815Y-59700273D01*
X59290050Y-59650990D01*
X58489950Y-59650990D01*
X58242185Y-59700273D01*
X58032141Y-59840621D01*
X57891793Y-60050665D01*
X57842510Y-60298430D01*
X57842510Y-60309860D01*
X57393206Y-60309860D01*
X57267809Y-60122191D01*
X57057765Y-59981843D01*
X56810000Y-59932560D01*
X54810000Y-59932560D01*
X54562235Y-59981843D01*
X54352191Y-60122191D01*
X54211843Y-60332235D01*
X54162560Y-60580000D01*
X54162560Y-62280000D01*
X54211843Y-62527765D01*
X54352191Y-62737809D01*
X54562235Y-62878157D01*
X54810000Y-62927440D01*
X56810000Y-62927440D01*
X57057765Y-62878157D01*
X57077994Y-62864640D01*
X57001623Y-62941011D01*
X56904950Y-63174400D01*
X56904950Y-63915390D01*
X57063700Y-64074140D01*
X57813000Y-64074140D01*
X57813000Y-62824460D01*
X57654250Y-62665710D01*
X57413641Y-62665710D01*
X57278612Y-62721641D01*
X57408157Y-62527765D01*
X57457440Y-62280000D01*
X57457440Y-62087860D01*
X57842510Y-62087860D01*
X57842510Y-62099290D01*
X57891793Y-62347055D01*
X58032141Y-62557099D01*
X58213308Y-62678152D01*
X58067000Y-62824460D01*
X58067000Y-64074140D01*
X58087000Y-64074140D01*
X58087000Y-64328140D01*
X58067000Y-64328140D01*
X58067000Y-65577820D01*
X58225750Y-65736570D01*
X58466359Y-65736570D01*
X58699748Y-65639897D01*
X58878377Y-65461269D01*
X58892999Y-65425969D01*
X58982141Y-65559379D01*
X59192185Y-65699727D01*
X59439950Y-65749010D01*
X60240050Y-65749010D01*
X60487815Y-65699727D01*
X60697859Y-65559379D01*
X60838207Y-65349335D01*
X60887490Y-65101570D01*
X60887490Y-64859000D01*
X61600318Y-64859000D01*
X61641843Y-65067765D01*
X61782191Y-65277809D01*
X61992235Y-65418157D01*
X62240000Y-65467440D01*
X62485324Y-65467440D01*
X62071382Y-65881382D01*
X61878671Y-66169794D01*
X61850294Y-66312455D01*
X61700000Y-66282560D01*
X59700000Y-66282560D01*
X59452235Y-66331843D01*
X59242191Y-66472191D01*
X59101843Y-66682235D01*
X59052560Y-66930000D01*
X59052560Y-68630000D01*
X59101843Y-68877765D01*
X59242191Y-69087809D01*
X59452235Y-69228157D01*
X59700000Y-69277440D01*
X59811000Y-69277440D01*
X59811000Y-69592510D01*
X59490710Y-69592510D01*
X59242945Y-69641793D01*
X59032901Y-69782141D01*
X58892553Y-69992185D01*
X58843270Y-70239950D01*
X58843270Y-70876070D01*
X58747099Y-70732141D01*
X58537055Y-70591793D01*
X58289290Y-70542510D01*
X56488430Y-70542510D01*
X56240665Y-70591793D01*
X56030621Y-70732141D01*
X55890273Y-70942185D01*
X55840990Y-71189950D01*
X55840990Y-71990050D01*
X55890273Y-72237815D01*
X56030621Y-72447859D01*
X56191000Y-72555022D01*
X56191000Y-73902560D01*
X56080000Y-73902560D01*
X56009000Y-73916683D01*
X56009000Y-72798400D01*
X55941329Y-72458194D01*
X55748618Y-72169782D01*
X54087870Y-70509034D01*
X54087870Y-69521170D01*
X54038587Y-69273405D01*
X53898239Y-69063361D01*
X53688195Y-68923013D01*
X53440430Y-68873730D01*
X53429000Y-68873730D01*
X53429000Y-67956270D01*
X53440430Y-67956270D01*
X53688195Y-67906987D01*
X53898239Y-67766639D01*
X54038587Y-67556595D01*
X54087870Y-67308830D01*
X54087870Y-65711170D01*
X54038587Y-65463405D01*
X53898239Y-65253361D01*
X53688195Y-65113013D01*
X53573203Y-65090140D01*
X53688195Y-65067267D01*
X53898239Y-64926919D01*
X54038587Y-64716875D01*
X54084333Y-64486890D01*
X56904950Y-64486890D01*
X56904950Y-65227880D01*
X57001623Y-65461269D01*
X57180252Y-65639897D01*
X57413641Y-65736570D01*
X57654250Y-65736570D01*
X57813000Y-65577820D01*
X57813000Y-64328140D01*
X57063700Y-64328140D01*
X56904950Y-64486890D01*
X54084333Y-64486890D01*
X54087870Y-64469110D01*
X54087870Y-62871450D01*
X54038587Y-62623685D01*
X53898239Y-62413641D01*
X53688195Y-62273293D01*
X53457440Y-62227393D01*
X53457440Y-60580000D01*
X53408157Y-60332235D01*
X53267809Y-60122191D01*
X53057765Y-59981843D01*
X52810000Y-59932560D01*
X50810000Y-59932560D01*
X50710000Y-59952451D01*
X50710000Y-56521834D01*
X52364543Y-56521834D01*
X52764853Y-57490658D01*
X53505443Y-58232542D01*
X54473567Y-58634542D01*
X55521834Y-58635457D01*
X56490658Y-58235147D01*
X57232542Y-57494557D01*
X57634542Y-56526433D01*
X57635457Y-55478166D01*
X57235147Y-54509342D01*
X56494557Y-53767458D01*
X55526433Y-53365458D01*
X54478166Y-53364543D01*
X53509342Y-53764853D01*
X52767458Y-54505443D01*
X52365458Y-55473567D01*
X52364543Y-56521834D01*
X50710000Y-56521834D01*
X50710000Y-50710000D01*
X65630723Y-50710000D01*
X65526511Y-50730729D01*
X65526511Y-50730729D01*
G37*
X65526511Y-50730729D02*
X65040330Y-51055585D01*
X64715474Y-51541766D01*
X64601400Y-52115255D01*
X64601400Y-52484745D01*
X64715474Y-53058234D01*
X65040330Y-53544415D01*
X65526511Y-53869271D01*
X65556718Y-53875280D01*
X65451843Y-54032235D01*
X65420263Y-54191000D01*
X63335000Y-54191000D01*
X62994794Y-54258671D01*
X62706382Y-54451382D01*
X60801382Y-56356382D01*
X60608671Y-56644794D01*
X60541000Y-56985000D01*
X60541000Y-61430000D01*
X60608671Y-61770206D01*
X60801382Y-62058618D01*
X61089794Y-62251329D01*
X61430000Y-62319000D01*
X62720100Y-62319000D01*
X62721843Y-62327765D01*
X62818593Y-62472560D01*
X62240000Y-62472560D01*
X61992235Y-62521843D01*
X61782191Y-62662191D01*
X61641843Y-62872235D01*
X61600318Y-63081000D01*
X60843787Y-63081000D01*
X60838207Y-63052945D01*
X60697859Y-62842901D01*
X60487815Y-62702553D01*
X60240050Y-62653270D01*
X59603930Y-62653270D01*
X59747859Y-62557099D01*
X59888207Y-62347055D01*
X59937490Y-62099290D01*
X59937490Y-60298430D01*
X59888207Y-60050665D01*
X59747859Y-59840621D01*
X59537815Y-59700273D01*
X59290050Y-59650990D01*
X58489950Y-59650990D01*
X58242185Y-59700273D01*
X58032141Y-59840621D01*
X57891793Y-60050665D01*
X57842510Y-60298430D01*
X57842510Y-60309860D01*
X57393206Y-60309860D01*
X57267809Y-60122191D01*
X57057765Y-59981843D01*
X56810000Y-59932560D01*
X54810000Y-59932560D01*
X54562235Y-59981843D01*
X54352191Y-60122191D01*
X54211843Y-60332235D01*
X54162560Y-60580000D01*
X54162560Y-62280000D01*
X54211843Y-62527765D01*
X54352191Y-62737809D01*
X54562235Y-62878157D01*
X54810000Y-62927440D01*
X56810000Y-62927440D01*
X57057765Y-62878157D01*
X57077994Y-62864640D01*
X57001623Y-62941011D01*
X56904950Y-63174400D01*
X56904950Y-63915390D01*
X57063700Y-64074140D01*
X57813000Y-64074140D01*
X57813000Y-62824460D01*
X57654250Y-62665710D01*
X57413641Y-62665710D01*
X57278612Y-62721641D01*
X57408157Y-62527765D01*
X57457440Y-62280000D01*
X57457440Y-62087860D01*
X57842510Y-62087860D01*
X57842510Y-62099290D01*
X57891793Y-62347055D01*
X58032141Y-62557099D01*
X58213308Y-62678152D01*
X58067000Y-62824460D01*
X58067000Y-64074140D01*
X58087000Y-64074140D01*
X58087000Y-64328140D01*
X58067000Y-64328140D01*
X58067000Y-65577820D01*
X58225750Y-65736570D01*
X58466359Y-65736570D01*
X58699748Y-65639897D01*
X58878377Y-65461269D01*
X58892999Y-65425969D01*
X58982141Y-65559379D01*
X59192185Y-65699727D01*
X59439950Y-65749010D01*
X60240050Y-65749010D01*
X60487815Y-65699727D01*
X60697859Y-65559379D01*
X60838207Y-65349335D01*
X60887490Y-65101570D01*
X60887490Y-64859000D01*
X61600318Y-64859000D01*
X61641843Y-65067765D01*
X61782191Y-65277809D01*
X61992235Y-65418157D01*
X62240000Y-65467440D01*
X62485324Y-65467440D01*
X62071382Y-65881382D01*
X61878671Y-66169794D01*
X61850294Y-66312455D01*
X61700000Y-66282560D01*
X59700000Y-66282560D01*
X59452235Y-66331843D01*
X59242191Y-66472191D01*
X59101843Y-66682235D01*
X59052560Y-66930000D01*
X59052560Y-68630000D01*
X59101843Y-68877765D01*
X59242191Y-69087809D01*
X59452235Y-69228157D01*
X59700000Y-69277440D01*
X59811000Y-69277440D01*
X59811000Y-69592510D01*
X59490710Y-69592510D01*
X59242945Y-69641793D01*
X59032901Y-69782141D01*
X58892553Y-69992185D01*
X58843270Y-70239950D01*
X58843270Y-70876070D01*
X58747099Y-70732141D01*
X58537055Y-70591793D01*
X58289290Y-70542510D01*
X56488430Y-70542510D01*
X56240665Y-70591793D01*
X56030621Y-70732141D01*
X55890273Y-70942185D01*
X55840990Y-71189950D01*
X55840990Y-71990050D01*
X55890273Y-72237815D01*
X56030621Y-72447859D01*
X56191000Y-72555022D01*
X56191000Y-73902560D01*
X56080000Y-73902560D01*
X56009000Y-73916683D01*
X56009000Y-72798400D01*
X55941329Y-72458194D01*
X55748618Y-72169782D01*
X54087870Y-70509034D01*
X54087870Y-69521170D01*
X54038587Y-69273405D01*
X53898239Y-69063361D01*
X53688195Y-68923013D01*
X53440430Y-68873730D01*
X53429000Y-68873730D01*
X53429000Y-67956270D01*
X53440430Y-67956270D01*
X53688195Y-67906987D01*
X53898239Y-67766639D01*
X54038587Y-67556595D01*
X54087870Y-67308830D01*
X54087870Y-65711170D01*
X54038587Y-65463405D01*
X53898239Y-65253361D01*
X53688195Y-65113013D01*
X53573203Y-65090140D01*
X53688195Y-65067267D01*
X53898239Y-64926919D01*
X54038587Y-64716875D01*
X54084333Y-64486890D01*
X56904950Y-64486890D01*
X56904950Y-65227880D01*
X57001623Y-65461269D01*
X57180252Y-65639897D01*
X57413641Y-65736570D01*
X57654250Y-65736570D01*
X57813000Y-65577820D01*
X57813000Y-64328140D01*
X57063700Y-64328140D01*
X56904950Y-64486890D01*
X54084333Y-64486890D01*
X54087870Y-64469110D01*
X54087870Y-62871450D01*
X54038587Y-62623685D01*
X53898239Y-62413641D01*
X53688195Y-62273293D01*
X53457440Y-62227393D01*
X53457440Y-60580000D01*
X53408157Y-60332235D01*
X53267809Y-60122191D01*
X53057765Y-59981843D01*
X52810000Y-59932560D01*
X50810000Y-59932560D01*
X50710000Y-59952451D01*
X50710000Y-56521834D01*
X52364543Y-56521834D01*
X52764853Y-57490658D01*
X53505443Y-58232542D01*
X54473567Y-58634542D01*
X55521834Y-58635457D01*
X56490658Y-58235147D01*
X57232542Y-57494557D01*
X57634542Y-56526433D01*
X57635457Y-55478166D01*
X57235147Y-54509342D01*
X56494557Y-53767458D01*
X55526433Y-53365458D01*
X54478166Y-53364543D01*
X53509342Y-53764853D01*
X52767458Y-54505443D01*
X52365458Y-55473567D01*
X52364543Y-56521834D01*
X50710000Y-56521834D01*
X50710000Y-50710000D01*
X65630723Y-50710000D01*
X65526511Y-50730729D01*
G36*
X89497000Y-70193000D02*
X89517000Y-70193000D01*
X89517000Y-70447000D01*
X89497000Y-70447000D01*
X89497000Y-71571250D01*
X89655750Y-71730000D01*
X89796310Y-71730000D01*
X90029699Y-71633327D01*
X90208327Y-71454698D01*
X90219153Y-71428562D01*
X90219153Y-72970981D01*
X90114554Y-72866382D01*
X90105003Y-72860000D01*
X89826142Y-72673671D01*
X89485936Y-72606000D01*
X88950198Y-72606000D01*
X88950198Y-71730000D01*
X89084250Y-71730000D01*
X89243000Y-71571250D01*
X89243000Y-70447000D01*
X89223000Y-70447000D01*
X89223000Y-70193000D01*
X89243000Y-70193000D01*
X89243000Y-70173000D01*
X89497000Y-70173000D01*
X89497000Y-70193000D01*
X89497000Y-70193000D01*
G37*
X89497000Y-70193000D02*
X89517000Y-70193000D01*
X89517000Y-70447000D01*
X89497000Y-70447000D01*
X89497000Y-71571250D01*
X89655750Y-71730000D01*
X89796310Y-71730000D01*
X90029699Y-71633327D01*
X90208327Y-71454698D01*
X90219153Y-71428562D01*
X90219153Y-72970981D01*
X90114554Y-72866382D01*
X90105003Y-72860000D01*
X89826142Y-72673671D01*
X89485936Y-72606000D01*
X88950198Y-72606000D01*
X88950198Y-71730000D01*
X89084250Y-71730000D01*
X89243000Y-71571250D01*
X89243000Y-70447000D01*
X89223000Y-70447000D01*
X89223000Y-70193000D01*
X89243000Y-70193000D01*
X89243000Y-70173000D01*
X89497000Y-70173000D01*
X89497000Y-70193000D01*
G36*
X99290000Y-62830095D02*
X99177809Y-62662191D01*
X98967765Y-62521843D01*
X98720000Y-62472560D01*
X96720000Y-62472560D01*
X96472235Y-62521843D01*
X96262191Y-62662191D01*
X96121843Y-62872235D01*
X96072560Y-63120000D01*
X96072560Y-64210204D01*
X95792963Y-64489801D01*
X95355000Y-64489801D01*
X95355000Y-64255750D01*
X95196250Y-64097000D01*
X93847000Y-64097000D01*
X93847000Y-64117000D01*
X93593000Y-64117000D01*
X93593000Y-64097000D01*
X93573000Y-64097000D01*
X93573000Y-63843000D01*
X93593000Y-63843000D01*
X93593000Y-63823000D01*
X93847000Y-63823000D01*
X93847000Y-63843000D01*
X95196250Y-63843000D01*
X95355000Y-63684250D01*
X95355000Y-62993690D01*
X95258327Y-62760301D01*
X95079698Y-62581673D01*
X94846309Y-62485000D01*
X94242405Y-62485000D01*
X94275000Y-62406310D01*
X94275000Y-61715750D01*
X94116250Y-61557000D01*
X92767000Y-61557000D01*
X92767000Y-61577000D01*
X92513000Y-61577000D01*
X92513000Y-61557000D01*
X92493000Y-61557000D01*
X92493000Y-61303000D01*
X92513000Y-61303000D01*
X92513000Y-60103750D01*
X92767000Y-60103750D01*
X92767000Y-61303000D01*
X94116250Y-61303000D01*
X94275000Y-61144250D01*
X94275000Y-60453690D01*
X94178327Y-60220301D01*
X93999698Y-60041673D01*
X93766309Y-59945000D01*
X92925750Y-59945000D01*
X92767000Y-60103750D01*
X92513000Y-60103750D01*
X92354250Y-59945000D01*
X91513691Y-59945000D01*
X91280302Y-60041673D01*
X91101673Y-60220301D01*
X91087801Y-60253791D01*
X91087801Y-60132959D01*
X91020130Y-59792753D01*
X90827419Y-59504341D01*
X90302656Y-58979578D01*
X90363298Y-59004759D01*
X90914285Y-59005240D01*
X91423515Y-58794831D01*
X91813461Y-58405564D01*
X92024759Y-57896702D01*
X92025240Y-57345715D01*
X91814831Y-56836485D01*
X91500728Y-56521834D01*
X92364543Y-56521834D01*
X92764853Y-57490658D01*
X93505443Y-58232542D01*
X94473567Y-58634542D01*
X95521834Y-58635457D01*
X96490658Y-58235147D01*
X97232542Y-57494557D01*
X97634542Y-56526433D01*
X97635457Y-55478166D01*
X97235147Y-54509342D01*
X96494557Y-53767458D01*
X95526433Y-53365458D01*
X94478166Y-53364543D01*
X93509342Y-53764853D01*
X92767458Y-54505443D01*
X92365458Y-55473567D01*
X92364543Y-56521834D01*
X91500728Y-56521834D01*
X91425564Y-56446539D01*
X90916702Y-56235241D01*
X90477440Y-56234858D01*
X90477440Y-55500000D01*
X90428157Y-55252235D01*
X90287809Y-55042191D01*
X90077765Y-54901843D01*
X89830000Y-54852560D01*
X87830000Y-54852560D01*
X87582235Y-54901843D01*
X87372191Y-55042191D01*
X87231843Y-55252235D01*
X87182560Y-55500000D01*
X87182560Y-57200000D01*
X87231843Y-57447765D01*
X87372191Y-57657809D01*
X87582235Y-57798157D01*
X87830000Y-57847440D01*
X89070204Y-57847440D01*
X89290290Y-58067526D01*
X88955842Y-58001000D01*
X82764634Y-58001000D01*
X82849395Y-57984140D01*
X83137807Y-57791429D01*
X83331830Y-57597406D01*
X83372191Y-57657809D01*
X83582235Y-57798157D01*
X83830000Y-57847440D01*
X85830000Y-57847440D01*
X86077765Y-57798157D01*
X86287809Y-57657809D01*
X86428157Y-57447765D01*
X86477440Y-57200000D01*
X86477440Y-55500000D01*
X86428157Y-55252235D01*
X86287809Y-55042191D01*
X86077765Y-54901843D01*
X85830000Y-54852560D01*
X85719000Y-54852560D01*
X85719000Y-53250000D01*
X85651329Y-52909794D01*
X85458618Y-52621382D01*
X85391040Y-52553804D01*
X85391040Y-51284000D01*
X85341757Y-51036235D01*
X85201409Y-50826191D01*
X85027518Y-50710000D01*
X99290000Y-50710000D01*
X99290000Y-62830095D01*
X99290000Y-62830095D01*
G37*
X99290000Y-62830095D02*
X99177809Y-62662191D01*
X98967765Y-62521843D01*
X98720000Y-62472560D01*
X96720000Y-62472560D01*
X96472235Y-62521843D01*
X96262191Y-62662191D01*
X96121843Y-62872235D01*
X96072560Y-63120000D01*
X96072560Y-64210204D01*
X95792963Y-64489801D01*
X95355000Y-64489801D01*
X95355000Y-64255750D01*
X95196250Y-64097000D01*
X93847000Y-64097000D01*
X93847000Y-64117000D01*
X93593000Y-64117000D01*
X93593000Y-64097000D01*
X93573000Y-64097000D01*
X93573000Y-63843000D01*
X93593000Y-63843000D01*
X93593000Y-63823000D01*
X93847000Y-63823000D01*
X93847000Y-63843000D01*
X95196250Y-63843000D01*
X95355000Y-63684250D01*
X95355000Y-62993690D01*
X95258327Y-62760301D01*
X95079698Y-62581673D01*
X94846309Y-62485000D01*
X94242405Y-62485000D01*
X94275000Y-62406310D01*
X94275000Y-61715750D01*
X94116250Y-61557000D01*
X92767000Y-61557000D01*
X92767000Y-61577000D01*
X92513000Y-61577000D01*
X92513000Y-61557000D01*
X92493000Y-61557000D01*
X92493000Y-61303000D01*
X92513000Y-61303000D01*
X92513000Y-60103750D01*
X92767000Y-60103750D01*
X92767000Y-61303000D01*
X94116250Y-61303000D01*
X94275000Y-61144250D01*
X94275000Y-60453690D01*
X94178327Y-60220301D01*
X93999698Y-60041673D01*
X93766309Y-59945000D01*
X92925750Y-59945000D01*
X92767000Y-60103750D01*
X92513000Y-60103750D01*
X92354250Y-59945000D01*
X91513691Y-59945000D01*
X91280302Y-60041673D01*
X91101673Y-60220301D01*
X91087801Y-60253791D01*
X91087801Y-60132959D01*
X91020130Y-59792753D01*
X90827419Y-59504341D01*
X90302656Y-58979578D01*
X90363298Y-59004759D01*
X90914285Y-59005240D01*
X91423515Y-58794831D01*
X91813461Y-58405564D01*
X92024759Y-57896702D01*
X92025240Y-57345715D01*
X91814831Y-56836485D01*
X91500728Y-56521834D01*
X92364543Y-56521834D01*
X92764853Y-57490658D01*
X93505443Y-58232542D01*
X94473567Y-58634542D01*
X95521834Y-58635457D01*
X96490658Y-58235147D01*
X97232542Y-57494557D01*
X97634542Y-56526433D01*
X97635457Y-55478166D01*
X97235147Y-54509342D01*
X96494557Y-53767458D01*
X95526433Y-53365458D01*
X94478166Y-53364543D01*
X93509342Y-53764853D01*
X92767458Y-54505443D01*
X92365458Y-55473567D01*
X92364543Y-56521834D01*
X91500728Y-56521834D01*
X91425564Y-56446539D01*
X90916702Y-56235241D01*
X90477440Y-56234858D01*
X90477440Y-55500000D01*
X90428157Y-55252235D01*
X90287809Y-55042191D01*
X90077765Y-54901843D01*
X89830000Y-54852560D01*
X87830000Y-54852560D01*
X87582235Y-54901843D01*
X87372191Y-55042191D01*
X87231843Y-55252235D01*
X87182560Y-55500000D01*
X87182560Y-57200000D01*
X87231843Y-57447765D01*
X87372191Y-57657809D01*
X87582235Y-57798157D01*
X87830000Y-57847440D01*
X89070204Y-57847440D01*
X89290290Y-58067526D01*
X88955842Y-58001000D01*
X82764634Y-58001000D01*
X82849395Y-57984140D01*
X83137807Y-57791429D01*
X83331830Y-57597406D01*
X83372191Y-57657809D01*
X83582235Y-57798157D01*
X83830000Y-57847440D01*
X85830000Y-57847440D01*
X86077765Y-57798157D01*
X86287809Y-57657809D01*
X86428157Y-57447765D01*
X86477440Y-57200000D01*
X86477440Y-55500000D01*
X86428157Y-55252235D01*
X86287809Y-55042191D01*
X86077765Y-54901843D01*
X85830000Y-54852560D01*
X85719000Y-54852560D01*
X85719000Y-53250000D01*
X85651329Y-52909794D01*
X85458618Y-52621382D01*
X85391040Y-52553804D01*
X85391040Y-51284000D01*
X85341757Y-51036235D01*
X85201409Y-50826191D01*
X85027518Y-50710000D01*
X99290000Y-50710000D01*
X99290000Y-62830095D01*
G36*
X72660330Y-53544415D02*
X73146511Y-53869271D01*
X73720000Y-53983345D01*
X73879774Y-53951564D01*
X73806527Y-54000506D01*
X72563142Y-55243892D01*
X72526250Y-55207000D01*
X71177000Y-55207000D01*
X71177000Y-55227000D01*
X70923000Y-55227000D01*
X70923000Y-55207000D01*
X70903000Y-55207000D01*
X70903000Y-54953000D01*
X70923000Y-54953000D01*
X70923000Y-54933000D01*
X71177000Y-54933000D01*
X71177000Y-54953000D01*
X72526250Y-54953000D01*
X72685000Y-54794250D01*
X72685000Y-54153690D01*
X72588327Y-53920301D01*
X72409698Y-53741673D01*
X72176309Y-53645000D01*
X72087157Y-53645000D01*
X72453539Y-53234931D01*
X72660330Y-53544415D01*
X72660330Y-53544415D01*
G37*
X72660330Y-53544415D02*
X73146511Y-53869271D01*
X73720000Y-53983345D01*
X73879774Y-53951564D01*
X73806527Y-54000506D01*
X72563142Y-55243892D01*
X72526250Y-55207000D01*
X71177000Y-55207000D01*
X71177000Y-55227000D01*
X70923000Y-55227000D01*
X70923000Y-55207000D01*
X70903000Y-55207000D01*
X70903000Y-54953000D01*
X70923000Y-54953000D01*
X70923000Y-54933000D01*
X71177000Y-54933000D01*
X71177000Y-54953000D01*
X72526250Y-54953000D01*
X72685000Y-54794250D01*
X72685000Y-54153690D01*
X72588327Y-53920301D01*
X72409698Y-53741673D01*
X72176309Y-53645000D01*
X72087157Y-53645000D01*
X72453539Y-53234931D01*
X72660330Y-53544415D01*
G36*
X71307000Y-52173000D02*
X71327000Y-52173000D01*
X71327000Y-52427000D01*
X71307000Y-52427000D01*
X71307000Y-52447000D01*
X71053000Y-52447000D01*
X71053000Y-52427000D01*
X71033000Y-52427000D01*
X71033000Y-52173000D01*
X71053000Y-52173000D01*
X71053000Y-52153000D01*
X71307000Y-52153000D01*
X71307000Y-52173000D01*
X71307000Y-52173000D01*
G37*
X71307000Y-52173000D02*
X71327000Y-52173000D01*
X71327000Y-52427000D01*
X71307000Y-52427000D01*
X71307000Y-52447000D01*
X71053000Y-52447000D01*
X71053000Y-52427000D01*
X71033000Y-52427000D01*
X71033000Y-52173000D01*
X71053000Y-52173000D01*
X71053000Y-52153000D01*
X71307000Y-52153000D01*
X71307000Y-52173000D01*
M02*
