M48
;DRILL file {KiCad (2017-05-18 revision 2a3a699)-master} date Tue May 23 18:31:35 2017
;FORMAT={-:-/ absolute / inch / decimal}
FMAT,2
INCH,TZ
T1C0.031
T2C0.032
T3C0.039
T4C0.157
T5C0.433
%
G90
G05
M72
T1
X2.2185Y-2.6685
X2.3685Y-2.9185
X2.7935Y-3.1685
X2.8685Y-2.4435
X2.9685Y-2.5685
X2.9685Y-2.2343
X3.0685Y-2.4685
X3.1685Y-2.87
X3.1935Y-3.2935
X3.2435Y-3.2185
X3.3193Y-2.9658
X3.32Y-3.5185
X3.3685Y-3.7935
X3.5185Y-2.8185
X3.5685Y-2.2685
X3.6385Y-2.8712
X3.7685Y-2.4185
X2.5201Y-3.4685
X2.5201Y-3.6654
X2.6185Y-3.4685
X2.6185Y-3.6654
X3.4201Y-2.9717
X3.4201Y-3.1685
X3.5185Y-2.9717
X3.5185Y-3.1685
X2.6185Y-2.8898
X2.6185Y-2.9685
X2.1701Y-3.4185
X2.2685Y-3.4185
X2.5185Y-2.4185
X2.6169Y-2.4185
T2
X2.8763Y-2.9685
X3.0685Y-2.9685
T3
X3.7185Y-2.6685
X3.7185Y-2.7685
X3.7185Y-2.8685
X3.7185Y-3.0685
X3.8185Y-2.6685
X3.8185Y-2.7685
X3.8185Y-2.8685
X3.8185Y-2.9685
X3.8185Y-3.0685
X2.6024Y-2.0591
X2.7024Y-2.0591
X2.8024Y-2.0591
X2.9024Y-2.0591
X3.0024Y-2.0591
X3.1024Y-2.0591
X3.2024Y-2.0591
X3.3024Y-2.0591
T4
X2.1654Y-3.7402
X3.7402Y-2.2047
X3.7402Y-3.7402
X2.1654Y-2.2047
T5
X2.9685Y-3.4685
T0
M30
