G04 #@! TF.GenerationSoftware,KiCad,Pcbnew,(2017-05-18 revision 2a3a699)-master*
G04 #@! TF.CreationDate,2017-05-23T18:31:29+02:00*
G04 #@! TF.ProjectId,reader,7265616465722E6B696361645F706362,rev?*
G04 #@! TF.FileFunction,Legend,Top*
G04 #@! TF.FilePolarity,Positive*
%FSLAX46Y46*%
G04 Gerber Fmt 4.6, Leading zero omitted, Abs format (unit mm)*
G04 Created by KiCad (PCBNEW (2017-05-18 revision 2a3a699)-master) date Tue May 23 18:31:29 2017*
%MOMM*%
%LPD*%
G01*
G04 APERTURE LIST*
%ADD10C,0.385000*%
%ADD11C,0.150000*%
%ADD12C,0.300000*%
G04 APERTURE END LIST*
D10*
D11*
X76697380Y-58461190D02*
X76697380Y-57842142D01*
X77078333Y-58175476D01*
X77078333Y-58032619D01*
X77125952Y-57937380D01*
X77173571Y-57889761D01*
X77268809Y-57842142D01*
X77506904Y-57842142D01*
X77602142Y-57889761D01*
X77649761Y-57937380D01*
X77697380Y-58032619D01*
X77697380Y-58318333D01*
X77649761Y-58413571D01*
X77602142Y-58461190D01*
X77602142Y-57413571D02*
X77649761Y-57365952D01*
X77697380Y-57413571D01*
X77649761Y-57461190D01*
X77602142Y-57413571D01*
X77697380Y-57413571D01*
X76697380Y-57032619D02*
X76697380Y-56413571D01*
X77078333Y-56746904D01*
X77078333Y-56604047D01*
X77125952Y-56508809D01*
X77173571Y-56461190D01*
X77268809Y-56413571D01*
X77506904Y-56413571D01*
X77602142Y-56461190D01*
X77649761Y-56508809D01*
X77697380Y-56604047D01*
X77697380Y-56889761D01*
X77649761Y-56985000D01*
X77602142Y-57032619D01*
X76697380Y-56127857D02*
X77697380Y-55794523D01*
X76697380Y-55461190D01*
X79347380Y-58437380D02*
X78871190Y-58770714D01*
X79347380Y-59008809D02*
X78347380Y-59008809D01*
X78347380Y-58627857D01*
X78395000Y-58532619D01*
X78442619Y-58485000D01*
X78537857Y-58437380D01*
X78680714Y-58437380D01*
X78775952Y-58485000D01*
X78823571Y-58532619D01*
X78871190Y-58627857D01*
X78871190Y-59008809D01*
X78823571Y-58008809D02*
X78823571Y-57675476D01*
X79347380Y-57532619D02*
X79347380Y-58008809D01*
X78347380Y-58008809D01*
X78347380Y-57532619D01*
X79299761Y-57151666D02*
X79347380Y-57008809D01*
X79347380Y-56770714D01*
X79299761Y-56675476D01*
X79252142Y-56627857D01*
X79156904Y-56580238D01*
X79061666Y-56580238D01*
X78966428Y-56627857D01*
X78918809Y-56675476D01*
X78871190Y-56770714D01*
X78823571Y-56961190D01*
X78775952Y-57056428D01*
X78728333Y-57104047D01*
X78633095Y-57151666D01*
X78537857Y-57151666D01*
X78442619Y-57104047D01*
X78395000Y-57056428D01*
X78347380Y-56961190D01*
X78347380Y-56723095D01*
X78395000Y-56580238D01*
X78823571Y-56151666D02*
X78823571Y-55818333D01*
X79347380Y-55675476D02*
X79347380Y-56151666D01*
X78347380Y-56151666D01*
X78347380Y-55675476D01*
X78347380Y-55389761D02*
X78347380Y-54818333D01*
X79347380Y-55104047D02*
X78347380Y-55104047D01*
X80045000Y-57746904D02*
X79997380Y-57842142D01*
X79997380Y-57985000D01*
X80045000Y-58127857D01*
X80140238Y-58223095D01*
X80235476Y-58270714D01*
X80425952Y-58318333D01*
X80568809Y-58318333D01*
X80759285Y-58270714D01*
X80854523Y-58223095D01*
X80949761Y-58127857D01*
X80997380Y-57985000D01*
X80997380Y-57889761D01*
X80949761Y-57746904D01*
X80902142Y-57699285D01*
X80568809Y-57699285D01*
X80568809Y-57889761D01*
X80997380Y-57270714D02*
X79997380Y-57270714D01*
X80997380Y-56699285D01*
X79997380Y-56699285D01*
X80997380Y-56223095D02*
X79997380Y-56223095D01*
X79997380Y-55985000D01*
X80045000Y-55842142D01*
X80140238Y-55746904D01*
X80235476Y-55699285D01*
X80425952Y-55651666D01*
X80568809Y-55651666D01*
X80759285Y-55699285D01*
X80854523Y-55746904D01*
X80949761Y-55842142D01*
X80997380Y-55985000D01*
X80997380Y-56223095D01*
X82647380Y-58008809D02*
X81647380Y-58008809D01*
X82647380Y-56961190D02*
X82171190Y-57294523D01*
X82647380Y-57532619D02*
X81647380Y-57532619D01*
X81647380Y-57151666D01*
X81695000Y-57056428D01*
X81742619Y-57008809D01*
X81837857Y-56961190D01*
X81980714Y-56961190D01*
X82075952Y-57008809D01*
X82123571Y-57056428D01*
X82171190Y-57151666D01*
X82171190Y-57532619D01*
X82742619Y-55865952D02*
X82695000Y-55961190D01*
X82599761Y-56056428D01*
X82456904Y-56199285D01*
X82409285Y-56294523D01*
X82409285Y-56389761D01*
X82647380Y-56342142D02*
X82599761Y-56437380D01*
X82504523Y-56532619D01*
X82314047Y-56580238D01*
X81980714Y-56580238D01*
X81790238Y-56532619D01*
X81695000Y-56437380D01*
X81647380Y-56342142D01*
X81647380Y-56151666D01*
X81695000Y-56056428D01*
X81790238Y-55961190D01*
X81980714Y-55913571D01*
X82314047Y-55913571D01*
X82504523Y-55961190D01*
X82599761Y-56056428D01*
X82647380Y-56151666D01*
X82647380Y-56342142D01*
X84297380Y-58556428D02*
X83297380Y-58556428D01*
X84011666Y-58223095D01*
X83297380Y-57889761D01*
X84297380Y-57889761D01*
X84297380Y-57413571D02*
X83297380Y-57413571D01*
X84249761Y-56985000D02*
X84297380Y-56842142D01*
X84297380Y-56604047D01*
X84249761Y-56508809D01*
X84202142Y-56461190D01*
X84106904Y-56413571D01*
X84011666Y-56413571D01*
X83916428Y-56461190D01*
X83868809Y-56508809D01*
X83821190Y-56604047D01*
X83773571Y-56794523D01*
X83725952Y-56889761D01*
X83678333Y-56937380D01*
X83583095Y-56985000D01*
X83487857Y-56985000D01*
X83392619Y-56937380D01*
X83345000Y-56889761D01*
X83297380Y-56794523D01*
X83297380Y-56556428D01*
X83345000Y-56413571D01*
X83297380Y-55794523D02*
X83297380Y-55604047D01*
X83345000Y-55508809D01*
X83440238Y-55413571D01*
X83630714Y-55365952D01*
X83964047Y-55365952D01*
X84154523Y-55413571D01*
X84249761Y-55508809D01*
X84297380Y-55604047D01*
X84297380Y-55794523D01*
X84249761Y-55889761D01*
X84154523Y-55985000D01*
X83964047Y-56032619D01*
X83630714Y-56032619D01*
X83440238Y-55985000D01*
X83345000Y-55889761D01*
X83297380Y-55794523D01*
X85947380Y-58556428D02*
X84947380Y-58556428D01*
X85661666Y-58223095D01*
X84947380Y-57889761D01*
X85947380Y-57889761D01*
X84947380Y-57223095D02*
X84947380Y-57032619D01*
X84995000Y-56937380D01*
X85090238Y-56842142D01*
X85280714Y-56794523D01*
X85614047Y-56794523D01*
X85804523Y-56842142D01*
X85899761Y-56937380D01*
X85947380Y-57032619D01*
X85947380Y-57223095D01*
X85899761Y-57318333D01*
X85804523Y-57413571D01*
X85614047Y-57461190D01*
X85280714Y-57461190D01*
X85090238Y-57413571D01*
X84995000Y-57318333D01*
X84947380Y-57223095D01*
X85899761Y-56413571D02*
X85947380Y-56270714D01*
X85947380Y-56032619D01*
X85899761Y-55937380D01*
X85852142Y-55889761D01*
X85756904Y-55842142D01*
X85661666Y-55842142D01*
X85566428Y-55889761D01*
X85518809Y-55937380D01*
X85471190Y-56032619D01*
X85423571Y-56223095D01*
X85375952Y-56318333D01*
X85328333Y-56365952D01*
X85233095Y-56413571D01*
X85137857Y-56413571D01*
X85042619Y-56365952D01*
X84995000Y-56318333D01*
X84947380Y-56223095D01*
X84947380Y-55985000D01*
X84995000Y-55842142D01*
X85947380Y-55413571D02*
X84947380Y-55413571D01*
X87549761Y-58270714D02*
X87597380Y-58127857D01*
X87597380Y-57889761D01*
X87549761Y-57794523D01*
X87502142Y-57746904D01*
X87406904Y-57699285D01*
X87311666Y-57699285D01*
X87216428Y-57746904D01*
X87168809Y-57794523D01*
X87121190Y-57889761D01*
X87073571Y-58080238D01*
X87025952Y-58175476D01*
X86978333Y-58223095D01*
X86883095Y-58270714D01*
X86787857Y-58270714D01*
X86692619Y-58223095D01*
X86645000Y-58175476D01*
X86597380Y-58080238D01*
X86597380Y-57842142D01*
X86645000Y-57699285D01*
X87502142Y-56699285D02*
X87549761Y-56746904D01*
X87597380Y-56889761D01*
X87597380Y-56985000D01*
X87549761Y-57127857D01*
X87454523Y-57223095D01*
X87359285Y-57270714D01*
X87168809Y-57318333D01*
X87025952Y-57318333D01*
X86835476Y-57270714D01*
X86740238Y-57223095D01*
X86645000Y-57127857D01*
X86597380Y-56985000D01*
X86597380Y-56889761D01*
X86645000Y-56746904D01*
X86692619Y-56699285D01*
X87597380Y-56270714D02*
X86597380Y-56270714D01*
X87597380Y-55699285D02*
X87025952Y-56127857D01*
X86597380Y-55699285D02*
X87168809Y-56270714D01*
X89152142Y-57151666D02*
X89199761Y-57199285D01*
X89247380Y-57342142D01*
X89247380Y-57437380D01*
X89199761Y-57580238D01*
X89104523Y-57675476D01*
X89009285Y-57723095D01*
X88818809Y-57770714D01*
X88675952Y-57770714D01*
X88485476Y-57723095D01*
X88390238Y-57675476D01*
X88295000Y-57580238D01*
X88247380Y-57437380D01*
X88247380Y-57342142D01*
X88295000Y-57199285D01*
X88342619Y-57151666D01*
X89199761Y-56770714D02*
X89247380Y-56627857D01*
X89247380Y-56389761D01*
X89199761Y-56294523D01*
X89152142Y-56246904D01*
X89056904Y-56199285D01*
X88961666Y-56199285D01*
X88866428Y-56246904D01*
X88818809Y-56294523D01*
X88771190Y-56389761D01*
X88723571Y-56580238D01*
X88675952Y-56675476D01*
X88628333Y-56723095D01*
X88533095Y-56770714D01*
X88437857Y-56770714D01*
X88342619Y-56723095D01*
X88295000Y-56675476D01*
X88247380Y-56580238D01*
X88247380Y-56342142D01*
X88295000Y-56199285D01*
D12*
X93955714Y-65766190D02*
X94141428Y-65828095D01*
X94450952Y-65828095D01*
X94574761Y-65766190D01*
X94636666Y-65704285D01*
X94698571Y-65580476D01*
X94698571Y-65456666D01*
X94636666Y-65332857D01*
X94574761Y-65270952D01*
X94450952Y-65209047D01*
X94203333Y-65147142D01*
X94079523Y-65085238D01*
X94017619Y-65023333D01*
X93955714Y-64899523D01*
X93955714Y-64775714D01*
X94017619Y-64651904D01*
X94079523Y-64590000D01*
X94203333Y-64528095D01*
X94512857Y-64528095D01*
X94698571Y-64590000D01*
X95131904Y-64528095D02*
X95441428Y-65828095D01*
X95689047Y-64899523D01*
X95936666Y-65828095D01*
X96246190Y-64528095D01*
X96741428Y-65828095D02*
X96741428Y-64528095D01*
X97050952Y-64528095D01*
X97236666Y-64590000D01*
X97360476Y-64713809D01*
X97422380Y-64837619D01*
X97484285Y-65085238D01*
X97484285Y-65270952D01*
X97422380Y-65518571D01*
X97360476Y-65642380D01*
X97236666Y-65766190D01*
X97050952Y-65828095D01*
X96741428Y-65828095D01*
X86165952Y-87191666D02*
X86785000Y-87191666D01*
X86042142Y-87563095D02*
X86475476Y-86263095D01*
X86908809Y-87563095D01*
X88642142Y-87996428D02*
X88642142Y-86139285D01*
X90994523Y-86882142D02*
X91180238Y-86944047D01*
X91242142Y-87005952D01*
X91304047Y-87129761D01*
X91304047Y-87315476D01*
X91242142Y-87439285D01*
X91180238Y-87501190D01*
X91056428Y-87563095D01*
X90561190Y-87563095D01*
X90561190Y-86263095D01*
X90994523Y-86263095D01*
X91118333Y-86325000D01*
X91180238Y-86386904D01*
X91242142Y-86510714D01*
X91242142Y-86634523D01*
X91180238Y-86758333D01*
X91118333Y-86820238D01*
X90994523Y-86882142D01*
X90561190Y-86882142D01*
X86661190Y-89813095D02*
X86227857Y-89194047D01*
X85918333Y-89813095D02*
X85918333Y-88513095D01*
X86413571Y-88513095D01*
X86537380Y-88575000D01*
X86599285Y-88636904D01*
X86661190Y-88760714D01*
X86661190Y-88946428D01*
X86599285Y-89070238D01*
X86537380Y-89132142D01*
X86413571Y-89194047D01*
X85918333Y-89194047D01*
X87156428Y-89751190D02*
X87342142Y-89813095D01*
X87651666Y-89813095D01*
X87775476Y-89751190D01*
X87837380Y-89689285D01*
X87899285Y-89565476D01*
X87899285Y-89441666D01*
X87837380Y-89317857D01*
X87775476Y-89255952D01*
X87651666Y-89194047D01*
X87404047Y-89132142D01*
X87280238Y-89070238D01*
X87218333Y-89008333D01*
X87156428Y-88884523D01*
X87156428Y-88760714D01*
X87218333Y-88636904D01*
X87280238Y-88575000D01*
X87404047Y-88513095D01*
X87713571Y-88513095D01*
X87899285Y-88575000D01*
X89013571Y-88946428D02*
X89013571Y-89813095D01*
X88704047Y-88451190D02*
X88394523Y-89379761D01*
X89199285Y-89379761D01*
X89880238Y-89070238D02*
X89756428Y-89008333D01*
X89694523Y-88946428D01*
X89632619Y-88822619D01*
X89632619Y-88760714D01*
X89694523Y-88636904D01*
X89756428Y-88575000D01*
X89880238Y-88513095D01*
X90127857Y-88513095D01*
X90251666Y-88575000D01*
X90313571Y-88636904D01*
X90375476Y-88760714D01*
X90375476Y-88822619D01*
X90313571Y-88946428D01*
X90251666Y-89008333D01*
X90127857Y-89070238D01*
X89880238Y-89070238D01*
X89756428Y-89132142D01*
X89694523Y-89194047D01*
X89632619Y-89317857D01*
X89632619Y-89565476D01*
X89694523Y-89689285D01*
X89756428Y-89751190D01*
X89880238Y-89813095D01*
X90127857Y-89813095D01*
X90251666Y-89751190D01*
X90313571Y-89689285D01*
X90375476Y-89565476D01*
X90375476Y-89317857D01*
X90313571Y-89194047D01*
X90251666Y-89132142D01*
X90127857Y-89070238D01*
X91551666Y-88513095D02*
X90932619Y-88513095D01*
X90870714Y-89132142D01*
X90932619Y-89070238D01*
X91056428Y-89008333D01*
X91365952Y-89008333D01*
X91489761Y-89070238D01*
X91551666Y-89132142D01*
X91613571Y-89255952D01*
X91613571Y-89565476D01*
X91551666Y-89689285D01*
X91489761Y-89751190D01*
X91365952Y-89813095D01*
X91056428Y-89813095D01*
X90932619Y-89751190D01*
X90870714Y-89689285D01*
X61045476Y-77863095D02*
X61788333Y-77863095D01*
X61416904Y-79163095D02*
X61416904Y-77863095D01*
X62159761Y-78791666D02*
X62778809Y-78791666D01*
X62035952Y-79163095D02*
X62469285Y-77863095D01*
X62902619Y-79163095D01*
X63335952Y-79163095D02*
X63335952Y-77863095D01*
X63769285Y-78791666D01*
X64202619Y-77863095D01*
X64202619Y-79163095D01*
X64821666Y-79163095D02*
X64821666Y-77863095D01*
X65316904Y-77863095D01*
X65440714Y-77925000D01*
X65502619Y-77986904D01*
X65564523Y-78110714D01*
X65564523Y-78296428D01*
X65502619Y-78420238D01*
X65440714Y-78482142D01*
X65316904Y-78544047D01*
X64821666Y-78544047D01*
X66121666Y-78482142D02*
X66555000Y-78482142D01*
X66740714Y-79163095D02*
X66121666Y-79163095D01*
X66121666Y-77863095D01*
X66740714Y-77863095D01*
X68040714Y-79163095D02*
X67607380Y-78544047D01*
X67297857Y-79163095D02*
X67297857Y-77863095D01*
X67793095Y-77863095D01*
X67916904Y-77925000D01*
X67978809Y-77986904D01*
X68040714Y-78110714D01*
X68040714Y-78296428D01*
X67978809Y-78420238D01*
X67916904Y-78482142D01*
X67793095Y-78544047D01*
X67297857Y-78544047D01*
X62036904Y-82943095D02*
X61417857Y-82943095D01*
X61355952Y-83562142D01*
X61417857Y-83500238D01*
X61541666Y-83438333D01*
X61851190Y-83438333D01*
X61975000Y-83500238D01*
X62036904Y-83562142D01*
X62098809Y-83685952D01*
X62098809Y-83995476D01*
X62036904Y-84119285D01*
X61975000Y-84181190D01*
X61851190Y-84243095D01*
X61541666Y-84243095D01*
X61417857Y-84181190D01*
X61355952Y-84119285D01*
X62470238Y-82943095D02*
X62903571Y-84243095D01*
X63336904Y-82943095D01*
X65070238Y-84676428D02*
X65070238Y-82819285D01*
X67670238Y-83005000D02*
X67546428Y-82943095D01*
X67360714Y-82943095D01*
X67175000Y-83005000D01*
X67051190Y-83128809D01*
X66989285Y-83252619D01*
X66927380Y-83500238D01*
X66927380Y-83685952D01*
X66989285Y-83933571D01*
X67051190Y-84057380D01*
X67175000Y-84181190D01*
X67360714Y-84243095D01*
X67484523Y-84243095D01*
X67670238Y-84181190D01*
X67732142Y-84119285D01*
X67732142Y-83685952D01*
X67484523Y-83685952D01*
X68289285Y-84243095D02*
X68289285Y-82943095D01*
X69032142Y-84243095D01*
X69032142Y-82943095D01*
X69651190Y-84243095D02*
X69651190Y-82943095D01*
X69960714Y-82943095D01*
X70146428Y-83005000D01*
X70270238Y-83128809D01*
X70332142Y-83252619D01*
X70394047Y-83500238D01*
X70394047Y-83685952D01*
X70332142Y-83933571D01*
X70270238Y-84057380D01*
X70146428Y-84181190D01*
X69960714Y-84243095D01*
X69651190Y-84243095D01*
X66578571Y-68518333D02*
X66516666Y-68456428D01*
X66392857Y-68270714D01*
X66330952Y-68146904D01*
X66269047Y-67961190D01*
X66207142Y-67651666D01*
X66207142Y-67404047D01*
X66269047Y-67094523D01*
X66330952Y-66908809D01*
X66392857Y-66785000D01*
X66516666Y-66599285D01*
X66578571Y-66537380D01*
X67630952Y-67961190D02*
X67507142Y-68023095D01*
X67259523Y-68023095D01*
X67135714Y-67961190D01*
X67073809Y-67899285D01*
X67011904Y-67775476D01*
X67011904Y-67404047D01*
X67073809Y-67280238D01*
X67135714Y-67218333D01*
X67259523Y-67156428D01*
X67507142Y-67156428D01*
X67630952Y-67218333D01*
X68064285Y-68518333D02*
X68126190Y-68456428D01*
X68250000Y-68270714D01*
X68311904Y-68146904D01*
X68373809Y-67961190D01*
X68435714Y-67651666D01*
X68435714Y-67404047D01*
X68373809Y-67094523D01*
X68311904Y-66908809D01*
X68250000Y-66785000D01*
X68126190Y-66599285D01*
X68064285Y-66537380D01*
X70292857Y-66723095D02*
X70540476Y-66723095D01*
X70664285Y-66785000D01*
X70788095Y-66908809D01*
X70850000Y-67156428D01*
X70850000Y-67589761D01*
X70788095Y-67837380D01*
X70664285Y-67961190D01*
X70540476Y-68023095D01*
X70292857Y-68023095D01*
X70169047Y-67961190D01*
X70045238Y-67837380D01*
X69983333Y-67589761D01*
X69983333Y-67156428D01*
X70045238Y-66908809D01*
X70169047Y-66785000D01*
X70292857Y-66723095D01*
X71407142Y-68023095D02*
X71407142Y-66723095D01*
X72150000Y-68023095D02*
X71592857Y-67280238D01*
X72150000Y-66723095D02*
X71407142Y-67465952D01*
X72583333Y-66723095D02*
X73450000Y-66723095D01*
X72892857Y-68023095D01*
X73945238Y-68023095D02*
X73945238Y-66723095D01*
X74378571Y-67651666D01*
X74811904Y-66723095D01*
X74811904Y-68023095D01*
X75369047Y-67961190D02*
X75554761Y-68023095D01*
X75864285Y-68023095D01*
X75988095Y-67961190D01*
X76050000Y-67899285D01*
X76111904Y-67775476D01*
X76111904Y-67651666D01*
X76050000Y-67527857D01*
X75988095Y-67465952D01*
X75864285Y-67404047D01*
X75616666Y-67342142D01*
X75492857Y-67280238D01*
X75430952Y-67218333D01*
X75369047Y-67094523D01*
X75369047Y-66970714D01*
X75430952Y-66846904D01*
X75492857Y-66785000D01*
X75616666Y-66723095D01*
X75926190Y-66723095D01*
X76111904Y-66785000D01*
X77597619Y-66846904D02*
X77659523Y-66785000D01*
X77783333Y-66723095D01*
X78092857Y-66723095D01*
X78216666Y-66785000D01*
X78278571Y-66846904D01*
X78340476Y-66970714D01*
X78340476Y-67094523D01*
X78278571Y-67280238D01*
X77535714Y-68023095D01*
X78340476Y-68023095D01*
X79145238Y-66723095D02*
X79269047Y-66723095D01*
X79392857Y-66785000D01*
X79454761Y-66846904D01*
X79516666Y-66970714D01*
X79578571Y-67218333D01*
X79578571Y-67527857D01*
X79516666Y-67775476D01*
X79454761Y-67899285D01*
X79392857Y-67961190D01*
X79269047Y-68023095D01*
X79145238Y-68023095D01*
X79021428Y-67961190D01*
X78959523Y-67899285D01*
X78897619Y-67775476D01*
X78835714Y-67527857D01*
X78835714Y-67218333D01*
X78897619Y-66970714D01*
X78959523Y-66846904D01*
X79021428Y-66785000D01*
X79145238Y-66723095D01*
X80816666Y-68023095D02*
X80073809Y-68023095D01*
X80445238Y-68023095D02*
X80445238Y-66723095D01*
X80321428Y-66908809D01*
X80197619Y-67032619D01*
X80073809Y-67094523D01*
X81250000Y-66723095D02*
X82116666Y-66723095D01*
X81559523Y-68023095D01*
X83540476Y-66661190D02*
X82426190Y-68332619D01*
X84592857Y-66723095D02*
X83973809Y-66723095D01*
X83911904Y-67342142D01*
X83973809Y-67280238D01*
X84097619Y-67218333D01*
X84407142Y-67218333D01*
X84530952Y-67280238D01*
X84592857Y-67342142D01*
X84654761Y-67465952D01*
X84654761Y-67775476D01*
X84592857Y-67899285D01*
X84530952Y-67961190D01*
X84407142Y-68023095D01*
X84097619Y-68023095D01*
X83973809Y-67961190D01*
X83911904Y-67899285D01*
X65092857Y-70273095D02*
X65092857Y-68973095D01*
X65526190Y-69901666D01*
X65959523Y-68973095D01*
X65959523Y-70273095D01*
X67011904Y-69592142D02*
X66578571Y-69592142D01*
X66578571Y-70273095D02*
X66578571Y-68973095D01*
X67197619Y-68973095D01*
X68435714Y-70273095D02*
X68002380Y-69654047D01*
X67692857Y-70273095D02*
X67692857Y-68973095D01*
X68188095Y-68973095D01*
X68311904Y-69035000D01*
X68373809Y-69096904D01*
X68435714Y-69220714D01*
X68435714Y-69406428D01*
X68373809Y-69530238D01*
X68311904Y-69592142D01*
X68188095Y-69654047D01*
X67692857Y-69654047D01*
X69735714Y-70149285D02*
X69673809Y-70211190D01*
X69488095Y-70273095D01*
X69364285Y-70273095D01*
X69178571Y-70211190D01*
X69054761Y-70087380D01*
X68992857Y-69963571D01*
X68930952Y-69715952D01*
X68930952Y-69530238D01*
X68992857Y-69282619D01*
X69054761Y-69158809D01*
X69178571Y-69035000D01*
X69364285Y-68973095D01*
X69488095Y-68973095D01*
X69673809Y-69035000D01*
X69735714Y-69096904D01*
X70911904Y-68973095D02*
X70292857Y-68973095D01*
X70230952Y-69592142D01*
X70292857Y-69530238D01*
X70416666Y-69468333D01*
X70726190Y-69468333D01*
X70850000Y-69530238D01*
X70911904Y-69592142D01*
X70973809Y-69715952D01*
X70973809Y-70025476D01*
X70911904Y-70149285D01*
X70850000Y-70211190D01*
X70726190Y-70273095D01*
X70416666Y-70273095D01*
X70292857Y-70211190D01*
X70230952Y-70149285D01*
X71469047Y-69096904D02*
X71530952Y-69035000D01*
X71654761Y-68973095D01*
X71964285Y-68973095D01*
X72088095Y-69035000D01*
X72150000Y-69096904D01*
X72211904Y-69220714D01*
X72211904Y-69344523D01*
X72150000Y-69530238D01*
X71407142Y-70273095D01*
X72211904Y-70273095D01*
X72707142Y-69096904D02*
X72769047Y-69035000D01*
X72892857Y-68973095D01*
X73202380Y-68973095D01*
X73326190Y-69035000D01*
X73388095Y-69096904D01*
X73450000Y-69220714D01*
X73450000Y-69344523D01*
X73388095Y-69530238D01*
X72645238Y-70273095D01*
X73450000Y-70273095D01*
X75183333Y-70273095D02*
X75059523Y-70211190D01*
X74997619Y-70149285D01*
X74935714Y-70025476D01*
X74935714Y-69654047D01*
X74997619Y-69530238D01*
X75059523Y-69468333D01*
X75183333Y-69406428D01*
X75369047Y-69406428D01*
X75492857Y-69468333D01*
X75554761Y-69530238D01*
X75616666Y-69654047D01*
X75616666Y-70025476D01*
X75554761Y-70149285D01*
X75492857Y-70211190D01*
X75369047Y-70273095D01*
X75183333Y-70273095D01*
X76050000Y-69406428D02*
X76359523Y-70273095D01*
X76669047Y-69406428D01*
X77659523Y-70211190D02*
X77535714Y-70273095D01*
X77288095Y-70273095D01*
X77164285Y-70211190D01*
X77102380Y-70087380D01*
X77102380Y-69592142D01*
X77164285Y-69468333D01*
X77288095Y-69406428D01*
X77535714Y-69406428D01*
X77659523Y-69468333D01*
X77721428Y-69592142D01*
X77721428Y-69715952D01*
X77102380Y-69839761D01*
X78278571Y-70273095D02*
X78278571Y-69406428D01*
X78278571Y-69654047D02*
X78340476Y-69530238D01*
X78402380Y-69468333D01*
X78526190Y-69406428D01*
X78650000Y-69406428D01*
X80816666Y-70273095D02*
X80383333Y-69654047D01*
X80073809Y-70273095D02*
X80073809Y-68973095D01*
X80569047Y-68973095D01*
X80692857Y-69035000D01*
X80754761Y-69096904D01*
X80816666Y-69220714D01*
X80816666Y-69406428D01*
X80754761Y-69530238D01*
X80692857Y-69592142D01*
X80569047Y-69654047D01*
X80073809Y-69654047D01*
X81311904Y-70211190D02*
X81497619Y-70273095D01*
X81807142Y-70273095D01*
X81930952Y-70211190D01*
X81992857Y-70149285D01*
X82054761Y-70025476D01*
X82054761Y-69901666D01*
X81992857Y-69777857D01*
X81930952Y-69715952D01*
X81807142Y-69654047D01*
X81559523Y-69592142D01*
X81435714Y-69530238D01*
X81373809Y-69468333D01*
X81311904Y-69344523D01*
X81311904Y-69220714D01*
X81373809Y-69096904D01*
X81435714Y-69035000D01*
X81559523Y-68973095D01*
X81869047Y-68973095D01*
X82054761Y-69035000D01*
X83169047Y-69406428D02*
X83169047Y-70273095D01*
X82859523Y-68911190D02*
X82550000Y-69839761D01*
X83354761Y-69839761D01*
X84035714Y-69530238D02*
X83911904Y-69468333D01*
X83850000Y-69406428D01*
X83788095Y-69282619D01*
X83788095Y-69220714D01*
X83850000Y-69096904D01*
X83911904Y-69035000D01*
X84035714Y-68973095D01*
X84283333Y-68973095D01*
X84407142Y-69035000D01*
X84469047Y-69096904D01*
X84530952Y-69220714D01*
X84530952Y-69282619D01*
X84469047Y-69406428D01*
X84407142Y-69468333D01*
X84283333Y-69530238D01*
X84035714Y-69530238D01*
X83911904Y-69592142D01*
X83850000Y-69654047D01*
X83788095Y-69777857D01*
X83788095Y-70025476D01*
X83850000Y-70149285D01*
X83911904Y-70211190D01*
X84035714Y-70273095D01*
X84283333Y-70273095D01*
X84407142Y-70211190D01*
X84469047Y-70149285D01*
X84530952Y-70025476D01*
X84530952Y-69777857D01*
X84469047Y-69654047D01*
X84407142Y-69592142D01*
X84283333Y-69530238D01*
X85707142Y-68973095D02*
X85088095Y-68973095D01*
X85026190Y-69592142D01*
X85088095Y-69530238D01*
X85211904Y-69468333D01*
X85521428Y-69468333D01*
X85645238Y-69530238D01*
X85707142Y-69592142D01*
X85769047Y-69715952D01*
X85769047Y-70025476D01*
X85707142Y-70149285D01*
X85645238Y-70211190D01*
X85521428Y-70273095D01*
X85211904Y-70273095D01*
X85088095Y-70211190D01*
X85026190Y-70149285D01*
X74038095Y-71223095D02*
X74471428Y-72523095D01*
X74904761Y-71223095D01*
X75338095Y-72399285D02*
X75400000Y-72461190D01*
X75338095Y-72523095D01*
X75276190Y-72461190D01*
X75338095Y-72399285D01*
X75338095Y-72523095D01*
X76638095Y-72523095D02*
X75895238Y-72523095D01*
X76266666Y-72523095D02*
X76266666Y-71223095D01*
X76142857Y-71408809D01*
X76019047Y-71532619D01*
X75895238Y-71594523D01*
D11*
X67370000Y-51030000D02*
X85150000Y-51030000D01*
X85150000Y-51030000D02*
X85150000Y-53570000D01*
X85150000Y-53570000D02*
X67370000Y-53570000D01*
X64550000Y-50750000D02*
X66100000Y-50750000D01*
X67370000Y-51030000D02*
X67370000Y-53570000D01*
X66100000Y-53850000D02*
X64550000Y-53850000D01*
X64550000Y-53850000D02*
X64550000Y-50750000D01*
X98260000Y-66510000D02*
X98260000Y-79210000D01*
X98260000Y-79210000D02*
X93180000Y-79210000D01*
X93180000Y-79210000D02*
X93180000Y-69050000D01*
X98260000Y-66510000D02*
X95720000Y-66510000D01*
X94450000Y-66230000D02*
X92900000Y-66230000D01*
X95720000Y-66510000D02*
X95720000Y-69050000D01*
X95720000Y-69050000D02*
X93180000Y-69050000D01*
X92900000Y-66230000D02*
X92900000Y-67780000D01*
X68407500Y-61430000D02*
G75*
G03X68407500Y-61430000I-3187500J0D01*
G01*
X67470000Y-61430000D02*
G75*
G03X67470000Y-61430000I-1000000J0D01*
G01*
X68235000Y-60518000D02*
X68235000Y-62342000D01*
X68095000Y-60143000D02*
X68095000Y-62717000D01*
X67955000Y-59867000D02*
X67955000Y-62993000D01*
X67815000Y-59644000D02*
X67815000Y-63216000D01*
X67675000Y-59456000D02*
X67675000Y-63404000D01*
X67535000Y-59294000D02*
X67535000Y-63566000D01*
X67395000Y-61810000D02*
X67395000Y-63709000D01*
X67395000Y-59151000D02*
X67395000Y-61050000D01*
X67255000Y-62049000D02*
X67255000Y-63834000D01*
X67255000Y-59026000D02*
X67255000Y-60811000D01*
X67115000Y-62194000D02*
X67115000Y-63946000D01*
X67115000Y-58914000D02*
X67115000Y-60666000D01*
X66975000Y-62293000D02*
X66975000Y-64046000D01*
X66975000Y-58814000D02*
X66975000Y-60567000D01*
X66835000Y-62361000D02*
X66835000Y-64134000D01*
X66835000Y-58726000D02*
X66835000Y-60499000D01*
X66695000Y-62404000D02*
X66695000Y-64213000D01*
X66695000Y-58647000D02*
X66695000Y-60456000D01*
X66555000Y-62426000D02*
X66555000Y-64283000D01*
X66555000Y-58577000D02*
X66555000Y-60434000D01*
X66415000Y-62428000D02*
X66415000Y-64345000D01*
X66415000Y-58515000D02*
X66415000Y-60432000D01*
X66275000Y-62411000D02*
X66275000Y-64398000D01*
X66275000Y-58462000D02*
X66275000Y-60449000D01*
X66135000Y-62372000D02*
X66135000Y-64444000D01*
X66135000Y-58416000D02*
X66135000Y-60488000D01*
X65995000Y-62310000D02*
X65995000Y-64483000D01*
X65995000Y-58377000D02*
X65995000Y-60550000D01*
X65855000Y-62219000D02*
X65855000Y-64515000D01*
X65855000Y-58345000D02*
X65855000Y-60641000D01*
X65715000Y-62086000D02*
X65715000Y-64541000D01*
X65715000Y-58319000D02*
X65715000Y-60774000D01*
X65575000Y-61876000D02*
X65575000Y-64560000D01*
X65575000Y-58300000D02*
X65575000Y-60984000D01*
X65435000Y-58287000D02*
X65435000Y-64573000D01*
X65295000Y-58281000D02*
X65295000Y-64579000D01*
X56445000Y-83681000D02*
X56445000Y-89979000D01*
X56585000Y-83687000D02*
X56585000Y-89973000D01*
X56725000Y-83700000D02*
X56725000Y-86384000D01*
X56725000Y-87276000D02*
X56725000Y-89960000D01*
X56865000Y-83719000D02*
X56865000Y-86174000D01*
X56865000Y-87486000D02*
X56865000Y-89941000D01*
X57005000Y-83745000D02*
X57005000Y-86041000D01*
X57005000Y-87619000D02*
X57005000Y-89915000D01*
X57145000Y-83777000D02*
X57145000Y-85950000D01*
X57145000Y-87710000D02*
X57145000Y-89883000D01*
X57285000Y-83816000D02*
X57285000Y-85888000D01*
X57285000Y-87772000D02*
X57285000Y-89844000D01*
X57425000Y-83862000D02*
X57425000Y-85849000D01*
X57425000Y-87811000D02*
X57425000Y-89798000D01*
X57565000Y-83915000D02*
X57565000Y-85832000D01*
X57565000Y-87828000D02*
X57565000Y-89745000D01*
X57705000Y-83977000D02*
X57705000Y-85834000D01*
X57705000Y-87826000D02*
X57705000Y-89683000D01*
X57845000Y-84047000D02*
X57845000Y-85856000D01*
X57845000Y-87804000D02*
X57845000Y-89613000D01*
X57985000Y-84126000D02*
X57985000Y-85899000D01*
X57985000Y-87761000D02*
X57985000Y-89534000D01*
X58125000Y-84214000D02*
X58125000Y-85967000D01*
X58125000Y-87693000D02*
X58125000Y-89446000D01*
X58265000Y-84314000D02*
X58265000Y-86066000D01*
X58265000Y-87594000D02*
X58265000Y-89346000D01*
X58405000Y-84426000D02*
X58405000Y-86211000D01*
X58405000Y-87449000D02*
X58405000Y-89234000D01*
X58545000Y-84551000D02*
X58545000Y-86450000D01*
X58545000Y-87210000D02*
X58545000Y-89109000D01*
X58685000Y-84694000D02*
X58685000Y-88966000D01*
X58825000Y-84856000D02*
X58825000Y-88804000D01*
X58965000Y-85044000D02*
X58965000Y-88616000D01*
X59105000Y-85267000D02*
X59105000Y-88393000D01*
X59245000Y-85543000D02*
X59245000Y-88117000D01*
X59385000Y-85918000D02*
X59385000Y-87742000D01*
X58620000Y-86830000D02*
G75*
G03X58620000Y-86830000I-1000000J0D01*
G01*
X59557500Y-86830000D02*
G75*
G03X59557500Y-86830000I-3187500J0D01*
G01*
X61010000Y-98100000D02*
X61010000Y-85100000D01*
X61010000Y-85100000D02*
X68510000Y-85100000D01*
X68510000Y-85100000D02*
X68510000Y-98100000D01*
X68510000Y-98100000D02*
X61010000Y-98100000D01*
X61010000Y-98100000D02*
X61010000Y-98100000D01*
X63010000Y-98100000D02*
X63010000Y-96100000D01*
X63010000Y-96100000D02*
X64010000Y-95100000D01*
X64010000Y-95100000D02*
X65010000Y-96100000D01*
X65010000Y-96100000D02*
X65010000Y-98100000D01*
X65010000Y-98100000D02*
X65510000Y-98100000D01*
X65510000Y-98100000D02*
X65510000Y-96100000D01*
X65510000Y-96100000D02*
X66510000Y-95100000D01*
X66510000Y-95100000D02*
X67510000Y-96100000D01*
X67510000Y-96100000D02*
X67510000Y-98100000D01*
X67510000Y-98100000D02*
X67510000Y-98100000D01*
X67510000Y-98100000D02*
X68010000Y-98100000D01*
X63510000Y-86600000D02*
X63510000Y-86100000D01*
X63510000Y-86100000D02*
X63010000Y-85600000D01*
X63010000Y-85600000D02*
X65010000Y-85600000D01*
X65010000Y-85600000D02*
X64510000Y-86100000D01*
X64510000Y-86100000D02*
X64510000Y-86600000D01*
X64510000Y-86600000D02*
X64510000Y-86600000D01*
X66010000Y-86600000D02*
X66010000Y-86100000D01*
X66010000Y-86100000D02*
X65510000Y-85600000D01*
X65510000Y-85600000D02*
X67510000Y-85600000D01*
X67510000Y-85600000D02*
X67010000Y-86100000D01*
X67010000Y-86100000D02*
X67010000Y-86600000D01*
X67010000Y-86600000D02*
X67010000Y-86600000D01*
X89870000Y-73980000D02*
X89870000Y-73980000D01*
X89870000Y-73480000D02*
X89870000Y-73980000D01*
X90370000Y-72980000D02*
X89870000Y-73480000D01*
X88370000Y-72980000D02*
X90370000Y-72980000D01*
X88870000Y-73480000D02*
X88370000Y-72980000D01*
X88870000Y-73980000D02*
X88870000Y-73480000D01*
X87370000Y-73980000D02*
X87370000Y-73980000D01*
X87370000Y-73480000D02*
X87370000Y-73980000D01*
X87870000Y-72980000D02*
X87370000Y-73480000D01*
X85870000Y-72980000D02*
X87870000Y-72980000D01*
X86370000Y-73480000D02*
X85870000Y-72980000D01*
X86370000Y-73980000D02*
X86370000Y-73480000D01*
X90370000Y-85480000D02*
X90870000Y-85480000D01*
X90370000Y-85480000D02*
X90370000Y-85480000D01*
X90370000Y-83480000D02*
X90370000Y-85480000D01*
X89370000Y-82480000D02*
X90370000Y-83480000D01*
X88370000Y-83480000D02*
X89370000Y-82480000D01*
X88370000Y-85480000D02*
X88370000Y-83480000D01*
X87870000Y-85480000D02*
X88370000Y-85480000D01*
X87870000Y-83480000D02*
X87870000Y-85480000D01*
X86870000Y-82480000D02*
X87870000Y-83480000D01*
X85870000Y-83480000D02*
X86870000Y-82480000D01*
X85870000Y-85480000D02*
X85870000Y-83480000D01*
X83870000Y-85480000D02*
X83870000Y-85480000D01*
X91370000Y-85480000D02*
X83870000Y-85480000D01*
X91370000Y-72480000D02*
X91370000Y-85480000D01*
X83870000Y-72480000D02*
X91370000Y-72480000D01*
X83870000Y-85480000D02*
X83870000Y-72480000D01*
X67910000Y-75400000D02*
X68210000Y-75400000D01*
X67910000Y-77000000D02*
X67910000Y-75400000D01*
X64010000Y-77000000D02*
X67910000Y-77000000D01*
X64010000Y-71800000D02*
X64010000Y-77000000D01*
X67910000Y-71800000D02*
X64010000Y-71800000D01*
X67910000Y-73400000D02*
X67910000Y-71800000D01*
X68210000Y-73400000D02*
X67910000Y-73400000D01*
X63710000Y-77350000D02*
X68210000Y-77350000D01*
X63710000Y-71450000D02*
X68210000Y-71450000D01*
X63710000Y-77350000D02*
X63710000Y-71450000D01*
X68210000Y-77350000D02*
X68210000Y-71450000D01*
X70800060Y-76400760D02*
X70599400Y-75999440D01*
X70599400Y-75999440D02*
X70497800Y-75400000D01*
X70497800Y-75400000D02*
X70599400Y-74899620D01*
X70599400Y-74899620D02*
X70998180Y-74201120D01*
X70998180Y-74201120D02*
X71600160Y-73799800D01*
X71600160Y-73799800D02*
X72199600Y-73599140D01*
X72199600Y-73599140D02*
X78798520Y-73599140D01*
X78798520Y-73599140D02*
X79499560Y-73799800D01*
X79499560Y-73799800D02*
X79898340Y-74099520D01*
X79898340Y-74099520D02*
X80299660Y-74599900D01*
X80299660Y-74599900D02*
X80500320Y-75199340D01*
X80500320Y-75199340D02*
X80500320Y-75699720D01*
X80500320Y-75699720D02*
X80299660Y-76200100D01*
X80299660Y-76200100D02*
X79799280Y-76799540D01*
X79799280Y-76799540D02*
X79298900Y-77099260D01*
X79298900Y-77099260D02*
X78798520Y-77200860D01*
X78699460Y-77200860D02*
X72098000Y-77200860D01*
X72098000Y-77200860D02*
X71699220Y-77099260D01*
X71699220Y-77099260D02*
X71198840Y-76799540D01*
X71198840Y-76799540D02*
X70698460Y-76299160D01*
X78689300Y-77729180D02*
X79149040Y-77680920D01*
X79149040Y-77680920D02*
X79547820Y-77569160D01*
X79547820Y-77569160D02*
X79979620Y-77350720D01*
X79979620Y-77350720D02*
X80269180Y-77119580D01*
X80269180Y-77119580D02*
X80599380Y-76769060D01*
X80599380Y-76769060D02*
X80888940Y-76230580D01*
X80888940Y-76230580D02*
X81018480Y-75631140D01*
X81018480Y-75631140D02*
X81018480Y-75120600D01*
X81018480Y-75120600D02*
X80848300Y-74419560D01*
X80848300Y-74419560D02*
X80449520Y-73830280D01*
X80449520Y-73830280D02*
X79989780Y-73459440D01*
X79989780Y-73459440D02*
X79568140Y-73251160D01*
X79568140Y-73251160D02*
X79118560Y-73091140D01*
X79118560Y-73091140D02*
X78679140Y-73060660D01*
X71338540Y-73279100D02*
X70960080Y-73500080D01*
X70960080Y-73500080D02*
X70640040Y-73779480D01*
X70640040Y-73779480D02*
X70388580Y-74109680D01*
X70388580Y-74109680D02*
X70088860Y-74660860D01*
X70088860Y-74660860D02*
X69979640Y-75130760D01*
X69979640Y-75130760D02*
X69959320Y-75590500D01*
X69959320Y-75590500D02*
X70048220Y-76050240D01*
X70048220Y-76050240D02*
X70238720Y-76499820D01*
X70238720Y-76499820D02*
X70599400Y-76969720D01*
X70599400Y-76969720D02*
X70949920Y-77289760D01*
X70949920Y-77289760D02*
X71338540Y-77520900D01*
X71338540Y-77520900D02*
X71767800Y-77660600D01*
X71767800Y-77660600D02*
X72209760Y-77729180D01*
X78699460Y-73070820D02*
X72247860Y-73070820D01*
X72247860Y-73070820D02*
X71828760Y-73108920D01*
X71828760Y-73108920D02*
X71338540Y-73279100D01*
X78699460Y-77729180D02*
X72247860Y-77729180D01*
X85774523Y-52992380D02*
X85774523Y-51992380D01*
X86155476Y-51992380D01*
X86250714Y-52040000D01*
X86298333Y-52087619D01*
X86345952Y-52182857D01*
X86345952Y-52325714D01*
X86298333Y-52420952D01*
X86250714Y-52468571D01*
X86155476Y-52516190D01*
X85774523Y-52516190D01*
X87298333Y-52992380D02*
X86726904Y-52992380D01*
X87012619Y-52992380D02*
X87012619Y-51992380D01*
X86917380Y-52135238D01*
X86822142Y-52230476D01*
X86726904Y-52278095D01*
X87917380Y-51992380D02*
X88012619Y-51992380D01*
X88107857Y-52040000D01*
X88155476Y-52087619D01*
X88203095Y-52182857D01*
X88250714Y-52373333D01*
X88250714Y-52611428D01*
X88203095Y-52801904D01*
X88155476Y-52897142D01*
X88107857Y-52944761D01*
X88012619Y-52992380D01*
X87917380Y-52992380D01*
X87822142Y-52944761D01*
X87774523Y-52897142D01*
X87726904Y-52801904D01*
X87679285Y-52611428D01*
X87679285Y-52373333D01*
X87726904Y-52182857D01*
X87774523Y-52087619D01*
X87822142Y-52040000D01*
X87917380Y-51992380D01*
X89155476Y-51992380D02*
X88679285Y-51992380D01*
X88631666Y-52468571D01*
X88679285Y-52420952D01*
X88774523Y-52373333D01*
X89012619Y-52373333D01*
X89107857Y-52420952D01*
X89155476Y-52468571D01*
X89203095Y-52563809D01*
X89203095Y-52801904D01*
X89155476Y-52897142D01*
X89107857Y-52944761D01*
X89012619Y-52992380D01*
X88774523Y-52992380D01*
X88679285Y-52944761D01*
X88631666Y-52897142D01*
X94664523Y-80932380D02*
X94664523Y-79932380D01*
X95045476Y-79932380D01*
X95140714Y-79980000D01*
X95188333Y-80027619D01*
X95235952Y-80122857D01*
X95235952Y-80265714D01*
X95188333Y-80360952D01*
X95140714Y-80408571D01*
X95045476Y-80456190D01*
X94664523Y-80456190D01*
X96188333Y-80932380D02*
X95616904Y-80932380D01*
X95902619Y-80932380D02*
X95902619Y-79932380D01*
X95807380Y-80075238D01*
X95712142Y-80170476D01*
X95616904Y-80218095D01*
X96807380Y-79932380D02*
X96902619Y-79932380D01*
X96997857Y-79980000D01*
X97045476Y-80027619D01*
X97093095Y-80122857D01*
X97140714Y-80313333D01*
X97140714Y-80551428D01*
X97093095Y-80741904D01*
X97045476Y-80837142D01*
X96997857Y-80884761D01*
X96902619Y-80932380D01*
X96807380Y-80932380D01*
X96712142Y-80884761D01*
X96664523Y-80837142D01*
X96616904Y-80741904D01*
X96569285Y-80551428D01*
X96569285Y-80313333D01*
X96616904Y-80122857D01*
X96664523Y-80027619D01*
X96712142Y-79980000D01*
X96807380Y-79932380D01*
X97474047Y-79932380D02*
X98093095Y-79932380D01*
X97759761Y-80313333D01*
X97902619Y-80313333D01*
X97997857Y-80360952D01*
X98045476Y-80408571D01*
X98093095Y-80503809D01*
X98093095Y-80741904D01*
X98045476Y-80837142D01*
X97997857Y-80884761D01*
X97902619Y-80932380D01*
X97616904Y-80932380D01*
X97521666Y-80884761D01*
X97474047Y-80837142D01*
X64120952Y-57342142D02*
X64073333Y-57389761D01*
X63930476Y-57437380D01*
X63835238Y-57437380D01*
X63692380Y-57389761D01*
X63597142Y-57294523D01*
X63549523Y-57199285D01*
X63501904Y-57008809D01*
X63501904Y-56865952D01*
X63549523Y-56675476D01*
X63597142Y-56580238D01*
X63692380Y-56485000D01*
X63835238Y-56437380D01*
X63930476Y-56437380D01*
X64073333Y-56485000D01*
X64120952Y-56532619D01*
X65073333Y-57437380D02*
X64501904Y-57437380D01*
X64787619Y-57437380D02*
X64787619Y-56437380D01*
X64692380Y-56580238D01*
X64597142Y-56675476D01*
X64501904Y-56723095D01*
X66025714Y-57437380D02*
X65454285Y-57437380D01*
X65740000Y-57437380D02*
X65740000Y-56437380D01*
X65644761Y-56580238D01*
X65549523Y-56675476D01*
X65454285Y-56723095D01*
X66644761Y-56437380D02*
X66740000Y-56437380D01*
X66835238Y-56485000D01*
X66882857Y-56532619D01*
X66930476Y-56627857D01*
X66978095Y-56818333D01*
X66978095Y-57056428D01*
X66930476Y-57246904D01*
X66882857Y-57342142D01*
X66835238Y-57389761D01*
X66740000Y-57437380D01*
X66644761Y-57437380D01*
X66549523Y-57389761D01*
X66501904Y-57342142D01*
X66454285Y-57246904D01*
X66406666Y-57056428D01*
X66406666Y-56818333D01*
X66454285Y-56627857D01*
X66501904Y-56532619D01*
X66549523Y-56485000D01*
X66644761Y-56437380D01*
X55250952Y-82787142D02*
X55203333Y-82834761D01*
X55060476Y-82882380D01*
X54965238Y-82882380D01*
X54822380Y-82834761D01*
X54727142Y-82739523D01*
X54679523Y-82644285D01*
X54631904Y-82453809D01*
X54631904Y-82310952D01*
X54679523Y-82120476D01*
X54727142Y-82025238D01*
X54822380Y-81930000D01*
X54965238Y-81882380D01*
X55060476Y-81882380D01*
X55203333Y-81930000D01*
X55250952Y-81977619D01*
X56203333Y-82882380D02*
X55631904Y-82882380D01*
X55917619Y-82882380D02*
X55917619Y-81882380D01*
X55822380Y-82025238D01*
X55727142Y-82120476D01*
X55631904Y-82168095D01*
X56822380Y-81882380D02*
X56917619Y-81882380D01*
X57012857Y-81930000D01*
X57060476Y-81977619D01*
X57108095Y-82072857D01*
X57155714Y-82263333D01*
X57155714Y-82501428D01*
X57108095Y-82691904D01*
X57060476Y-82787142D01*
X57012857Y-82834761D01*
X56917619Y-82882380D01*
X56822380Y-82882380D01*
X56727142Y-82834761D01*
X56679523Y-82787142D01*
X56631904Y-82691904D01*
X56584285Y-82501428D01*
X56584285Y-82263333D01*
X56631904Y-82072857D01*
X56679523Y-81977619D01*
X56727142Y-81930000D01*
X56822380Y-81882380D01*
X58060476Y-81882380D02*
X57584285Y-81882380D01*
X57536666Y-82358571D01*
X57584285Y-82310952D01*
X57679523Y-82263333D01*
X57917619Y-82263333D01*
X58012857Y-82310952D01*
X58060476Y-82358571D01*
X58108095Y-82453809D01*
X58108095Y-82691904D01*
X58060476Y-82787142D01*
X58012857Y-82834761D01*
X57917619Y-82882380D01*
X57679523Y-82882380D01*
X57584285Y-82834761D01*
X57536666Y-82787142D01*
X69264523Y-98077380D02*
X69264523Y-97077380D01*
X69645476Y-97077380D01*
X69740714Y-97125000D01*
X69788333Y-97172619D01*
X69835952Y-97267857D01*
X69835952Y-97410714D01*
X69788333Y-97505952D01*
X69740714Y-97553571D01*
X69645476Y-97601190D01*
X69264523Y-97601190D01*
X70788333Y-98077380D02*
X70216904Y-98077380D01*
X70502619Y-98077380D02*
X70502619Y-97077380D01*
X70407380Y-97220238D01*
X70312142Y-97315476D01*
X70216904Y-97363095D01*
X71407380Y-97077380D02*
X71502619Y-97077380D01*
X71597857Y-97125000D01*
X71645476Y-97172619D01*
X71693095Y-97267857D01*
X71740714Y-97458333D01*
X71740714Y-97696428D01*
X71693095Y-97886904D01*
X71645476Y-97982142D01*
X71597857Y-98029761D01*
X71502619Y-98077380D01*
X71407380Y-98077380D01*
X71312142Y-98029761D01*
X71264523Y-97982142D01*
X71216904Y-97886904D01*
X71169285Y-97696428D01*
X71169285Y-97458333D01*
X71216904Y-97267857D01*
X71264523Y-97172619D01*
X71312142Y-97125000D01*
X71407380Y-97077380D01*
X72693095Y-98077380D02*
X72121666Y-98077380D01*
X72407380Y-98077380D02*
X72407380Y-97077380D01*
X72312142Y-97220238D01*
X72216904Y-97315476D01*
X72121666Y-97363095D01*
X92124523Y-85377380D02*
X92124523Y-84377380D01*
X92505476Y-84377380D01*
X92600714Y-84425000D01*
X92648333Y-84472619D01*
X92695952Y-84567857D01*
X92695952Y-84710714D01*
X92648333Y-84805952D01*
X92600714Y-84853571D01*
X92505476Y-84901190D01*
X92124523Y-84901190D01*
X93648333Y-85377380D02*
X93076904Y-85377380D01*
X93362619Y-85377380D02*
X93362619Y-84377380D01*
X93267380Y-84520238D01*
X93172142Y-84615476D01*
X93076904Y-84663095D01*
X94267380Y-84377380D02*
X94362619Y-84377380D01*
X94457857Y-84425000D01*
X94505476Y-84472619D01*
X94553095Y-84567857D01*
X94600714Y-84758333D01*
X94600714Y-84996428D01*
X94553095Y-85186904D01*
X94505476Y-85282142D01*
X94457857Y-85329761D01*
X94362619Y-85377380D01*
X94267380Y-85377380D01*
X94172142Y-85329761D01*
X94124523Y-85282142D01*
X94076904Y-85186904D01*
X94029285Y-84996428D01*
X94029285Y-84758333D01*
X94076904Y-84567857D01*
X94124523Y-84472619D01*
X94172142Y-84425000D01*
X94267380Y-84377380D01*
X94981666Y-84472619D02*
X95029285Y-84425000D01*
X95124523Y-84377380D01*
X95362619Y-84377380D01*
X95457857Y-84425000D01*
X95505476Y-84472619D01*
X95553095Y-84567857D01*
X95553095Y-84663095D01*
X95505476Y-84805952D01*
X94934047Y-85377380D01*
X95553095Y-85377380D01*
X63152380Y-76090476D02*
X62152380Y-76090476D01*
X62152380Y-75709523D01*
X62200000Y-75614285D01*
X62247619Y-75566666D01*
X62342857Y-75519047D01*
X62485714Y-75519047D01*
X62580952Y-75566666D01*
X62628571Y-75614285D01*
X62676190Y-75709523D01*
X62676190Y-76090476D01*
X63152380Y-74566666D02*
X63152380Y-75138095D01*
X63152380Y-74852380D02*
X62152380Y-74852380D01*
X62295238Y-74947619D01*
X62390476Y-75042857D01*
X62438095Y-75138095D01*
X62152380Y-73947619D02*
X62152380Y-73852380D01*
X62200000Y-73757142D01*
X62247619Y-73709523D01*
X62342857Y-73661904D01*
X62533333Y-73614285D01*
X62771428Y-73614285D01*
X62961904Y-73661904D01*
X63057142Y-73709523D01*
X63104761Y-73757142D01*
X63152380Y-73852380D01*
X63152380Y-73947619D01*
X63104761Y-74042857D01*
X63057142Y-74090476D01*
X62961904Y-74138095D01*
X62771428Y-74185714D01*
X62533333Y-74185714D01*
X62342857Y-74138095D01*
X62247619Y-74090476D01*
X62200000Y-74042857D01*
X62152380Y-73947619D01*
X62485714Y-72757142D02*
X63152380Y-72757142D01*
X62104761Y-72995238D02*
X62819047Y-73233333D01*
X62819047Y-72614285D01*
X77448095Y-78027380D02*
X78114761Y-79027380D01*
X78114761Y-78027380D02*
X77448095Y-79027380D01*
X79019523Y-79027380D02*
X78448095Y-79027380D01*
X78733809Y-79027380D02*
X78733809Y-78027380D01*
X78638571Y-78170238D01*
X78543333Y-78265476D01*
X78448095Y-78313095D01*
X79638571Y-78027380D02*
X79733809Y-78027380D01*
X79829047Y-78075000D01*
X79876666Y-78122619D01*
X79924285Y-78217857D01*
X79971904Y-78408333D01*
X79971904Y-78646428D01*
X79924285Y-78836904D01*
X79876666Y-78932142D01*
X79829047Y-78979761D01*
X79733809Y-79027380D01*
X79638571Y-79027380D01*
X79543333Y-78979761D01*
X79495714Y-78932142D01*
X79448095Y-78836904D01*
X79400476Y-78646428D01*
X79400476Y-78408333D01*
X79448095Y-78217857D01*
X79495714Y-78122619D01*
X79543333Y-78075000D01*
X79638571Y-78027380D01*
X80924285Y-79027380D02*
X80352857Y-79027380D01*
X80638571Y-79027380D02*
X80638571Y-78027380D01*
X80543333Y-78170238D01*
X80448095Y-78265476D01*
X80352857Y-78313095D01*
M02*
